G04 #@! TF.GenerationSoftware,KiCad,Pcbnew,5.0.2*
G04 #@! TF.CreationDate,2020-07-22T00:18:21+02:00*
G04 #@! TF.ProjectId,pmod-wifi-esp32,706d6f64-2d77-4696-9669-2d6573703332,1*
G04 #@! TF.SameCoordinates,Original*
G04 #@! TF.FileFunction,Copper,L1,Top*
G04 #@! TF.FilePolarity,Positive*
%FSLAX46Y46*%
G04 Gerber Fmt 4.6, Leading zero omitted, Abs format (unit mm)*
G04 Created by KiCad (PCBNEW 5.0.2) date mer. 22 juil. 2020 00:18:21 CEST*
%MOMM*%
%LPD*%
G01*
G04 APERTURE LIST*
G04 #@! TA.AperFunction,NonConductor*
%ADD10C,0.101600*%
G04 #@! TD*
G04 #@! TA.AperFunction,SMDPad,CuDef*
%ADD11R,0.250000X0.750000*%
G04 #@! TD*
G04 #@! TA.AperFunction,SMDPad,CuDef*
%ADD12R,0.750000X0.250000*%
G04 #@! TD*
G04 #@! TA.AperFunction,SMDPad,CuDef*
%ADD13R,1.500000X1.500000*%
G04 #@! TD*
G04 #@! TA.AperFunction,ComponentPad*
%ADD14R,2.000000X1.900000*%
G04 #@! TD*
G04 #@! TA.AperFunction,ComponentPad*
%ADD15C,1.900000*%
G04 #@! TD*
G04 #@! TA.AperFunction,SMDPad,CuDef*
%ADD16R,1.800000X1.500000*%
G04 #@! TD*
G04 #@! TA.AperFunction,SMDPad,CuDef*
%ADD17R,1.143000X0.635000*%
G04 #@! TD*
G04 #@! TA.AperFunction,SMDPad,CuDef*
%ADD18R,0.635000X1.143000*%
G04 #@! TD*
G04 #@! TA.AperFunction,SMDPad,CuDef*
%ADD19R,1.500000X1.200000*%
G04 #@! TD*
G04 #@! TA.AperFunction,SMDPad,CuDef*
%ADD20R,1.600000X0.550000*%
G04 #@! TD*
G04 #@! TA.AperFunction,SMDPad,CuDef*
%ADD21R,0.889000X1.397000*%
G04 #@! TD*
G04 #@! TA.AperFunction,BGAPad,CuDef*
%ADD22C,1.198880*%
G04 #@! TD*
G04 #@! TA.AperFunction,ViaPad*
%ADD23C,0.711200*%
G04 #@! TD*
G04 #@! TA.AperFunction,Conductor*
%ADD24C,0.406400*%
G04 #@! TD*
G04 #@! TA.AperFunction,Conductor*
%ADD25C,0.304800*%
G04 #@! TD*
G04 #@! TA.AperFunction,Conductor*
%ADD26C,0.203200*%
G04 #@! TD*
G04 #@! TA.AperFunction,Conductor*
%ADD27C,0.152400*%
G04 #@! TD*
G04 APERTURE END LIST*
D10*
X141485373Y-114571733D02*
X141485373Y-113860533D01*
X141756306Y-113860533D01*
X141824040Y-113894400D01*
X141857906Y-113928266D01*
X141891773Y-113996000D01*
X141891773Y-114097600D01*
X141857906Y-114165333D01*
X141824040Y-114199200D01*
X141756306Y-114233066D01*
X141485373Y-114233066D01*
X142196573Y-114571733D02*
X142196573Y-113860533D01*
X142433640Y-114368533D01*
X142670706Y-113860533D01*
X142670706Y-114571733D01*
X143144840Y-113860533D02*
X143280306Y-113860533D01*
X143348040Y-113894400D01*
X143415773Y-113962133D01*
X143449640Y-114097600D01*
X143449640Y-114334666D01*
X143415773Y-114470133D01*
X143348040Y-114537866D01*
X143280306Y-114571733D01*
X143144840Y-114571733D01*
X143077106Y-114537866D01*
X143009373Y-114470133D01*
X142975506Y-114334666D01*
X142975506Y-114097600D01*
X143009373Y-113962133D01*
X143077106Y-113894400D01*
X143144840Y-113860533D01*
X143754440Y-114571733D02*
X143754440Y-113860533D01*
X143923773Y-113860533D01*
X144025373Y-113894400D01*
X144093106Y-113962133D01*
X144126973Y-114029866D01*
X144160840Y-114165333D01*
X144160840Y-114266933D01*
X144126973Y-114402400D01*
X144093106Y-114470133D01*
X144025373Y-114537866D01*
X143923773Y-114571733D01*
X143754440Y-114571733D01*
X144465640Y-114300800D02*
X145007506Y-114300800D01*
X145346173Y-114199200D02*
X145583240Y-114199200D01*
X145684840Y-114571733D02*
X145346173Y-114571733D01*
X145346173Y-113860533D01*
X145684840Y-113860533D01*
X145955773Y-114537866D02*
X146057373Y-114571733D01*
X146226706Y-114571733D01*
X146294440Y-114537866D01*
X146328306Y-114504000D01*
X146362173Y-114436266D01*
X146362173Y-114368533D01*
X146328306Y-114300800D01*
X146294440Y-114266933D01*
X146226706Y-114233066D01*
X146091240Y-114199200D01*
X146023506Y-114165333D01*
X145989640Y-114131466D01*
X145955773Y-114063733D01*
X145955773Y-113996000D01*
X145989640Y-113928266D01*
X146023506Y-113894400D01*
X146091240Y-113860533D01*
X146260573Y-113860533D01*
X146362173Y-113894400D01*
X146666973Y-114571733D02*
X146666973Y-113860533D01*
X146937906Y-113860533D01*
X147005640Y-113894400D01*
X147039506Y-113928266D01*
X147073373Y-113996000D01*
X147073373Y-114097600D01*
X147039506Y-114165333D01*
X147005640Y-114199200D01*
X146937906Y-114233066D01*
X146666973Y-114233066D01*
X147310440Y-113860533D02*
X147750706Y-113860533D01*
X147513640Y-114131466D01*
X147615240Y-114131466D01*
X147682973Y-114165333D01*
X147716840Y-114199200D01*
X147750706Y-114266933D01*
X147750706Y-114436266D01*
X147716840Y-114504000D01*
X147682973Y-114537866D01*
X147615240Y-114571733D01*
X147412040Y-114571733D01*
X147344306Y-114537866D01*
X147310440Y-114504000D01*
X148021640Y-113928266D02*
X148055506Y-113894400D01*
X148123240Y-113860533D01*
X148292573Y-113860533D01*
X148360306Y-113894400D01*
X148394173Y-113928266D01*
X148428040Y-113996000D01*
X148428040Y-114063733D01*
X148394173Y-114165333D01*
X147987773Y-114571733D01*
X148428040Y-114571733D01*
X149274706Y-114571733D02*
X149274706Y-114097600D01*
X149274706Y-114233066D02*
X149308573Y-114165333D01*
X149342440Y-114131466D01*
X149410173Y-114097600D01*
X149477906Y-114097600D01*
X149985906Y-114537866D02*
X149918173Y-114571733D01*
X149782706Y-114571733D01*
X149714973Y-114537866D01*
X149681106Y-114470133D01*
X149681106Y-114199200D01*
X149714973Y-114131466D01*
X149782706Y-114097600D01*
X149918173Y-114097600D01*
X149985906Y-114131466D01*
X150019773Y-114199200D01*
X150019773Y-114266933D01*
X149681106Y-114334666D01*
X150256840Y-114097600D02*
X150426173Y-114571733D01*
X150595506Y-114097600D01*
X151238973Y-114571733D02*
X150832573Y-114571733D01*
X151035773Y-114571733D02*
X151035773Y-113860533D01*
X150968040Y-113962133D01*
X150900306Y-114029866D01*
X150832573Y-114063733D01*
X130140133Y-95868533D02*
X130478800Y-95868533D01*
X130072400Y-96071733D02*
X130309466Y-95360533D01*
X130546533Y-96071733D01*
X131088400Y-95597600D02*
X131088400Y-96173333D01*
X131054533Y-96241066D01*
X131020666Y-96274933D01*
X130952933Y-96308800D01*
X130851333Y-96308800D01*
X130783600Y-96274933D01*
X131088400Y-96037866D02*
X131020666Y-96071733D01*
X130885200Y-96071733D01*
X130817466Y-96037866D01*
X130783600Y-96004000D01*
X130749733Y-95936266D01*
X130749733Y-95733066D01*
X130783600Y-95665333D01*
X130817466Y-95631466D01*
X130885200Y-95597600D01*
X131020666Y-95597600D01*
X131088400Y-95631466D01*
X131427066Y-96071733D02*
X131427066Y-95597600D01*
X131427066Y-95360533D02*
X131393200Y-95394400D01*
X131427066Y-95428266D01*
X131460933Y-95394400D01*
X131427066Y-95360533D01*
X131427066Y-95428266D01*
X131867333Y-96071733D02*
X131799600Y-96037866D01*
X131765733Y-95970133D01*
X131765733Y-95360533D01*
X132443066Y-96071733D02*
X132443066Y-95699200D01*
X132409200Y-95631466D01*
X132341466Y-95597600D01*
X132206000Y-95597600D01*
X132138266Y-95631466D01*
X132443066Y-96037866D02*
X132375333Y-96071733D01*
X132206000Y-96071733D01*
X132138266Y-96037866D01*
X132104400Y-95970133D01*
X132104400Y-95902400D01*
X132138266Y-95834666D01*
X132206000Y-95800800D01*
X132375333Y-95800800D01*
X132443066Y-95766933D01*
X133086533Y-96037866D02*
X133018800Y-96071733D01*
X132883333Y-96071733D01*
X132815600Y-96037866D01*
X132781733Y-96004000D01*
X132747866Y-95936266D01*
X132747866Y-95733066D01*
X132781733Y-95665333D01*
X132815600Y-95631466D01*
X132883333Y-95597600D01*
X133018800Y-95597600D01*
X133086533Y-95631466D01*
X133391333Y-96071733D02*
X133391333Y-95360533D01*
X133459066Y-95800800D02*
X133662266Y-96071733D01*
X133662266Y-95597600D02*
X133391333Y-95868533D01*
X134915333Y-96004000D02*
X134881466Y-96037866D01*
X134779866Y-96071733D01*
X134712133Y-96071733D01*
X134610533Y-96037866D01*
X134542800Y-95970133D01*
X134508933Y-95902400D01*
X134475066Y-95766933D01*
X134475066Y-95665333D01*
X134508933Y-95529866D01*
X134542800Y-95462133D01*
X134610533Y-95394400D01*
X134712133Y-95360533D01*
X134779866Y-95360533D01*
X134881466Y-95394400D01*
X134915333Y-95428266D01*
X135626533Y-96004000D02*
X135592666Y-96037866D01*
X135491066Y-96071733D01*
X135423333Y-96071733D01*
X135321733Y-96037866D01*
X135254000Y-95970133D01*
X135220133Y-95902400D01*
X135186266Y-95766933D01*
X135186266Y-95665333D01*
X135220133Y-95529866D01*
X135254000Y-95462133D01*
X135321733Y-95394400D01*
X135423333Y-95360533D01*
X135491066Y-95360533D01*
X135592666Y-95394400D01*
X135626533Y-95428266D01*
X135931333Y-95800800D02*
X136473200Y-95800800D01*
X136811866Y-96071733D02*
X136811866Y-95360533D01*
X136811866Y-95631466D02*
X136879600Y-95597600D01*
X137015066Y-95597600D01*
X137082800Y-95631466D01*
X137116666Y-95665333D01*
X137150533Y-95733066D01*
X137150533Y-95936266D01*
X137116666Y-96004000D01*
X137082800Y-96037866D01*
X137015066Y-96071733D01*
X136879600Y-96071733D01*
X136811866Y-96037866D01*
X137387600Y-95597600D02*
X137556933Y-96071733D01*
X137726266Y-95597600D02*
X137556933Y-96071733D01*
X137489200Y-96241066D01*
X137455333Y-96274933D01*
X137387600Y-96308800D01*
X137997200Y-95800800D02*
X138539066Y-95800800D01*
X138843866Y-96037866D02*
X138945466Y-96071733D01*
X139114800Y-96071733D01*
X139182533Y-96037866D01*
X139216400Y-96004000D01*
X139250266Y-95936266D01*
X139250266Y-95868533D01*
X139216400Y-95800800D01*
X139182533Y-95766933D01*
X139114800Y-95733066D01*
X138979333Y-95699200D01*
X138911600Y-95665333D01*
X138877733Y-95631466D01*
X138843866Y-95563733D01*
X138843866Y-95496000D01*
X138877733Y-95428266D01*
X138911600Y-95394400D01*
X138979333Y-95360533D01*
X139148666Y-95360533D01*
X139250266Y-95394400D01*
X139521200Y-95868533D02*
X139859866Y-95868533D01*
X139453466Y-96071733D02*
X139690533Y-95360533D01*
X139927600Y-96071733D01*
D11*
G04 #@! TO.P,U1,48*
G04 #@! TO.N,Net-(C2-Pad1)*
X155200000Y-107900000D03*
G04 #@! TO.P,U1,47*
G04 #@! TO.N,Net-(C3-Pad1)*
X154800000Y-107900000D03*
G04 #@! TO.P,U1,46*
G04 #@! TO.N,+3.3V*
X154400000Y-107900000D03*
G04 #@! TO.P,U1,45*
G04 #@! TO.N,Net-(C6-Pad1)*
X154000000Y-107900000D03*
G04 #@! TO.P,U1,44*
G04 #@! TO.N,Net-(C7-Pad1)*
X153600000Y-107900000D03*
G04 #@! TO.P,U1,43*
G04 #@! TO.N,+3.3V*
X153200000Y-107900000D03*
G04 #@! TO.P,U1,42*
G04 #@! TO.N,Net-(U1-Pad42)*
X152800000Y-107900000D03*
G04 #@! TO.P,U1,41*
G04 #@! TO.N,PMOD_RXD*
X152400000Y-107900000D03*
G04 #@! TO.P,U1,40*
G04 #@! TO.N,PMOD_TXD*
X152000000Y-107900000D03*
G04 #@! TO.P,U1,39*
G04 #@! TO.N,PMOD_CTS*
X151600000Y-107900000D03*
G04 #@! TO.P,U1,38*
G04 #@! TO.N,PMOD_RTS*
X151200000Y-107900000D03*
G04 #@! TO.P,U1,37*
G04 #@! TO.N,+3.3V*
X150800000Y-107900000D03*
D12*
G04 #@! TO.P,U1,36*
G04 #@! TO.N,Net-(U1-Pad36)*
X150100000Y-107200000D03*
G04 #@! TO.P,U1,35*
G04 #@! TO.N,Net-(U1-Pad35)*
X150100000Y-106800000D03*
G04 #@! TO.P,U1,34*
G04 #@! TO.N,Net-(U1-Pad34)*
X150100000Y-106400000D03*
G04 #@! TO.P,U1,33*
G04 #@! TO.N,FL_D1*
X150100000Y-106000000D03*
G04 #@! TO.P,U1,32*
G04 #@! TO.N,FL_D0*
X150100000Y-105600000D03*
G04 #@! TO.P,U1,31*
G04 #@! TO.N,FL_SCK*
X150100000Y-105200000D03*
G04 #@! TO.P,U1,30*
G04 #@! TO.N,FL_SCS*
X150100000Y-104800000D03*
G04 #@! TO.P,U1,29*
G04 #@! TO.N,FL_D3*
X150100000Y-104400000D03*
G04 #@! TO.P,U1,28*
G04 #@! TO.N,FL_D2*
X150100000Y-104000000D03*
G04 #@! TO.P,U1,27*
G04 #@! TO.N,Net-(U1-Pad27)*
X150100000Y-103600000D03*
G04 #@! TO.P,U1,26*
G04 #@! TO.N,+VMEM*
X150100000Y-103200000D03*
G04 #@! TO.P,U1,25*
G04 #@! TO.N,Net-(U1-Pad25)*
X150100000Y-102800000D03*
D11*
G04 #@! TO.P,U1,24*
G04 #@! TO.N,Net-(U1-Pad24)*
X150800000Y-102100000D03*
G04 #@! TO.P,U1,23*
G04 #@! TO.N,Net-(U1-Pad23)*
X151200000Y-102100000D03*
G04 #@! TO.P,U1,22*
G04 #@! TO.N,Net-(U1-Pad22)*
X151600000Y-102100000D03*
G04 #@! TO.P,U1,21*
G04 #@! TO.N,Net-(TP4-Pad1)*
X152000000Y-102100000D03*
G04 #@! TO.P,U1,20*
G04 #@! TO.N,Net-(TP3-Pad1)*
X152400000Y-102100000D03*
G04 #@! TO.P,U1,19*
G04 #@! TO.N,+3.3V*
X152800000Y-102100000D03*
G04 #@! TO.P,U1,18*
G04 #@! TO.N,Net-(TP2-Pad1)*
X153200000Y-102100000D03*
G04 #@! TO.P,U1,17*
G04 #@! TO.N,Net-(TP1-Pad1)*
X153600000Y-102100000D03*
G04 #@! TO.P,U1,16*
G04 #@! TO.N,Net-(U1-Pad16)*
X154000000Y-102100000D03*
G04 #@! TO.P,U1,15*
G04 #@! TO.N,Net-(U1-Pad15)*
X154400000Y-102100000D03*
G04 #@! TO.P,U1,14*
G04 #@! TO.N,Net-(U1-Pad14)*
X154800000Y-102100000D03*
G04 #@! TO.P,U1,13*
G04 #@! TO.N,Net-(U1-Pad13)*
X155200000Y-102100000D03*
D12*
G04 #@! TO.P,U1,12*
G04 #@! TO.N,Net-(U1-Pad12)*
X155900000Y-102800000D03*
G04 #@! TO.P,U1,11*
G04 #@! TO.N,Net-(U1-Pad11)*
X155900000Y-103200000D03*
G04 #@! TO.P,U1,10*
G04 #@! TO.N,Net-(U1-Pad10)*
X155900000Y-103600000D03*
G04 #@! TO.P,U1,9*
G04 #@! TO.N,PMOD_RST*
X155900000Y-104000000D03*
G04 #@! TO.P,U1,8*
G04 #@! TO.N,Net-(U1-Pad8)*
X155900000Y-104400000D03*
G04 #@! TO.P,U1,7*
G04 #@! TO.N,Net-(U1-Pad7)*
X155900000Y-104800000D03*
G04 #@! TO.P,U1,6*
G04 #@! TO.N,Net-(U1-Pad6)*
X155900000Y-105200000D03*
G04 #@! TO.P,U1,5*
G04 #@! TO.N,Net-(U1-Pad5)*
X155900000Y-105600000D03*
G04 #@! TO.P,U1,4*
G04 #@! TO.N,Net-(C8-Pad1)*
X155900000Y-106000000D03*
G04 #@! TO.P,U1,3*
X155900000Y-106400000D03*
G04 #@! TO.P,U1,2*
G04 #@! TO.N,Net-(C4-Pad1)*
X155900000Y-106800000D03*
G04 #@! TO.P,U1,1*
G04 #@! TO.N,+3.3V*
X155900000Y-107200000D03*
D13*
G04 #@! TO.P,U1,PAD*
G04 #@! TO.N,GND*
X153750000Y-105750000D03*
X152250000Y-105750000D03*
X153750000Y-104250000D03*
X152250000Y-104250000D03*
G04 #@! TD*
D14*
G04 #@! TO.P,P1,1*
G04 #@! TO.N,PMOD_CTS*
X136040000Y-98650000D03*
D15*
G04 #@! TO.P,P1,2*
G04 #@! TO.N,PMOD_TXD*
X136040000Y-101190000D03*
G04 #@! TO.P,P1,3*
G04 #@! TO.N,PMOD_RXD*
X136040000Y-103730000D03*
G04 #@! TO.P,P1,4*
G04 #@! TO.N,PMOD_RTS*
X136040000Y-106270000D03*
G04 #@! TO.P,P1,5*
G04 #@! TO.N,GND*
X136040000Y-108810000D03*
G04 #@! TO.P,P1,6*
G04 #@! TO.N,VCC*
X136040000Y-111350000D03*
G04 #@! TO.P,P1,7*
G04 #@! TO.N,PMOD_IRQ*
X133500000Y-98650000D03*
G04 #@! TO.P,P1,8*
G04 #@! TO.N,PMOD_RST*
X133500000Y-101190000D03*
G04 #@! TO.P,P1,9*
G04 #@! TO.N,Net-(P1-Pad9)*
X133500000Y-103730000D03*
G04 #@! TO.P,P1,10*
G04 #@! TO.N,Net-(P1-Pad10)*
X133500000Y-106270000D03*
G04 #@! TO.P,P1,11*
G04 #@! TO.N,GND*
X133500000Y-108810000D03*
G04 #@! TO.P,P1,12*
G04 #@! TO.N,VCC*
X133500000Y-111350000D03*
G04 #@! TD*
D16*
G04 #@! TO.P,A1,1*
G04 #@! TO.N,Net-(A1-Pad1)*
X165550000Y-106400000D03*
G04 #@! TO.P,A1,0*
G04 #@! TO.N,GND*
X165550000Y-97400000D03*
G04 #@! TD*
D17*
G04 #@! TO.P,C4,1*
G04 #@! TO.N,Net-(C4-Pad1)*
X159000000Y-106738000D03*
G04 #@! TO.P,C4,2*
G04 #@! TO.N,GND*
X159000000Y-108262000D03*
G04 #@! TD*
G04 #@! TO.P,C5,1*
G04 #@! TO.N,Net-(A1-Pad1)*
X163250000Y-106738000D03*
G04 #@! TO.P,C5,2*
G04 #@! TO.N,GND*
X163250000Y-108262000D03*
G04 #@! TD*
D18*
G04 #@! TO.P,L1,2*
G04 #@! TO.N,Net-(A1-Pad1)*
X161882000Y-106750000D03*
G04 #@! TO.P,L1,1*
G04 #@! TO.N,Net-(C4-Pad1)*
X160358000Y-106750000D03*
G04 #@! TD*
D17*
G04 #@! TO.P,C8,2*
G04 #@! TO.N,GND*
X157250000Y-104638000D03*
G04 #@! TO.P,C8,1*
G04 #@! TO.N,Net-(C8-Pad1)*
X157250000Y-106162000D03*
G04 #@! TD*
D18*
G04 #@! TO.P,C9,1*
G04 #@! TO.N,+3.3V*
X160262000Y-102000000D03*
G04 #@! TO.P,C9,2*
G04 #@! TO.N,GND*
X158738000Y-102000000D03*
G04 #@! TD*
G04 #@! TO.P,C10,2*
G04 #@! TO.N,GND*
X158738000Y-103500000D03*
G04 #@! TO.P,C10,1*
G04 #@! TO.N,+3.3V*
X160262000Y-103500000D03*
G04 #@! TD*
G04 #@! TO.P,L2,1*
G04 #@! TO.N,+3.3V*
X160262000Y-105000000D03*
G04 #@! TO.P,L2,2*
G04 #@! TO.N,Net-(C8-Pad1)*
X158738000Y-105000000D03*
G04 #@! TD*
G04 #@! TO.P,C2,2*
G04 #@! TO.N,GND*
X159762000Y-109750000D03*
G04 #@! TO.P,C2,1*
G04 #@! TO.N,Net-(C2-Pad1)*
X158238000Y-109750000D03*
G04 #@! TD*
G04 #@! TO.P,C3,1*
G04 #@! TO.N,Net-(C3-Pad1)*
X158238000Y-111500000D03*
G04 #@! TO.P,C3,2*
G04 #@! TO.N,Net-(C2-Pad1)*
X159762000Y-111500000D03*
G04 #@! TD*
D17*
G04 #@! TO.P,R2,1*
G04 #@! TO.N,PMOD_RST*
X157250000Y-102762000D03*
G04 #@! TO.P,R2,2*
G04 #@! TO.N,+3.3V*
X157250000Y-101238000D03*
G04 #@! TD*
D18*
G04 #@! TO.P,R1,1*
G04 #@! TO.N,Net-(C3-Pad1)*
X158238000Y-113000000D03*
G04 #@! TO.P,R1,2*
G04 #@! TO.N,Net-(C2-Pad1)*
X159762000Y-113000000D03*
G04 #@! TD*
D17*
G04 #@! TO.P,C6,1*
G04 #@! TO.N,Net-(C6-Pad1)*
X156500000Y-110988000D03*
G04 #@! TO.P,C6,2*
G04 #@! TO.N,GND*
X156500000Y-112512000D03*
G04 #@! TD*
G04 #@! TO.P,C7,2*
G04 #@! TO.N,GND*
X150500000Y-110988000D03*
G04 #@! TO.P,C7,1*
G04 #@! TO.N,Net-(C7-Pad1)*
X150500000Y-112512000D03*
G04 #@! TD*
D19*
G04 #@! TO.P,X1,1*
G04 #@! TO.N,Net-(C7-Pad1)*
X152250000Y-112750000D03*
G04 #@! TO.P,X1,2*
G04 #@! TO.N,GND*
X154750000Y-112750000D03*
G04 #@! TO.P,X1,3*
G04 #@! TO.N,Net-(C6-Pad1)*
X154750000Y-110750000D03*
G04 #@! TO.P,X1,4*
G04 #@! TO.N,GND*
X152250000Y-110750000D03*
G04 #@! TD*
D20*
G04 #@! TO.P,U2,8*
G04 #@! TO.N,+VMEM*
X141750000Y-99905000D03*
G04 #@! TO.P,U2,1*
G04 #@! TO.N,FL_SCS*
X148250000Y-99905000D03*
G04 #@! TO.P,U2,7*
G04 #@! TO.N,FL_D3*
X141750000Y-98635000D03*
G04 #@! TO.P,U2,6*
G04 #@! TO.N,FL_SCK*
X141750000Y-97365000D03*
G04 #@! TO.P,U2,5*
G04 #@! TO.N,FL_D0*
X141750000Y-96095000D03*
G04 #@! TO.P,U2,2*
G04 #@! TO.N,FL_D1*
X148250000Y-98635000D03*
G04 #@! TO.P,U2,3*
G04 #@! TO.N,FL_D2*
X148250000Y-97365000D03*
G04 #@! TO.P,U2,4*
G04 #@! TO.N,GND*
X148250000Y-96095000D03*
G04 #@! TD*
D21*
G04 #@! TO.P,C1,1*
G04 #@! TO.N,VCC*
X135952500Y-113800000D03*
G04 #@! TO.P,C1,2*
G04 #@! TO.N,GND*
X134047500Y-113800000D03*
G04 #@! TD*
D17*
G04 #@! TO.P,C11,2*
G04 #@! TO.N,GND*
X139750000Y-98378000D03*
G04 #@! TO.P,C11,1*
G04 #@! TO.N,+VMEM*
X139750000Y-99902000D03*
G04 #@! TD*
D18*
G04 #@! TO.P,FB1,1*
G04 #@! TO.N,VCC*
X137238000Y-113750000D03*
G04 #@! TO.P,FB1,2*
G04 #@! TO.N,+3.3V*
X138762000Y-113750000D03*
G04 #@! TD*
D22*
G04 #@! TO.P,TP1,1*
G04 #@! TO.N,Net-(TP1-Pad1)*
X154750000Y-100000000D03*
G04 #@! TD*
G04 #@! TO.P,TP2,1*
G04 #@! TO.N,Net-(TP2-Pad1)*
X154750000Y-98500000D03*
G04 #@! TD*
G04 #@! TO.P,TP3,1*
G04 #@! TO.N,Net-(TP3-Pad1)*
X150500000Y-98500000D03*
G04 #@! TD*
G04 #@! TO.P,TP4,1*
G04 #@! TO.N,Net-(TP4-Pad1)*
X150500000Y-100000000D03*
G04 #@! TD*
D17*
G04 #@! TO.P,C12,1*
G04 #@! TO.N,+3.3V*
X152800000Y-99512000D03*
G04 #@! TO.P,C12,2*
G04 #@! TO.N,GND*
X152800000Y-97988000D03*
G04 #@! TD*
D23*
G04 #@! TO.N,GND*
X152250000Y-110750000D03*
X154750000Y-112750000D03*
X156500000Y-113500000D03*
X160750000Y-109750000D03*
X160250000Y-108260000D03*
X162000000Y-108260000D03*
X149250000Y-111000000D03*
X157610000Y-103750000D03*
X158740000Y-100900000D03*
X149750000Y-96100000D03*
X132900000Y-113800000D03*
X139750000Y-97390000D03*
X152800000Y-97000000D03*
X162000000Y-97400000D03*
X152250000Y-104250000D03*
X152250000Y-105750000D03*
X153750000Y-104250000D03*
X153750000Y-105750000D03*
G04 #@! TO.N,PMOD_CTS*
X148500000Y-108950000D03*
G04 #@! TO.N,PMOD_TXD*
X149250000Y-109600000D03*
G04 #@! TO.N,PMOD_RXD*
X148500000Y-110250000D03*
G04 #@! TO.N,PMOD_RTS*
X149250000Y-108300000D03*
X148500000Y-111500000D03*
G04 #@! TO.N,PMOD_RST*
X156000000Y-100350000D03*
X138640000Y-97390000D03*
G04 #@! TO.N,+3.3V*
X154630000Y-109370000D03*
X152900000Y-109370000D03*
X148500000Y-107630000D03*
X160260000Y-100900000D03*
X157250000Y-100350000D03*
X139750000Y-113750000D03*
X140750000Y-113740000D03*
X152800000Y-100500000D03*
X157250000Y-107500000D03*
G04 #@! TO.N,+VMEM*
X149000000Y-102750000D03*
X141750000Y-101160000D03*
G04 #@! TO.N,FL_D3*
X147450000Y-102750000D03*
X144250000Y-102750000D03*
G04 #@! TO.N,FL_D0*
X143250000Y-102760000D03*
X143250000Y-96100000D03*
G04 #@! TO.N,FL_D1*
X148500000Y-106500000D03*
X146750000Y-98630000D03*
G04 #@! TD*
D24*
G04 #@! TO.N,Net-(A1-Pad1)*
X163250000Y-106738000D02*
X161894000Y-106738000D01*
X161894000Y-106738000D02*
X161882000Y-106750000D01*
X163250000Y-106738000D02*
X165212000Y-106738000D01*
X165212000Y-106738000D02*
X165550000Y-106400000D01*
G04 #@! TO.N,GND*
X156500000Y-112512000D02*
X154988000Y-112512000D01*
X154988000Y-112512000D02*
X154750000Y-112750000D01*
X156500000Y-112512000D02*
X156500000Y-113500000D01*
X149250000Y-111000000D02*
X150488000Y-111000000D01*
X150488000Y-111000000D02*
X150500000Y-110988000D01*
X150500000Y-110988000D02*
X152012000Y-110988000D01*
X152012000Y-110988000D02*
X152250000Y-110750000D01*
X159762000Y-109750000D02*
X160750000Y-109750000D01*
X159000000Y-108262000D02*
X160248000Y-108262000D01*
X160248000Y-108262000D02*
X160250000Y-108260000D01*
X163250000Y-108262000D02*
X162002000Y-108262000D01*
X162002000Y-108262000D02*
X162000000Y-108260000D01*
D25*
X157610000Y-103750000D02*
X157610000Y-104278000D01*
X157610000Y-104278000D02*
X157250000Y-104638000D01*
X157610000Y-103750000D02*
X158488000Y-103750000D01*
X158488000Y-103750000D02*
X158738000Y-103500000D01*
D24*
X158738000Y-103500000D02*
X158738000Y-102000000D01*
X158738000Y-102000000D02*
X158738000Y-100902000D01*
X158738000Y-100902000D02*
X158740000Y-100900000D01*
D25*
X148250000Y-96095000D02*
X149745000Y-96095000D01*
X149745000Y-96095000D02*
X149750000Y-96100000D01*
D24*
X134047500Y-113800000D02*
X132900000Y-113800000D01*
X139750000Y-98378000D02*
X139750000Y-97390000D01*
X152800000Y-97988000D02*
X152800000Y-97000000D01*
X165550000Y-97400000D02*
X162000000Y-97400000D01*
D26*
G04 #@! TO.N,PMOD_CTS*
X151600000Y-107900000D02*
X151600000Y-108650000D01*
X151600000Y-108650000D02*
X151130000Y-109120000D01*
X151130000Y-109120000D02*
X149740000Y-109120000D01*
X149740000Y-109120000D02*
X149570000Y-108950000D01*
X149570000Y-108950000D02*
X148500000Y-108950000D01*
X148500000Y-108950000D02*
X144350000Y-108950000D01*
X144350000Y-108950000D02*
X138110000Y-102710000D01*
X138110000Y-102710000D02*
X138110000Y-100720000D01*
X138110000Y-100720000D02*
X136040000Y-98650000D01*
G04 #@! TO.N,PMOD_TXD*
X152000000Y-107900000D02*
X152000000Y-108770000D01*
X152000000Y-108770000D02*
X151280000Y-109490000D01*
X151280000Y-109490000D02*
X150400000Y-109490000D01*
X150400000Y-109490000D02*
X150290000Y-109600000D01*
X150290000Y-109600000D02*
X149250000Y-109600000D01*
X149250000Y-109600000D02*
X144130000Y-109600000D01*
X144130000Y-109600000D02*
X137500000Y-102970000D01*
X137500000Y-102970000D02*
X137500000Y-102650000D01*
X137500000Y-102650000D02*
X136040000Y-101190000D01*
G04 #@! TO.N,PMOD_RXD*
X152400000Y-107900000D02*
X152400000Y-108890000D01*
X152400000Y-108890000D02*
X151400000Y-109890000D01*
X151400000Y-109890000D02*
X150780000Y-109890000D01*
X150780000Y-109890000D02*
X150420000Y-110250000D01*
X150420000Y-110250000D02*
X148500000Y-110250000D01*
X136040000Y-103730000D02*
X137400000Y-103730000D01*
X137400000Y-103730000D02*
X143920000Y-110250000D01*
X143920000Y-110250000D02*
X148500000Y-110250000D01*
G04 #@! TO.N,PMOD_RTS*
X151200000Y-107900000D02*
X151200000Y-108530000D01*
X151200000Y-108530000D02*
X150980000Y-108750000D01*
X150980000Y-108750000D02*
X150170000Y-108750000D01*
X150170000Y-108750000D02*
X149720000Y-108300000D01*
X149720000Y-108300000D02*
X149250000Y-108300000D01*
X148500000Y-111500000D02*
X147860000Y-110860000D01*
X147860000Y-110860000D02*
X143660000Y-110860000D01*
X143660000Y-110860000D02*
X139070000Y-106270000D01*
X139070000Y-106270000D02*
X136040000Y-106270000D01*
D24*
G04 #@! TO.N,VCC*
X133500000Y-111350000D02*
X136040000Y-111350000D01*
X136040000Y-111350000D02*
X136040000Y-113712500D01*
X136040000Y-113712500D02*
X135952500Y-113800000D01*
X137238000Y-113750000D02*
X136002500Y-113750000D01*
X136002500Y-113750000D02*
X135952500Y-113800000D01*
D26*
G04 #@! TO.N,PMOD_RST*
X155900000Y-104000000D02*
X156530000Y-104000000D01*
X156530000Y-104000000D02*
X156860000Y-103670000D01*
X156860000Y-103670000D02*
X156860000Y-103152000D01*
X156860000Y-103152000D02*
X157250000Y-102762000D01*
X157250000Y-102762000D02*
X157250000Y-102190000D01*
X157250000Y-102190000D02*
X157060000Y-102000000D01*
X157060000Y-102000000D02*
X156440000Y-102000000D01*
X156440000Y-102000000D02*
X156000000Y-101560000D01*
X156000000Y-101560000D02*
X156000000Y-100350000D01*
D25*
X133500000Y-101190000D02*
X131750000Y-99440000D01*
X131750000Y-99440000D02*
X131750000Y-97920000D01*
X138640000Y-97390000D02*
X137900000Y-97390000D01*
X137900000Y-97390000D02*
X137600000Y-97090000D01*
X137600000Y-97090000D02*
X132580000Y-97090000D01*
X132580000Y-97090000D02*
X131750000Y-97920000D01*
D26*
G04 #@! TO.N,+3.3V*
X153200000Y-107900000D02*
X153200000Y-108530000D01*
X153200000Y-108530000D02*
X152900000Y-108830000D01*
X154400000Y-107900000D02*
X154400000Y-109140000D01*
X154400000Y-109140000D02*
X154630000Y-109370000D01*
X152900000Y-108830000D02*
X152900000Y-109370000D01*
X150800000Y-107900000D02*
X150420000Y-107900000D01*
D25*
X150420000Y-107900000D02*
X149890000Y-107900000D01*
X149890000Y-107900000D02*
X149620000Y-107630000D01*
X149620000Y-107630000D02*
X148500000Y-107630000D01*
D24*
X160262000Y-103500000D02*
X160262000Y-102000000D01*
X160262000Y-105000000D02*
X160262000Y-103500000D01*
D25*
X160262000Y-102000000D02*
X160262000Y-100902000D01*
X160262000Y-100902000D02*
X160260000Y-100900000D01*
X157250000Y-101238000D02*
X157250000Y-100350000D01*
D24*
X138762000Y-113750000D02*
X139750000Y-113750000D01*
X139750000Y-113750000D02*
X140740000Y-113750000D01*
X140740000Y-113750000D02*
X140750000Y-113740000D01*
D26*
X152800000Y-102100000D02*
X152800000Y-100500000D01*
D24*
X152800000Y-100500000D02*
X152800000Y-99512000D01*
D26*
X155900000Y-107200000D02*
X156500000Y-107200000D01*
X156500000Y-107200000D02*
X156800000Y-107500000D01*
X156800000Y-107500000D02*
X157250000Y-107500000D01*
D24*
G04 #@! TO.N,Net-(C4-Pad1)*
X159000000Y-106738000D02*
X160346000Y-106738000D01*
X160346000Y-106738000D02*
X160358000Y-106750000D01*
D26*
X155900000Y-106800000D02*
X158938000Y-106800000D01*
X158938000Y-106800000D02*
X159000000Y-106738000D01*
G04 #@! TO.N,Net-(C8-Pad1)*
X155900000Y-106400000D02*
X157012000Y-106400000D01*
X157012000Y-106400000D02*
X157250000Y-106162000D01*
X155900000Y-106000000D02*
X157088000Y-106000000D01*
X157088000Y-106000000D02*
X157250000Y-106162000D01*
D25*
X158738000Y-105000000D02*
X158660000Y-105000000D01*
X158660000Y-105000000D02*
X157498000Y-106162000D01*
X157498000Y-106162000D02*
X157250000Y-106162000D01*
D26*
G04 #@! TO.N,Net-(TP1-Pad1)*
X153600000Y-102100000D02*
X153600000Y-101500000D01*
X154750000Y-100000000D02*
X154750000Y-100860000D01*
X154750000Y-100860000D02*
X154530000Y-101080000D01*
X154530000Y-101080000D02*
X154020000Y-101080000D01*
X154020000Y-101080000D02*
X153600000Y-101500000D01*
G04 #@! TO.N,Net-(TP2-Pad1)*
X153200000Y-102100000D02*
X153200000Y-101190000D01*
X153200000Y-101190000D02*
X153750000Y-100640000D01*
X153750000Y-100640000D02*
X153750000Y-99500000D01*
X153750000Y-99500000D02*
X154750000Y-98500000D01*
G04 #@! TO.N,Net-(TP3-Pad1)*
X151780000Y-99780000D02*
X150500000Y-98500000D01*
X152400000Y-102100000D02*
X152400000Y-101190000D01*
X152400000Y-101190000D02*
X151780000Y-100570000D01*
X151780000Y-100570000D02*
X151780000Y-99780000D01*
G04 #@! TO.N,Net-(TP4-Pad1)*
X152000000Y-102100000D02*
X152000000Y-101500000D01*
X152000000Y-101500000D02*
X150500000Y-100000000D01*
G04 #@! TO.N,+VMEM*
X150100000Y-103200000D02*
X149450000Y-103200000D01*
X149450000Y-103200000D02*
X149000000Y-102750000D01*
D24*
X141750000Y-99905000D02*
X139753000Y-99905000D01*
X139753000Y-99905000D02*
X139750000Y-99902000D01*
X141750000Y-101160000D02*
X140240000Y-101160000D01*
X140240000Y-101160000D02*
X139750000Y-100670000D01*
X139750000Y-100670000D02*
X139750000Y-99902000D01*
D26*
G04 #@! TO.N,FL_D2*
X150100000Y-104000000D02*
X149020000Y-104000000D01*
X149020000Y-104000000D02*
X148130000Y-103110000D01*
X148130000Y-103110000D02*
X148130000Y-101810000D01*
X148130000Y-101810000D02*
X149560000Y-100380000D01*
X149560000Y-100380000D02*
X149560000Y-98150000D01*
X149560000Y-98150000D02*
X148775000Y-97365000D01*
X148775000Y-97365000D02*
X148250000Y-97365000D01*
G04 #@! TO.N,FL_D3*
X150100000Y-104400000D02*
X148640000Y-104400000D01*
X148640000Y-104400000D02*
X147450000Y-103210000D01*
X147450000Y-103210000D02*
X147450000Y-102750000D01*
X144250000Y-102750000D02*
X144250000Y-99920000D01*
X144250000Y-99920000D02*
X142965000Y-98635000D01*
X142965000Y-98635000D02*
X141750000Y-98635000D01*
G04 #@! TO.N,FL_SCS*
X150100000Y-104800000D02*
X148300000Y-104800000D01*
X148300000Y-104800000D02*
X146620000Y-103120000D01*
X146620000Y-103120000D02*
X146620000Y-101010000D01*
X146620000Y-101010000D02*
X147725000Y-99905000D01*
X147725000Y-99905000D02*
X148250000Y-99905000D01*
G04 #@! TO.N,FL_SCK*
X141750000Y-97365000D02*
X142955000Y-97365000D01*
X142955000Y-97365000D02*
X145000000Y-99410000D01*
X145000000Y-99410000D02*
X145000000Y-102810000D01*
X145000000Y-102810000D02*
X147390000Y-105200000D01*
X147390000Y-105200000D02*
X150100000Y-105200000D01*
G04 #@! TO.N,FL_D0*
X150100000Y-105600000D02*
X145520000Y-105600000D01*
X145520000Y-105600000D02*
X143250000Y-103330000D01*
X143250000Y-103330000D02*
X143250000Y-102760000D01*
X143250000Y-96100000D02*
X141755000Y-96100000D01*
X141755000Y-96100000D02*
X141750000Y-96095000D01*
G04 #@! TO.N,FL_D1*
X150100000Y-106000000D02*
X149000000Y-106000000D01*
X149000000Y-106000000D02*
X148500000Y-106500000D01*
X146750000Y-98630000D02*
X148245000Y-98630000D01*
X148245000Y-98630000D02*
X148250000Y-98635000D01*
G04 #@! TO.N,Net-(C7-Pad1)*
X153600000Y-107900000D02*
X153600000Y-109780000D01*
X153600000Y-109780000D02*
X153500000Y-109880000D01*
X153500000Y-109880000D02*
X153500000Y-111650000D01*
X153500000Y-111650000D02*
X152400000Y-112750000D01*
X152400000Y-112750000D02*
X152250000Y-112750000D01*
D24*
X150500000Y-112512000D02*
X152012000Y-112512000D01*
X152012000Y-112512000D02*
X152250000Y-112750000D01*
D26*
G04 #@! TO.N,Net-(C6-Pad1)*
X154000000Y-109740000D02*
X154120000Y-109860000D01*
X154120000Y-109860000D02*
X154120000Y-110120000D01*
X154120000Y-110120000D02*
X154750000Y-110750000D01*
X154000000Y-107900000D02*
X154000000Y-109740000D01*
D24*
X156500000Y-110988000D02*
X154988000Y-110988000D01*
X154988000Y-110988000D02*
X154750000Y-110750000D01*
D26*
G04 #@! TO.N,Net-(C3-Pad1)*
X154800000Y-107900000D02*
X154800000Y-108650000D01*
X154800000Y-108650000D02*
X155420000Y-109270000D01*
X155420000Y-109270000D02*
X156660000Y-109270000D01*
X156660000Y-109270000D02*
X157510000Y-110120000D01*
X157510000Y-110120000D02*
X157510000Y-110772000D01*
X157510000Y-110772000D02*
X158238000Y-111500000D01*
D24*
X158238000Y-111500000D02*
X158238000Y-113000000D01*
D26*
G04 #@! TO.N,Net-(C2-Pad1)*
X155200000Y-107900000D02*
X155200000Y-108530000D01*
X155200000Y-108530000D02*
X155570000Y-108900000D01*
X155570000Y-108900000D02*
X156810000Y-108900000D01*
X156810000Y-108900000D02*
X157660000Y-109750000D01*
X157660000Y-109750000D02*
X158238000Y-109750000D01*
D24*
X159762000Y-113000000D02*
X159762000Y-111500000D01*
D25*
X158238000Y-109750000D02*
X158238000Y-110008000D01*
X158238000Y-110008000D02*
X158850000Y-110620000D01*
X158850000Y-110620000D02*
X159130000Y-110620000D01*
X159130000Y-110620000D02*
X159762000Y-111252000D01*
X159762000Y-111252000D02*
X159762000Y-111500000D01*
G04 #@! TD*
D27*
G04 #@! TO.N,GND*
G36*
X162423800Y-106134370D02*
X162414836Y-106089305D01*
X162364311Y-106013689D01*
X162288695Y-105963164D01*
X162199500Y-105945422D01*
X161564500Y-105945422D01*
X161475305Y-105963164D01*
X161399689Y-106013689D01*
X161349164Y-106089305D01*
X161331422Y-106178500D01*
X161331422Y-107321500D01*
X161349164Y-107410695D01*
X161399689Y-107486311D01*
X161475305Y-107536836D01*
X161564500Y-107554578D01*
X162199500Y-107554578D01*
X162288695Y-107536836D01*
X162364311Y-107486311D01*
X162414836Y-107410695D01*
X162423800Y-107365630D01*
X162423800Y-114856400D01*
X151638600Y-114856400D01*
X151638600Y-113583078D01*
X153000000Y-113583078D01*
X153089195Y-113565336D01*
X153164811Y-113514811D01*
X153215336Y-113439195D01*
X153233078Y-113350000D01*
X153233078Y-112984950D01*
X153771400Y-112984950D01*
X153771400Y-113395472D01*
X153806203Y-113479492D01*
X153870509Y-113543798D01*
X153954529Y-113578600D01*
X154515050Y-113578600D01*
X154572200Y-113521450D01*
X154572200Y-112927800D01*
X153828550Y-112927800D01*
X153771400Y-112984950D01*
X153233078Y-112984950D01*
X153233078Y-112383896D01*
X153512446Y-112104528D01*
X153771400Y-112104528D01*
X153771400Y-112515050D01*
X153828550Y-112572200D01*
X154572200Y-112572200D01*
X154572200Y-111978550D01*
X154927800Y-111978550D01*
X154927800Y-112572200D01*
X154947800Y-112572200D01*
X154947800Y-112927800D01*
X154927800Y-112927800D01*
X154927800Y-113521450D01*
X154984950Y-113578600D01*
X155545471Y-113578600D01*
X155629491Y-113543798D01*
X155693797Y-113479492D01*
X155728600Y-113395472D01*
X155728600Y-112984950D01*
X155671452Y-112927802D01*
X155721783Y-112927802D01*
X155734702Y-112958991D01*
X155799008Y-113023297D01*
X155883028Y-113058100D01*
X156265050Y-113058100D01*
X156322200Y-113000950D01*
X156322200Y-112670750D01*
X156677800Y-112670750D01*
X156677800Y-113000950D01*
X156734950Y-113058100D01*
X157116972Y-113058100D01*
X157200992Y-113023297D01*
X157265298Y-112958991D01*
X157300100Y-112874971D01*
X157300100Y-112727900D01*
X157242950Y-112670750D01*
X156677800Y-112670750D01*
X156322200Y-112670750D01*
X156302200Y-112670750D01*
X156302200Y-112353250D01*
X156322200Y-112353250D01*
X156322200Y-112023050D01*
X156677800Y-112023050D01*
X156677800Y-112353250D01*
X157242950Y-112353250D01*
X157300100Y-112296100D01*
X157300100Y-112149029D01*
X157265298Y-112065009D01*
X157200992Y-112000703D01*
X157116972Y-111965900D01*
X156734950Y-111965900D01*
X156677800Y-112023050D01*
X156322200Y-112023050D01*
X156265050Y-111965900D01*
X155883028Y-111965900D01*
X155799008Y-112000703D01*
X155734702Y-112065009D01*
X155723466Y-112092134D01*
X155693797Y-112020508D01*
X155629491Y-111956202D01*
X155545471Y-111921400D01*
X154984950Y-111921400D01*
X154927800Y-111978550D01*
X154572200Y-111978550D01*
X154515050Y-111921400D01*
X153954529Y-111921400D01*
X153870509Y-111956202D01*
X153806203Y-112020508D01*
X153771400Y-112104528D01*
X153512446Y-112104528D01*
X153710491Y-111906483D01*
X153738061Y-111888061D01*
X153789525Y-111811041D01*
X153811042Y-111778838D01*
X153836669Y-111650000D01*
X153830200Y-111617478D01*
X153830200Y-111507344D01*
X153835189Y-111514811D01*
X153910805Y-111565336D01*
X154000000Y-111583078D01*
X155500000Y-111583078D01*
X155589195Y-111565336D01*
X155664811Y-111514811D01*
X155715336Y-111439195D01*
X155719194Y-111419800D01*
X155729939Y-111419800D01*
X155763689Y-111470311D01*
X155839305Y-111520836D01*
X155928500Y-111538578D01*
X157071500Y-111538578D01*
X157160695Y-111520836D01*
X157236311Y-111470311D01*
X157286836Y-111394695D01*
X157304578Y-111305500D01*
X157304578Y-111033551D01*
X157687422Y-111416395D01*
X157687422Y-112071500D01*
X157705164Y-112160695D01*
X157755689Y-112236311D01*
X157776176Y-112250000D01*
X157755689Y-112263689D01*
X157705164Y-112339305D01*
X157687422Y-112428500D01*
X157687422Y-113571500D01*
X157705164Y-113660695D01*
X157755689Y-113736311D01*
X157831305Y-113786836D01*
X157920500Y-113804578D01*
X158555500Y-113804578D01*
X158644695Y-113786836D01*
X158720311Y-113736311D01*
X158770836Y-113660695D01*
X158788578Y-113571500D01*
X158788578Y-112428500D01*
X158770836Y-112339305D01*
X158720311Y-112263689D01*
X158699824Y-112250000D01*
X158720311Y-112236311D01*
X158770836Y-112160695D01*
X158788578Y-112071500D01*
X158788578Y-110996246D01*
X158850000Y-111008464D01*
X158887524Y-111001000D01*
X158972185Y-111001000D01*
X159211422Y-111240238D01*
X159211422Y-112071500D01*
X159229164Y-112160695D01*
X159279689Y-112236311D01*
X159300176Y-112250000D01*
X159279689Y-112263689D01*
X159229164Y-112339305D01*
X159211422Y-112428500D01*
X159211422Y-113571500D01*
X159229164Y-113660695D01*
X159279689Y-113736311D01*
X159355305Y-113786836D01*
X159444500Y-113804578D01*
X160079500Y-113804578D01*
X160168695Y-113786836D01*
X160244311Y-113736311D01*
X160294836Y-113660695D01*
X160312578Y-113571500D01*
X160312578Y-112428500D01*
X160294836Y-112339305D01*
X160244311Y-112263689D01*
X160223824Y-112250000D01*
X160244311Y-112236311D01*
X160294836Y-112160695D01*
X160312578Y-112071500D01*
X160312578Y-110928500D01*
X160294836Y-110839305D01*
X160244311Y-110763689D01*
X160168695Y-110713164D01*
X160079500Y-110695422D01*
X159744238Y-110695422D01*
X159572508Y-110523692D01*
X159603250Y-110492950D01*
X159603250Y-109927800D01*
X159920750Y-109927800D01*
X159920750Y-110492950D01*
X159977900Y-110550100D01*
X160124971Y-110550100D01*
X160208991Y-110515298D01*
X160273297Y-110450992D01*
X160308100Y-110366972D01*
X160308100Y-109984950D01*
X160250950Y-109927800D01*
X159920750Y-109927800D01*
X159603250Y-109927800D01*
X159273050Y-109927800D01*
X159215900Y-109984950D01*
X159215900Y-110248623D01*
X159167524Y-110239000D01*
X159130000Y-110231536D01*
X159092476Y-110239000D01*
X159007815Y-110239000D01*
X158788578Y-110019763D01*
X158788578Y-109178500D01*
X158779534Y-109133028D01*
X159215900Y-109133028D01*
X159215900Y-109515050D01*
X159273050Y-109572200D01*
X159603250Y-109572200D01*
X159603250Y-109007050D01*
X159920750Y-109007050D01*
X159920750Y-109572200D01*
X160250950Y-109572200D01*
X160308100Y-109515050D01*
X160308100Y-109133028D01*
X160273297Y-109049008D01*
X160208991Y-108984702D01*
X160124971Y-108949900D01*
X159977900Y-108949900D01*
X159920750Y-109007050D01*
X159603250Y-109007050D01*
X159546100Y-108949900D01*
X159399029Y-108949900D01*
X159315009Y-108984702D01*
X159250703Y-109049008D01*
X159215900Y-109133028D01*
X158779534Y-109133028D01*
X158770836Y-109089305D01*
X158720311Y-109013689D01*
X158644695Y-108963164D01*
X158555500Y-108945422D01*
X157920500Y-108945422D01*
X157831305Y-108963164D01*
X157755689Y-109013689D01*
X157705164Y-109089305D01*
X157687422Y-109178500D01*
X157687422Y-109310449D01*
X157066484Y-108689511D01*
X157048061Y-108661939D01*
X156938838Y-108588958D01*
X156842522Y-108569800D01*
X156810000Y-108563331D01*
X156777478Y-108569800D01*
X155706774Y-108569800D01*
X155614874Y-108477900D01*
X158199900Y-108477900D01*
X158199900Y-108624971D01*
X158234702Y-108708991D01*
X158299008Y-108773297D01*
X158383028Y-108808100D01*
X158765050Y-108808100D01*
X158822200Y-108750950D01*
X158822200Y-108420750D01*
X159177800Y-108420750D01*
X159177800Y-108750950D01*
X159234950Y-108808100D01*
X159616972Y-108808100D01*
X159700992Y-108773297D01*
X159765298Y-108708991D01*
X159800100Y-108624971D01*
X159800100Y-108477900D01*
X159742950Y-108420750D01*
X159177800Y-108420750D01*
X158822200Y-108420750D01*
X158257050Y-108420750D01*
X158199900Y-108477900D01*
X155614874Y-108477900D01*
X155530200Y-108393227D01*
X155530200Y-108379365D01*
X155540336Y-108364195D01*
X155558078Y-108275000D01*
X155558078Y-107558078D01*
X156275000Y-107558078D01*
X156364195Y-107540336D01*
X156369691Y-107536664D01*
X156543517Y-107710491D01*
X156561939Y-107738061D01*
X156589508Y-107756482D01*
X156589509Y-107756483D01*
X156671162Y-107811042D01*
X156753269Y-107827374D01*
X156754739Y-107830923D01*
X156919077Y-107995261D01*
X157133795Y-108084200D01*
X157366205Y-108084200D01*
X157580923Y-107995261D01*
X157677155Y-107899029D01*
X158199900Y-107899029D01*
X158199900Y-108046100D01*
X158257050Y-108103250D01*
X158822200Y-108103250D01*
X158822200Y-107773050D01*
X159177800Y-107773050D01*
X159177800Y-108103250D01*
X159742950Y-108103250D01*
X159800100Y-108046100D01*
X159800100Y-107899029D01*
X159765298Y-107815009D01*
X159700992Y-107750703D01*
X159616972Y-107715900D01*
X159234950Y-107715900D01*
X159177800Y-107773050D01*
X158822200Y-107773050D01*
X158765050Y-107715900D01*
X158383028Y-107715900D01*
X158299008Y-107750703D01*
X158234702Y-107815009D01*
X158199900Y-107899029D01*
X157677155Y-107899029D01*
X157745261Y-107830923D01*
X157834200Y-107616205D01*
X157834200Y-107383795D01*
X157745261Y-107169077D01*
X157706384Y-107130200D01*
X158210281Y-107130200D01*
X158213164Y-107144695D01*
X158263689Y-107220311D01*
X158339305Y-107270836D01*
X158428500Y-107288578D01*
X159571500Y-107288578D01*
X159660695Y-107270836D01*
X159736311Y-107220311D01*
X159770061Y-107169800D01*
X159807422Y-107169800D01*
X159807422Y-107321500D01*
X159825164Y-107410695D01*
X159875689Y-107486311D01*
X159951305Y-107536836D01*
X160040500Y-107554578D01*
X160675500Y-107554578D01*
X160764695Y-107536836D01*
X160840311Y-107486311D01*
X160890836Y-107410695D01*
X160908578Y-107321500D01*
X160908578Y-106178500D01*
X160890836Y-106089305D01*
X160840311Y-106013689D01*
X160764695Y-105963164D01*
X160675500Y-105945422D01*
X160040500Y-105945422D01*
X159951305Y-105963164D01*
X159875689Y-106013689D01*
X159825164Y-106089305D01*
X159807422Y-106178500D01*
X159807422Y-106306200D01*
X159770061Y-106306200D01*
X159736311Y-106255689D01*
X159660695Y-106205164D01*
X159571500Y-106187422D01*
X158428500Y-106187422D01*
X158339305Y-106205164D01*
X158263689Y-106255689D01*
X158213164Y-106331305D01*
X158195422Y-106420500D01*
X158195422Y-106469800D01*
X158054578Y-106469800D01*
X158054578Y-106144237D01*
X158398595Y-105800221D01*
X158420500Y-105804578D01*
X159055500Y-105804578D01*
X159144695Y-105786836D01*
X159220311Y-105736311D01*
X159270836Y-105660695D01*
X159288578Y-105571500D01*
X159288578Y-104428500D01*
X159270836Y-104339305D01*
X159220311Y-104263689D01*
X159200103Y-104250186D01*
X159249297Y-104200992D01*
X159284100Y-104116972D01*
X159284100Y-103734950D01*
X159226950Y-103677800D01*
X158896750Y-103677800D01*
X158896750Y-103697800D01*
X158579250Y-103697800D01*
X158579250Y-103677800D01*
X158249050Y-103677800D01*
X158191900Y-103734950D01*
X158191900Y-104116972D01*
X158226703Y-104200992D01*
X158275897Y-104250186D01*
X158255689Y-104263689D01*
X158205164Y-104339305D01*
X158187422Y-104428500D01*
X158187422Y-104933762D01*
X157509763Y-105611422D01*
X156678500Y-105611422D01*
X156589305Y-105629164D01*
X156528489Y-105669800D01*
X156508078Y-105669800D01*
X156508078Y-105475000D01*
X156493160Y-105400000D01*
X156508078Y-105325000D01*
X156508078Y-105108367D01*
X156549008Y-105149297D01*
X156633028Y-105184100D01*
X157015050Y-105184100D01*
X157072200Y-105126950D01*
X157072200Y-104796750D01*
X157427800Y-104796750D01*
X157427800Y-105126950D01*
X157484950Y-105184100D01*
X157866972Y-105184100D01*
X157950992Y-105149297D01*
X158015298Y-105084991D01*
X158050100Y-105000971D01*
X158050100Y-104853900D01*
X157992950Y-104796750D01*
X157427800Y-104796750D01*
X157072200Y-104796750D01*
X157052200Y-104796750D01*
X157052200Y-104479250D01*
X157072200Y-104479250D01*
X157072200Y-104149050D01*
X157427800Y-104149050D01*
X157427800Y-104479250D01*
X157992950Y-104479250D01*
X158050100Y-104422100D01*
X158050100Y-104275029D01*
X158015298Y-104191009D01*
X157950992Y-104126703D01*
X157866972Y-104091900D01*
X157484950Y-104091900D01*
X157427800Y-104149050D01*
X157072200Y-104149050D01*
X157015050Y-104091900D01*
X156905073Y-104091900D01*
X157070491Y-103926482D01*
X157098060Y-103908061D01*
X157171042Y-103798838D01*
X157190200Y-103702522D01*
X157190200Y-103702518D01*
X157196668Y-103670001D01*
X157190200Y-103637484D01*
X157190200Y-103312578D01*
X157821500Y-103312578D01*
X157910695Y-103294836D01*
X157986311Y-103244311D01*
X158036836Y-103168695D01*
X158054578Y-103079500D01*
X158054578Y-102444500D01*
X158036836Y-102355305D01*
X157986311Y-102279689D01*
X157919355Y-102234950D01*
X158191900Y-102234950D01*
X158191900Y-102616972D01*
X158226703Y-102700992D01*
X158275711Y-102750000D01*
X158226703Y-102799008D01*
X158191900Y-102883028D01*
X158191900Y-103265050D01*
X158249050Y-103322200D01*
X158579250Y-103322200D01*
X158579250Y-102757050D01*
X158572200Y-102750000D01*
X158579250Y-102742950D01*
X158579250Y-102177800D01*
X158896750Y-102177800D01*
X158896750Y-102742950D01*
X158903800Y-102750000D01*
X158896750Y-102757050D01*
X158896750Y-103322200D01*
X159226950Y-103322200D01*
X159284100Y-103265050D01*
X159284100Y-102883028D01*
X159249297Y-102799008D01*
X159200289Y-102750000D01*
X159249297Y-102700992D01*
X159284100Y-102616972D01*
X159284100Y-102234950D01*
X159226950Y-102177800D01*
X158896750Y-102177800D01*
X158579250Y-102177800D01*
X158249050Y-102177800D01*
X158191900Y-102234950D01*
X157919355Y-102234950D01*
X157910695Y-102229164D01*
X157821500Y-102211422D01*
X157582408Y-102211422D01*
X157586669Y-102190000D01*
X157561042Y-102061162D01*
X157545247Y-102037524D01*
X157488061Y-101951939D01*
X157460486Y-101933514D01*
X157316485Y-101789512D01*
X157315861Y-101788578D01*
X157821500Y-101788578D01*
X157910695Y-101770836D01*
X157986311Y-101720311D01*
X158036836Y-101644695D01*
X158054578Y-101555500D01*
X158054578Y-101383028D01*
X158191900Y-101383028D01*
X158191900Y-101765050D01*
X158249050Y-101822200D01*
X158579250Y-101822200D01*
X158579250Y-101257050D01*
X158896750Y-101257050D01*
X158896750Y-101822200D01*
X159226950Y-101822200D01*
X159284100Y-101765050D01*
X159284100Y-101383028D01*
X159249297Y-101299008D01*
X159184991Y-101234702D01*
X159100971Y-101199900D01*
X158953900Y-101199900D01*
X158896750Y-101257050D01*
X158579250Y-101257050D01*
X158522100Y-101199900D01*
X158375029Y-101199900D01*
X158291009Y-101234702D01*
X158226703Y-101299008D01*
X158191900Y-101383028D01*
X158054578Y-101383028D01*
X158054578Y-100920500D01*
X158036836Y-100831305D01*
X158005091Y-100783795D01*
X159675800Y-100783795D01*
X159675800Y-101016205D01*
X159764739Y-101230923D01*
X159790369Y-101256553D01*
X159779689Y-101263689D01*
X159729164Y-101339305D01*
X159711422Y-101428500D01*
X159711422Y-102571500D01*
X159729164Y-102660695D01*
X159779689Y-102736311D01*
X159800176Y-102750000D01*
X159779689Y-102763689D01*
X159729164Y-102839305D01*
X159711422Y-102928500D01*
X159711422Y-104071500D01*
X159729164Y-104160695D01*
X159779689Y-104236311D01*
X159800176Y-104250000D01*
X159779689Y-104263689D01*
X159729164Y-104339305D01*
X159711422Y-104428500D01*
X159711422Y-105571500D01*
X159729164Y-105660695D01*
X159779689Y-105736311D01*
X159855305Y-105786836D01*
X159944500Y-105804578D01*
X160579500Y-105804578D01*
X160668695Y-105786836D01*
X160744311Y-105736311D01*
X160794836Y-105660695D01*
X160812578Y-105571500D01*
X160812578Y-104428500D01*
X160794836Y-104339305D01*
X160744311Y-104263689D01*
X160723824Y-104250000D01*
X160744311Y-104236311D01*
X160794836Y-104160695D01*
X160812578Y-104071500D01*
X160812578Y-102928500D01*
X160794836Y-102839305D01*
X160744311Y-102763689D01*
X160723824Y-102750000D01*
X160744311Y-102736311D01*
X160794836Y-102660695D01*
X160812578Y-102571500D01*
X160812578Y-101428500D01*
X160794836Y-101339305D01*
X160744311Y-101263689D01*
X160731233Y-101254951D01*
X160755261Y-101230923D01*
X160844200Y-101016205D01*
X160844200Y-100783795D01*
X160755261Y-100569077D01*
X160590923Y-100404739D01*
X160376205Y-100315800D01*
X160143795Y-100315800D01*
X159929077Y-100404739D01*
X159764739Y-100569077D01*
X159675800Y-100783795D01*
X158005091Y-100783795D01*
X157986311Y-100755689D01*
X157910695Y-100705164D01*
X157821500Y-100687422D01*
X157738762Y-100687422D01*
X157745261Y-100680923D01*
X157834200Y-100466205D01*
X157834200Y-100233795D01*
X157745261Y-100019077D01*
X157580923Y-99854739D01*
X157366205Y-99765800D01*
X157133795Y-99765800D01*
X156919077Y-99854739D01*
X156754739Y-100019077D01*
X156665800Y-100233795D01*
X156665800Y-100466205D01*
X156754739Y-100680923D01*
X156761238Y-100687422D01*
X156678500Y-100687422D01*
X156589305Y-100705164D01*
X156513689Y-100755689D01*
X156463164Y-100831305D01*
X156445422Y-100920500D01*
X156445422Y-101538449D01*
X156330200Y-101423227D01*
X156330200Y-100845560D01*
X156330923Y-100845261D01*
X156495261Y-100680923D01*
X156584200Y-100466205D01*
X156584200Y-100233795D01*
X156495261Y-100019077D01*
X156330923Y-99854739D01*
X156116205Y-99765800D01*
X155883795Y-99765800D01*
X155669077Y-99854739D01*
X155578040Y-99945776D01*
X155578040Y-99835293D01*
X155451978Y-99530953D01*
X155219047Y-99298022D01*
X155103112Y-99250000D01*
X155219047Y-99201978D01*
X155451978Y-98969047D01*
X155578040Y-98664707D01*
X155578040Y-98335293D01*
X155451978Y-98030953D01*
X155219047Y-97798022D01*
X154914707Y-97671960D01*
X154585293Y-97671960D01*
X154280953Y-97798022D01*
X154048022Y-98030953D01*
X153921960Y-98335293D01*
X153921960Y-98664707D01*
X153979473Y-98803554D01*
X153601915Y-99181112D01*
X153586836Y-99105305D01*
X153536311Y-99029689D01*
X153460695Y-98979164D01*
X153371500Y-98961422D01*
X152228500Y-98961422D01*
X152139305Y-98979164D01*
X152063689Y-99029689D01*
X152013164Y-99105305D01*
X151995422Y-99194500D01*
X151995422Y-99526812D01*
X151990489Y-99523516D01*
X151270527Y-98803554D01*
X151328040Y-98664707D01*
X151328040Y-98335293D01*
X151273616Y-98203900D01*
X151999900Y-98203900D01*
X151999900Y-98350971D01*
X152034702Y-98434991D01*
X152099008Y-98499297D01*
X152183028Y-98534100D01*
X152565050Y-98534100D01*
X152622200Y-98476950D01*
X152622200Y-98146750D01*
X152977800Y-98146750D01*
X152977800Y-98476950D01*
X153034950Y-98534100D01*
X153416972Y-98534100D01*
X153500992Y-98499297D01*
X153565298Y-98434991D01*
X153600100Y-98350971D01*
X153600100Y-98203900D01*
X153542950Y-98146750D01*
X152977800Y-98146750D01*
X152622200Y-98146750D01*
X152057050Y-98146750D01*
X151999900Y-98203900D01*
X151273616Y-98203900D01*
X151201978Y-98030953D01*
X150969047Y-97798022D01*
X150664707Y-97671960D01*
X150335293Y-97671960D01*
X150030953Y-97798022D01*
X149845716Y-97983259D01*
X149798061Y-97911939D01*
X149770489Y-97893516D01*
X149502002Y-97625029D01*
X151999900Y-97625029D01*
X151999900Y-97772100D01*
X152057050Y-97829250D01*
X152622200Y-97829250D01*
X152622200Y-97499050D01*
X152977800Y-97499050D01*
X152977800Y-97829250D01*
X153542950Y-97829250D01*
X153600100Y-97772100D01*
X153600100Y-97625029D01*
X153565298Y-97541009D01*
X153500992Y-97476703D01*
X153416972Y-97441900D01*
X153034950Y-97441900D01*
X152977800Y-97499050D01*
X152622200Y-97499050D01*
X152565050Y-97441900D01*
X152183028Y-97441900D01*
X152099008Y-97476703D01*
X152034702Y-97541009D01*
X151999900Y-97625029D01*
X149502002Y-97625029D01*
X149283078Y-97406105D01*
X149283078Y-97090000D01*
X149265336Y-97000805D01*
X149214811Y-96925189D01*
X149139195Y-96874664D01*
X149050000Y-96856922D01*
X147450000Y-96856922D01*
X147360805Y-96874664D01*
X147285189Y-96925189D01*
X147234664Y-97000805D01*
X147216922Y-97090000D01*
X147216922Y-97640000D01*
X147234664Y-97729195D01*
X147285189Y-97804811D01*
X147360805Y-97855336D01*
X147450000Y-97873078D01*
X148816105Y-97873078D01*
X149074902Y-98131875D01*
X149050000Y-98126922D01*
X147450000Y-98126922D01*
X147360805Y-98144664D01*
X147285189Y-98195189D01*
X147234664Y-98270805D01*
X147231732Y-98285548D01*
X147080923Y-98134739D01*
X146866205Y-98045800D01*
X146633795Y-98045800D01*
X146419077Y-98134739D01*
X146254739Y-98299077D01*
X146165800Y-98513795D01*
X146165800Y-98746205D01*
X146254739Y-98960923D01*
X146419077Y-99125261D01*
X146633795Y-99214200D01*
X146866205Y-99214200D01*
X147080923Y-99125261D01*
X147230072Y-98976112D01*
X147234664Y-98999195D01*
X147285189Y-99074811D01*
X147360805Y-99125336D01*
X147450000Y-99143078D01*
X149050000Y-99143078D01*
X149139195Y-99125336D01*
X149214811Y-99074811D01*
X149229801Y-99052377D01*
X149229800Y-99487622D01*
X149214811Y-99465189D01*
X149139195Y-99414664D01*
X149050000Y-99396922D01*
X147450000Y-99396922D01*
X147360805Y-99414664D01*
X147285189Y-99465189D01*
X147234664Y-99540805D01*
X147216922Y-99630000D01*
X147216922Y-99946104D01*
X146409509Y-100753518D01*
X146381940Y-100771939D01*
X146363519Y-100799508D01*
X146363517Y-100799510D01*
X146308958Y-100881163D01*
X146283331Y-101010000D01*
X146289801Y-101042527D01*
X146289800Y-103087478D01*
X146283331Y-103120000D01*
X146308958Y-103248837D01*
X146362413Y-103328837D01*
X146381939Y-103358060D01*
X146409509Y-103376482D01*
X147902827Y-104869800D01*
X147526773Y-104869800D01*
X145330200Y-102673227D01*
X145330200Y-99442522D01*
X145336669Y-99410000D01*
X145311042Y-99281162D01*
X145256483Y-99199510D01*
X145256482Y-99199509D01*
X145238060Y-99171939D01*
X145210491Y-99153518D01*
X143211484Y-97154511D01*
X143193061Y-97126939D01*
X143083838Y-97053958D01*
X142987522Y-97034800D01*
X142955000Y-97028331D01*
X142922478Y-97034800D01*
X142772098Y-97034800D01*
X142765336Y-97000805D01*
X142714811Y-96925189D01*
X142639195Y-96874664D01*
X142550000Y-96856922D01*
X140950000Y-96856922D01*
X140860805Y-96874664D01*
X140785189Y-96925189D01*
X140734664Y-97000805D01*
X140716922Y-97090000D01*
X140716922Y-97640000D01*
X140734664Y-97729195D01*
X140785189Y-97804811D01*
X140860805Y-97855336D01*
X140950000Y-97873078D01*
X142550000Y-97873078D01*
X142639195Y-97855336D01*
X142714811Y-97804811D01*
X142765336Y-97729195D01*
X142772098Y-97695200D01*
X142818227Y-97695200D01*
X144669800Y-99546773D01*
X144669801Y-102343617D01*
X144580923Y-102254739D01*
X144580200Y-102254440D01*
X144580200Y-99952516D01*
X144586668Y-99919999D01*
X144580200Y-99887482D01*
X144580200Y-99887478D01*
X144561042Y-99791162D01*
X144488061Y-99681939D01*
X144460489Y-99663516D01*
X143221483Y-98424510D01*
X143203061Y-98396939D01*
X143093838Y-98323958D01*
X142997522Y-98304800D01*
X142965000Y-98298331D01*
X142932478Y-98304800D01*
X142772098Y-98304800D01*
X142765336Y-98270805D01*
X142714811Y-98195189D01*
X142639195Y-98144664D01*
X142550000Y-98126922D01*
X140950000Y-98126922D01*
X140860805Y-98144664D01*
X140785189Y-98195189D01*
X140734664Y-98270805D01*
X140716922Y-98360000D01*
X140716922Y-98910000D01*
X140734664Y-98999195D01*
X140785189Y-99074811D01*
X140860805Y-99125336D01*
X140950000Y-99143078D01*
X142550000Y-99143078D01*
X142639195Y-99125336D01*
X142714811Y-99074811D01*
X142765336Y-98999195D01*
X142772098Y-98965200D01*
X142828227Y-98965200D01*
X143919801Y-100056774D01*
X143919800Y-102254439D01*
X143919077Y-102254739D01*
X143754739Y-102419077D01*
X143747929Y-102435518D01*
X143745261Y-102429077D01*
X143580923Y-102264739D01*
X143366205Y-102175800D01*
X143133795Y-102175800D01*
X142919077Y-102264739D01*
X142754739Y-102429077D01*
X142665800Y-102643795D01*
X142665800Y-102876205D01*
X142754739Y-103090923D01*
X142919077Y-103255261D01*
X142919800Y-103255561D01*
X142919800Y-103297477D01*
X142913331Y-103330000D01*
X142938958Y-103458837D01*
X142986642Y-103530200D01*
X143011939Y-103568060D01*
X143039509Y-103586482D01*
X145263516Y-105810489D01*
X145281939Y-105838061D01*
X145337222Y-105875000D01*
X145391162Y-105911042D01*
X145520000Y-105936669D01*
X145552522Y-105930200D01*
X148349030Y-105930200D01*
X148169077Y-106004739D01*
X148004739Y-106169077D01*
X147915800Y-106383795D01*
X147915800Y-106616205D01*
X148004739Y-106830923D01*
X148169077Y-106995261D01*
X148337442Y-107065000D01*
X148169077Y-107134739D01*
X148004739Y-107299077D01*
X147915800Y-107513795D01*
X147915800Y-107746205D01*
X148004739Y-107960923D01*
X148169077Y-108125261D01*
X148383795Y-108214200D01*
X148616205Y-108214200D01*
X148665800Y-108193657D01*
X148665800Y-108386343D01*
X148616205Y-108365800D01*
X148383795Y-108365800D01*
X148169077Y-108454739D01*
X148004739Y-108619077D01*
X148004440Y-108619800D01*
X144486773Y-108619800D01*
X138440200Y-102573227D01*
X138440200Y-100752521D01*
X138446669Y-100719999D01*
X138421042Y-100591162D01*
X138366483Y-100509509D01*
X138366482Y-100509508D01*
X138348061Y-100481939D01*
X138320491Y-100463518D01*
X137441473Y-99584500D01*
X138945422Y-99584500D01*
X138945422Y-100219500D01*
X138963164Y-100308695D01*
X139013689Y-100384311D01*
X139089305Y-100434836D01*
X139178500Y-100452578D01*
X139318200Y-100452578D01*
X139318200Y-100627478D01*
X139309742Y-100670000D01*
X139318200Y-100712522D01*
X139318200Y-100712525D01*
X139343254Y-100838479D01*
X139438690Y-100981310D01*
X139474742Y-101005399D01*
X139904602Y-101435260D01*
X139928690Y-101471310D01*
X139964740Y-101495398D01*
X139964741Y-101495399D01*
X140071520Y-101566746D01*
X140240000Y-101600259D01*
X140282526Y-101591800D01*
X141355616Y-101591800D01*
X141419077Y-101655261D01*
X141633795Y-101744200D01*
X141866205Y-101744200D01*
X142080923Y-101655261D01*
X142245261Y-101490923D01*
X142334200Y-101276205D01*
X142334200Y-101043795D01*
X142245261Y-100829077D01*
X142080923Y-100664739D01*
X141866205Y-100575800D01*
X141633795Y-100575800D01*
X141419077Y-100664739D01*
X141355616Y-100728200D01*
X140418858Y-100728200D01*
X140181800Y-100491143D01*
X140181800Y-100452578D01*
X140321500Y-100452578D01*
X140410695Y-100434836D01*
X140486311Y-100384311D01*
X140518057Y-100336800D01*
X140779836Y-100336800D01*
X140785189Y-100344811D01*
X140860805Y-100395336D01*
X140950000Y-100413078D01*
X142550000Y-100413078D01*
X142639195Y-100395336D01*
X142714811Y-100344811D01*
X142765336Y-100269195D01*
X142783078Y-100180000D01*
X142783078Y-99630000D01*
X142765336Y-99540805D01*
X142714811Y-99465189D01*
X142639195Y-99414664D01*
X142550000Y-99396922D01*
X140950000Y-99396922D01*
X140860805Y-99414664D01*
X140785189Y-99465189D01*
X140779836Y-99473200D01*
X140522066Y-99473200D01*
X140486311Y-99419689D01*
X140410695Y-99369164D01*
X140321500Y-99351422D01*
X139178500Y-99351422D01*
X139089305Y-99369164D01*
X139013689Y-99419689D01*
X138963164Y-99495305D01*
X138945422Y-99584500D01*
X137441473Y-99584500D01*
X137273078Y-99416105D01*
X137273078Y-98593900D01*
X138949900Y-98593900D01*
X138949900Y-98740971D01*
X138984702Y-98824991D01*
X139049008Y-98889297D01*
X139133028Y-98924100D01*
X139515050Y-98924100D01*
X139572200Y-98866950D01*
X139572200Y-98536750D01*
X139927800Y-98536750D01*
X139927800Y-98866950D01*
X139984950Y-98924100D01*
X140366972Y-98924100D01*
X140450992Y-98889297D01*
X140515298Y-98824991D01*
X140550100Y-98740971D01*
X140550100Y-98593900D01*
X140492950Y-98536750D01*
X139927800Y-98536750D01*
X139572200Y-98536750D01*
X139007050Y-98536750D01*
X138949900Y-98593900D01*
X137273078Y-98593900D01*
X137273078Y-98015029D01*
X138949900Y-98015029D01*
X138949900Y-98162100D01*
X139007050Y-98219250D01*
X139572200Y-98219250D01*
X139572200Y-97889050D01*
X139927800Y-97889050D01*
X139927800Y-98219250D01*
X140492950Y-98219250D01*
X140550100Y-98162100D01*
X140550100Y-98015029D01*
X140515298Y-97931009D01*
X140450992Y-97866703D01*
X140366972Y-97831900D01*
X139984950Y-97831900D01*
X139927800Y-97889050D01*
X139572200Y-97889050D01*
X139515050Y-97831900D01*
X139133028Y-97831900D01*
X139049008Y-97866703D01*
X138984702Y-97931009D01*
X138949900Y-98015029D01*
X137273078Y-98015029D01*
X137273078Y-97700000D01*
X137255336Y-97610805D01*
X137204811Y-97535189D01*
X137129195Y-97484664D01*
X137060501Y-97471000D01*
X137442185Y-97471000D01*
X137604058Y-97632874D01*
X137625314Y-97664686D01*
X137709479Y-97720923D01*
X137751341Y-97748894D01*
X137899999Y-97778464D01*
X137937523Y-97771000D01*
X138194816Y-97771000D01*
X138309077Y-97885261D01*
X138523795Y-97974200D01*
X138756205Y-97974200D01*
X138970923Y-97885261D01*
X139135261Y-97720923D01*
X139224200Y-97506205D01*
X139224200Y-97273795D01*
X139135261Y-97059077D01*
X138970923Y-96894739D01*
X138756205Y-96805800D01*
X138523795Y-96805800D01*
X138309077Y-96894739D01*
X138194816Y-97009000D01*
X138057816Y-97009000D01*
X137895944Y-96847128D01*
X137874686Y-96815314D01*
X137748659Y-96731106D01*
X137637524Y-96709000D01*
X137600000Y-96701536D01*
X137562476Y-96709000D01*
X132617522Y-96709000D01*
X132579999Y-96701536D01*
X132542476Y-96709000D01*
X132431341Y-96731106D01*
X132305314Y-96815314D01*
X132284056Y-96847129D01*
X131507127Y-97624058D01*
X131475315Y-97645314D01*
X131454059Y-97677126D01*
X131391106Y-97771342D01*
X131361536Y-97920000D01*
X131369001Y-97957529D01*
X131369000Y-99402476D01*
X131361536Y-99440000D01*
X131381813Y-99541939D01*
X131391106Y-99588658D01*
X131475314Y-99714686D01*
X131507129Y-99735944D01*
X132440123Y-100668939D01*
X132321400Y-100955562D01*
X132321400Y-101424438D01*
X132500831Y-101857623D01*
X132832377Y-102189169D01*
X133265562Y-102368600D01*
X133734438Y-102368600D01*
X134167623Y-102189169D01*
X134499169Y-101857623D01*
X134678600Y-101424438D01*
X134678600Y-100955562D01*
X134499169Y-100522377D01*
X134167623Y-100190831D01*
X133734438Y-100011400D01*
X133265562Y-100011400D01*
X132978939Y-100130123D01*
X132131000Y-99282185D01*
X132131000Y-98415562D01*
X132321400Y-98415562D01*
X132321400Y-98884438D01*
X132500831Y-99317623D01*
X132832377Y-99649169D01*
X133265562Y-99828600D01*
X133734438Y-99828600D01*
X134167623Y-99649169D01*
X134499169Y-99317623D01*
X134678600Y-98884438D01*
X134678600Y-98415562D01*
X134499169Y-97982377D01*
X134167623Y-97650831D01*
X133734438Y-97471400D01*
X133265562Y-97471400D01*
X132832377Y-97650831D01*
X132500831Y-97982377D01*
X132321400Y-98415562D01*
X132131000Y-98415562D01*
X132131000Y-98077815D01*
X132737815Y-97471000D01*
X135019499Y-97471000D01*
X134950805Y-97484664D01*
X134875189Y-97535189D01*
X134824664Y-97610805D01*
X134806922Y-97700000D01*
X134806922Y-99600000D01*
X134824664Y-99689195D01*
X134875189Y-99764811D01*
X134950805Y-99815336D01*
X135040000Y-99833078D01*
X136756105Y-99833078D01*
X137779801Y-100856775D01*
X137779800Y-102474406D01*
X137779082Y-102473331D01*
X137738061Y-102411939D01*
X137710489Y-102393516D01*
X137078835Y-101761862D01*
X137218600Y-101424438D01*
X137218600Y-100955562D01*
X137039169Y-100522377D01*
X136707623Y-100190831D01*
X136274438Y-100011400D01*
X135805562Y-100011400D01*
X135372377Y-100190831D01*
X135040831Y-100522377D01*
X134861400Y-100955562D01*
X134861400Y-101424438D01*
X135040831Y-101857623D01*
X135372377Y-102189169D01*
X135805562Y-102368600D01*
X136274438Y-102368600D01*
X136611862Y-102228835D01*
X137169800Y-102786773D01*
X137169800Y-102937478D01*
X137163331Y-102970000D01*
X137188958Y-103098837D01*
X137220919Y-103146669D01*
X137261939Y-103208060D01*
X137289509Y-103226482D01*
X137470352Y-103407325D01*
X137432522Y-103399800D01*
X137400000Y-103393331D01*
X137367478Y-103399800D01*
X137178934Y-103399800D01*
X137039169Y-103062377D01*
X136707623Y-102730831D01*
X136274438Y-102551400D01*
X135805562Y-102551400D01*
X135372377Y-102730831D01*
X135040831Y-103062377D01*
X134861400Y-103495562D01*
X134861400Y-103964438D01*
X135040831Y-104397623D01*
X135372377Y-104729169D01*
X135805562Y-104908600D01*
X136274438Y-104908600D01*
X136707623Y-104729169D01*
X137039169Y-104397623D01*
X137178934Y-104060200D01*
X137263227Y-104060200D01*
X139152835Y-105949808D01*
X139102522Y-105939800D01*
X139070000Y-105933331D01*
X139037478Y-105939800D01*
X137178934Y-105939800D01*
X137039169Y-105602377D01*
X136707623Y-105270831D01*
X136274438Y-105091400D01*
X135805562Y-105091400D01*
X135372377Y-105270831D01*
X135040831Y-105602377D01*
X134861400Y-106035562D01*
X134861400Y-106504438D01*
X135040831Y-106937623D01*
X135372377Y-107269169D01*
X135805562Y-107448600D01*
X136274438Y-107448600D01*
X136707623Y-107269169D01*
X137039169Y-106937623D01*
X137178934Y-106600200D01*
X138933227Y-106600200D01*
X143403518Y-111070492D01*
X143421939Y-111098061D01*
X143531162Y-111171042D01*
X143627478Y-111190200D01*
X143627482Y-111190200D01*
X143659999Y-111196668D01*
X143692516Y-111190200D01*
X147723227Y-111190200D01*
X147916099Y-111383072D01*
X147915800Y-111383795D01*
X147915800Y-111616205D01*
X148004739Y-111830923D01*
X148169077Y-111995261D01*
X148383795Y-112084200D01*
X148616205Y-112084200D01*
X148830923Y-111995261D01*
X148995261Y-111830923D01*
X149084200Y-111616205D01*
X149084200Y-111383795D01*
X149009686Y-111203900D01*
X149699900Y-111203900D01*
X149699900Y-111350971D01*
X149734702Y-111434991D01*
X149799008Y-111499297D01*
X149883028Y-111534100D01*
X150265050Y-111534100D01*
X150322200Y-111476950D01*
X150322200Y-111146750D01*
X149757050Y-111146750D01*
X149699900Y-111203900D01*
X149009686Y-111203900D01*
X148995261Y-111169077D01*
X148830923Y-111004739D01*
X148616205Y-110915800D01*
X148383795Y-110915800D01*
X148383072Y-110916099D01*
X148242751Y-110775778D01*
X148383795Y-110834200D01*
X148616205Y-110834200D01*
X148830923Y-110745261D01*
X148995261Y-110580923D01*
X148995560Y-110580200D01*
X149718469Y-110580200D01*
X149699900Y-110625029D01*
X149699900Y-110772100D01*
X149757050Y-110829250D01*
X150322200Y-110829250D01*
X150322200Y-110790200D01*
X150677800Y-110790200D01*
X150677800Y-110829250D01*
X150697800Y-110829250D01*
X150697800Y-111146750D01*
X150677800Y-111146750D01*
X150677800Y-111476950D01*
X150734950Y-111534100D01*
X151116972Y-111534100D01*
X151200992Y-111499297D01*
X151265298Y-111434991D01*
X151276534Y-111407866D01*
X151306203Y-111479492D01*
X151370509Y-111543798D01*
X151454529Y-111578600D01*
X152015050Y-111578600D01*
X152072200Y-111521450D01*
X152072200Y-110927800D01*
X152052200Y-110927800D01*
X152052200Y-110572200D01*
X152072200Y-110572200D01*
X152072200Y-109978550D01*
X152015050Y-109921400D01*
X151835573Y-109921400D01*
X152315800Y-109441173D01*
X152315800Y-109486205D01*
X152404739Y-109700923D01*
X152569077Y-109865261D01*
X152704609Y-109921400D01*
X152484950Y-109921400D01*
X152427800Y-109978550D01*
X152427800Y-110572200D01*
X152447800Y-110572200D01*
X152447800Y-110927800D01*
X152427800Y-110927800D01*
X152427800Y-111521450D01*
X152484950Y-111578600D01*
X153045471Y-111578600D01*
X153129491Y-111543798D01*
X153169801Y-111503488D01*
X153169801Y-111513225D01*
X152766104Y-111916922D01*
X151500000Y-111916922D01*
X151410805Y-111934664D01*
X151335189Y-111985189D01*
X151284664Y-112060805D01*
X151280806Y-112080200D01*
X151270061Y-112080200D01*
X151236311Y-112029689D01*
X151160695Y-111979164D01*
X151071500Y-111961422D01*
X149928500Y-111961422D01*
X149839305Y-111979164D01*
X149763689Y-112029689D01*
X149713164Y-112105305D01*
X149695422Y-112194500D01*
X149695422Y-112829500D01*
X149713164Y-112918695D01*
X149763689Y-112994311D01*
X149839305Y-113044836D01*
X149928500Y-113062578D01*
X151071500Y-113062578D01*
X151160695Y-113044836D01*
X151236311Y-112994311D01*
X151266922Y-112948498D01*
X151266922Y-113350000D01*
X151284664Y-113439195D01*
X151314559Y-113483936D01*
X141276269Y-113483936D01*
X141245261Y-113409077D01*
X141080923Y-113244739D01*
X140866205Y-113155800D01*
X140633795Y-113155800D01*
X140419077Y-113244739D01*
X140345616Y-113318200D01*
X140144384Y-113318200D01*
X140080923Y-113254739D01*
X139866205Y-113165800D01*
X139633795Y-113165800D01*
X139419077Y-113254739D01*
X139355616Y-113318200D01*
X139312578Y-113318200D01*
X139312578Y-113178500D01*
X139294836Y-113089305D01*
X139244311Y-113013689D01*
X139168695Y-112963164D01*
X139079500Y-112945422D01*
X138444500Y-112945422D01*
X138355305Y-112963164D01*
X138279689Y-113013689D01*
X138229164Y-113089305D01*
X138211422Y-113178500D01*
X138211422Y-114321500D01*
X138229164Y-114410695D01*
X138279689Y-114486311D01*
X138355305Y-114536836D01*
X138444500Y-114554578D01*
X139079500Y-114554578D01*
X139168695Y-114536836D01*
X139244311Y-114486311D01*
X139294836Y-114410695D01*
X139312578Y-114321500D01*
X139312578Y-114181800D01*
X139355616Y-114181800D01*
X139419077Y-114245261D01*
X139633795Y-114334200D01*
X139866205Y-114334200D01*
X140080923Y-114245261D01*
X140144384Y-114181800D01*
X140365616Y-114181800D01*
X140419077Y-114235261D01*
X140633795Y-114324200D01*
X140866205Y-114324200D01*
X141021400Y-114259916D01*
X141021400Y-114856400D01*
X129753600Y-114856400D01*
X129753600Y-114034950D01*
X133374400Y-114034950D01*
X133374400Y-114543972D01*
X133409203Y-114627992D01*
X133473509Y-114692298D01*
X133557529Y-114727100D01*
X133812550Y-114727100D01*
X133869700Y-114669950D01*
X133869700Y-113977800D01*
X134225300Y-113977800D01*
X134225300Y-114669950D01*
X134282450Y-114727100D01*
X134537471Y-114727100D01*
X134621491Y-114692298D01*
X134685797Y-114627992D01*
X134720600Y-114543972D01*
X134720600Y-114034950D01*
X134663450Y-113977800D01*
X134225300Y-113977800D01*
X133869700Y-113977800D01*
X133431550Y-113977800D01*
X133374400Y-114034950D01*
X129753600Y-114034950D01*
X129753600Y-113056028D01*
X133374400Y-113056028D01*
X133374400Y-113565050D01*
X133431550Y-113622200D01*
X133869700Y-113622200D01*
X133869700Y-112930050D01*
X134225300Y-112930050D01*
X134225300Y-113622200D01*
X134663450Y-113622200D01*
X134720600Y-113565050D01*
X134720600Y-113056028D01*
X134685797Y-112972008D01*
X134621491Y-112907702D01*
X134537471Y-112872900D01*
X134282450Y-112872900D01*
X134225300Y-112930050D01*
X133869700Y-112930050D01*
X133812550Y-112872900D01*
X133557529Y-112872900D01*
X133473509Y-112907702D01*
X133409203Y-112972008D01*
X133374400Y-113056028D01*
X129753600Y-113056028D01*
X129753600Y-111115562D01*
X132321400Y-111115562D01*
X132321400Y-111584438D01*
X132500831Y-112017623D01*
X132832377Y-112349169D01*
X133265562Y-112528600D01*
X133734438Y-112528600D01*
X134167623Y-112349169D01*
X134499169Y-112017623D01*
X134596850Y-111781800D01*
X134943150Y-111781800D01*
X135040831Y-112017623D01*
X135372377Y-112349169D01*
X135608200Y-112446850D01*
X135608201Y-112868422D01*
X135508000Y-112868422D01*
X135418805Y-112886164D01*
X135343189Y-112936689D01*
X135292664Y-113012305D01*
X135274922Y-113101500D01*
X135274922Y-114498500D01*
X135292664Y-114587695D01*
X135343189Y-114663311D01*
X135418805Y-114713836D01*
X135508000Y-114731578D01*
X136397000Y-114731578D01*
X136486195Y-114713836D01*
X136561811Y-114663311D01*
X136612336Y-114587695D01*
X136630078Y-114498500D01*
X136630078Y-114181800D01*
X136687422Y-114181800D01*
X136687422Y-114321500D01*
X136705164Y-114410695D01*
X136755689Y-114486311D01*
X136831305Y-114536836D01*
X136920500Y-114554578D01*
X137555500Y-114554578D01*
X137644695Y-114536836D01*
X137720311Y-114486311D01*
X137770836Y-114410695D01*
X137788578Y-114321500D01*
X137788578Y-113178500D01*
X137770836Y-113089305D01*
X137720311Y-113013689D01*
X137644695Y-112963164D01*
X137555500Y-112945422D01*
X136920500Y-112945422D01*
X136831305Y-112963164D01*
X136755689Y-113013689D01*
X136705164Y-113089305D01*
X136687422Y-113178500D01*
X136687422Y-113318200D01*
X136630078Y-113318200D01*
X136630078Y-113101500D01*
X136612336Y-113012305D01*
X136561811Y-112936689D01*
X136486195Y-112886164D01*
X136471800Y-112883301D01*
X136471800Y-112446850D01*
X136707623Y-112349169D01*
X137039169Y-112017623D01*
X137218600Y-111584438D01*
X137218600Y-111115562D01*
X137039169Y-110682377D01*
X136707623Y-110350831D01*
X136274438Y-110171400D01*
X135805562Y-110171400D01*
X135372377Y-110350831D01*
X135040831Y-110682377D01*
X134943150Y-110918200D01*
X134596850Y-110918200D01*
X134499169Y-110682377D01*
X134167623Y-110350831D01*
X133734438Y-110171400D01*
X133265562Y-110171400D01*
X132832377Y-110350831D01*
X132500831Y-110682377D01*
X132321400Y-111115562D01*
X129753600Y-111115562D01*
X129753600Y-109735210D01*
X132826237Y-109735210D01*
X132945282Y-109875996D01*
X133395446Y-110007133D01*
X133861527Y-109956019D01*
X134054718Y-109875996D01*
X134173763Y-109735210D01*
X135366237Y-109735210D01*
X135485282Y-109875996D01*
X135935446Y-110007133D01*
X136401527Y-109956019D01*
X136594718Y-109875996D01*
X136713763Y-109735210D01*
X136040000Y-109061447D01*
X135366237Y-109735210D01*
X134173763Y-109735210D01*
X133500000Y-109061447D01*
X132826237Y-109735210D01*
X129753600Y-109735210D01*
X129753600Y-108705446D01*
X132302867Y-108705446D01*
X132353981Y-109171527D01*
X132434004Y-109364718D01*
X132574790Y-109483763D01*
X133248553Y-108810000D01*
X133751447Y-108810000D01*
X134425210Y-109483763D01*
X134565996Y-109364718D01*
X134697133Y-108914554D01*
X134674201Y-108705446D01*
X134842867Y-108705446D01*
X134893981Y-109171527D01*
X134974004Y-109364718D01*
X135114790Y-109483763D01*
X135788553Y-108810000D01*
X136291447Y-108810000D01*
X136965210Y-109483763D01*
X137105996Y-109364718D01*
X137237133Y-108914554D01*
X137186019Y-108448473D01*
X137105996Y-108255282D01*
X136965210Y-108136237D01*
X136291447Y-108810000D01*
X135788553Y-108810000D01*
X135114790Y-108136237D01*
X134974004Y-108255282D01*
X134842867Y-108705446D01*
X134674201Y-108705446D01*
X134646019Y-108448473D01*
X134565996Y-108255282D01*
X134425210Y-108136237D01*
X133751447Y-108810000D01*
X133248553Y-108810000D01*
X132574790Y-108136237D01*
X132434004Y-108255282D01*
X132302867Y-108705446D01*
X129753600Y-108705446D01*
X129753600Y-107884790D01*
X132826237Y-107884790D01*
X133500000Y-108558553D01*
X134173763Y-107884790D01*
X135366237Y-107884790D01*
X136040000Y-108558553D01*
X136713763Y-107884790D01*
X136594718Y-107744004D01*
X136144554Y-107612867D01*
X135678473Y-107663981D01*
X135485282Y-107744004D01*
X135366237Y-107884790D01*
X134173763Y-107884790D01*
X134054718Y-107744004D01*
X133604554Y-107612867D01*
X133138473Y-107663981D01*
X132945282Y-107744004D01*
X132826237Y-107884790D01*
X129753600Y-107884790D01*
X129753600Y-106035562D01*
X132321400Y-106035562D01*
X132321400Y-106504438D01*
X132500831Y-106937623D01*
X132832377Y-107269169D01*
X133265562Y-107448600D01*
X133734438Y-107448600D01*
X134167623Y-107269169D01*
X134499169Y-106937623D01*
X134678600Y-106504438D01*
X134678600Y-106035562D01*
X134499169Y-105602377D01*
X134167623Y-105270831D01*
X133734438Y-105091400D01*
X133265562Y-105091400D01*
X132832377Y-105270831D01*
X132500831Y-105602377D01*
X132321400Y-106035562D01*
X129753600Y-106035562D01*
X129753600Y-103495562D01*
X132321400Y-103495562D01*
X132321400Y-103964438D01*
X132500831Y-104397623D01*
X132832377Y-104729169D01*
X133265562Y-104908600D01*
X133734438Y-104908600D01*
X134167623Y-104729169D01*
X134499169Y-104397623D01*
X134678600Y-103964438D01*
X134678600Y-103495562D01*
X134499169Y-103062377D01*
X134167623Y-102730831D01*
X133734438Y-102551400D01*
X133265562Y-102551400D01*
X132832377Y-102730831D01*
X132500831Y-103062377D01*
X132321400Y-103495562D01*
X129753600Y-103495562D01*
X129753600Y-96609536D01*
X140274734Y-96609536D01*
X140274734Y-95820000D01*
X140716922Y-95820000D01*
X140716922Y-96370000D01*
X140734664Y-96459195D01*
X140785189Y-96534811D01*
X140860805Y-96585336D01*
X140950000Y-96603078D01*
X142550000Y-96603078D01*
X142639195Y-96585336D01*
X142714811Y-96534811D01*
X142765336Y-96459195D01*
X142768268Y-96444452D01*
X142919077Y-96595261D01*
X143133795Y-96684200D01*
X143366205Y-96684200D01*
X143580923Y-96595261D01*
X143745261Y-96430923D01*
X143803778Y-96289650D01*
X147221400Y-96289650D01*
X147221400Y-96415471D01*
X147256202Y-96499491D01*
X147320508Y-96563797D01*
X147404528Y-96598600D01*
X148015050Y-96598600D01*
X148072200Y-96541450D01*
X148072200Y-96232500D01*
X148427800Y-96232500D01*
X148427800Y-96541450D01*
X148484950Y-96598600D01*
X149095472Y-96598600D01*
X149179492Y-96563797D01*
X149243798Y-96499491D01*
X149278600Y-96415471D01*
X149278600Y-96289650D01*
X149221450Y-96232500D01*
X148427800Y-96232500D01*
X148072200Y-96232500D01*
X147278550Y-96232500D01*
X147221400Y-96289650D01*
X143803778Y-96289650D01*
X143834200Y-96216205D01*
X143834200Y-95983795D01*
X143747520Y-95774529D01*
X147221400Y-95774529D01*
X147221400Y-95900350D01*
X147278550Y-95957500D01*
X148072200Y-95957500D01*
X148072200Y-95648550D01*
X148427800Y-95648550D01*
X148427800Y-95957500D01*
X149221450Y-95957500D01*
X149278600Y-95900350D01*
X149278600Y-95774529D01*
X149243798Y-95690509D01*
X149179492Y-95626203D01*
X149095472Y-95591400D01*
X148484950Y-95591400D01*
X148427800Y-95648550D01*
X148072200Y-95648550D01*
X148015050Y-95591400D01*
X147404528Y-95591400D01*
X147320508Y-95626203D01*
X147256202Y-95690509D01*
X147221400Y-95774529D01*
X143747520Y-95774529D01*
X143745261Y-95769077D01*
X143580923Y-95604739D01*
X143366205Y-95515800D01*
X143133795Y-95515800D01*
X142919077Y-95604739D01*
X142769928Y-95753888D01*
X142765336Y-95730805D01*
X142714811Y-95655189D01*
X142639195Y-95604664D01*
X142550000Y-95586922D01*
X140950000Y-95586922D01*
X140860805Y-95604664D01*
X140785189Y-95655189D01*
X140734664Y-95730805D01*
X140716922Y-95820000D01*
X140274734Y-95820000D01*
X140274734Y-95143600D01*
X162423800Y-95143600D01*
X162423800Y-106134370D01*
X162423800Y-106134370D01*
G37*
X162423800Y-106134370D02*
X162414836Y-106089305D01*
X162364311Y-106013689D01*
X162288695Y-105963164D01*
X162199500Y-105945422D01*
X161564500Y-105945422D01*
X161475305Y-105963164D01*
X161399689Y-106013689D01*
X161349164Y-106089305D01*
X161331422Y-106178500D01*
X161331422Y-107321500D01*
X161349164Y-107410695D01*
X161399689Y-107486311D01*
X161475305Y-107536836D01*
X161564500Y-107554578D01*
X162199500Y-107554578D01*
X162288695Y-107536836D01*
X162364311Y-107486311D01*
X162414836Y-107410695D01*
X162423800Y-107365630D01*
X162423800Y-114856400D01*
X151638600Y-114856400D01*
X151638600Y-113583078D01*
X153000000Y-113583078D01*
X153089195Y-113565336D01*
X153164811Y-113514811D01*
X153215336Y-113439195D01*
X153233078Y-113350000D01*
X153233078Y-112984950D01*
X153771400Y-112984950D01*
X153771400Y-113395472D01*
X153806203Y-113479492D01*
X153870509Y-113543798D01*
X153954529Y-113578600D01*
X154515050Y-113578600D01*
X154572200Y-113521450D01*
X154572200Y-112927800D01*
X153828550Y-112927800D01*
X153771400Y-112984950D01*
X153233078Y-112984950D01*
X153233078Y-112383896D01*
X153512446Y-112104528D01*
X153771400Y-112104528D01*
X153771400Y-112515050D01*
X153828550Y-112572200D01*
X154572200Y-112572200D01*
X154572200Y-111978550D01*
X154927800Y-111978550D01*
X154927800Y-112572200D01*
X154947800Y-112572200D01*
X154947800Y-112927800D01*
X154927800Y-112927800D01*
X154927800Y-113521450D01*
X154984950Y-113578600D01*
X155545471Y-113578600D01*
X155629491Y-113543798D01*
X155693797Y-113479492D01*
X155728600Y-113395472D01*
X155728600Y-112984950D01*
X155671452Y-112927802D01*
X155721783Y-112927802D01*
X155734702Y-112958991D01*
X155799008Y-113023297D01*
X155883028Y-113058100D01*
X156265050Y-113058100D01*
X156322200Y-113000950D01*
X156322200Y-112670750D01*
X156677800Y-112670750D01*
X156677800Y-113000950D01*
X156734950Y-113058100D01*
X157116972Y-113058100D01*
X157200992Y-113023297D01*
X157265298Y-112958991D01*
X157300100Y-112874971D01*
X157300100Y-112727900D01*
X157242950Y-112670750D01*
X156677800Y-112670750D01*
X156322200Y-112670750D01*
X156302200Y-112670750D01*
X156302200Y-112353250D01*
X156322200Y-112353250D01*
X156322200Y-112023050D01*
X156677800Y-112023050D01*
X156677800Y-112353250D01*
X157242950Y-112353250D01*
X157300100Y-112296100D01*
X157300100Y-112149029D01*
X157265298Y-112065009D01*
X157200992Y-112000703D01*
X157116972Y-111965900D01*
X156734950Y-111965900D01*
X156677800Y-112023050D01*
X156322200Y-112023050D01*
X156265050Y-111965900D01*
X155883028Y-111965900D01*
X155799008Y-112000703D01*
X155734702Y-112065009D01*
X155723466Y-112092134D01*
X155693797Y-112020508D01*
X155629491Y-111956202D01*
X155545471Y-111921400D01*
X154984950Y-111921400D01*
X154927800Y-111978550D01*
X154572200Y-111978550D01*
X154515050Y-111921400D01*
X153954529Y-111921400D01*
X153870509Y-111956202D01*
X153806203Y-112020508D01*
X153771400Y-112104528D01*
X153512446Y-112104528D01*
X153710491Y-111906483D01*
X153738061Y-111888061D01*
X153789525Y-111811041D01*
X153811042Y-111778838D01*
X153836669Y-111650000D01*
X153830200Y-111617478D01*
X153830200Y-111507344D01*
X153835189Y-111514811D01*
X153910805Y-111565336D01*
X154000000Y-111583078D01*
X155500000Y-111583078D01*
X155589195Y-111565336D01*
X155664811Y-111514811D01*
X155715336Y-111439195D01*
X155719194Y-111419800D01*
X155729939Y-111419800D01*
X155763689Y-111470311D01*
X155839305Y-111520836D01*
X155928500Y-111538578D01*
X157071500Y-111538578D01*
X157160695Y-111520836D01*
X157236311Y-111470311D01*
X157286836Y-111394695D01*
X157304578Y-111305500D01*
X157304578Y-111033551D01*
X157687422Y-111416395D01*
X157687422Y-112071500D01*
X157705164Y-112160695D01*
X157755689Y-112236311D01*
X157776176Y-112250000D01*
X157755689Y-112263689D01*
X157705164Y-112339305D01*
X157687422Y-112428500D01*
X157687422Y-113571500D01*
X157705164Y-113660695D01*
X157755689Y-113736311D01*
X157831305Y-113786836D01*
X157920500Y-113804578D01*
X158555500Y-113804578D01*
X158644695Y-113786836D01*
X158720311Y-113736311D01*
X158770836Y-113660695D01*
X158788578Y-113571500D01*
X158788578Y-112428500D01*
X158770836Y-112339305D01*
X158720311Y-112263689D01*
X158699824Y-112250000D01*
X158720311Y-112236311D01*
X158770836Y-112160695D01*
X158788578Y-112071500D01*
X158788578Y-110996246D01*
X158850000Y-111008464D01*
X158887524Y-111001000D01*
X158972185Y-111001000D01*
X159211422Y-111240238D01*
X159211422Y-112071500D01*
X159229164Y-112160695D01*
X159279689Y-112236311D01*
X159300176Y-112250000D01*
X159279689Y-112263689D01*
X159229164Y-112339305D01*
X159211422Y-112428500D01*
X159211422Y-113571500D01*
X159229164Y-113660695D01*
X159279689Y-113736311D01*
X159355305Y-113786836D01*
X159444500Y-113804578D01*
X160079500Y-113804578D01*
X160168695Y-113786836D01*
X160244311Y-113736311D01*
X160294836Y-113660695D01*
X160312578Y-113571500D01*
X160312578Y-112428500D01*
X160294836Y-112339305D01*
X160244311Y-112263689D01*
X160223824Y-112250000D01*
X160244311Y-112236311D01*
X160294836Y-112160695D01*
X160312578Y-112071500D01*
X160312578Y-110928500D01*
X160294836Y-110839305D01*
X160244311Y-110763689D01*
X160168695Y-110713164D01*
X160079500Y-110695422D01*
X159744238Y-110695422D01*
X159572508Y-110523692D01*
X159603250Y-110492950D01*
X159603250Y-109927800D01*
X159920750Y-109927800D01*
X159920750Y-110492950D01*
X159977900Y-110550100D01*
X160124971Y-110550100D01*
X160208991Y-110515298D01*
X160273297Y-110450992D01*
X160308100Y-110366972D01*
X160308100Y-109984950D01*
X160250950Y-109927800D01*
X159920750Y-109927800D01*
X159603250Y-109927800D01*
X159273050Y-109927800D01*
X159215900Y-109984950D01*
X159215900Y-110248623D01*
X159167524Y-110239000D01*
X159130000Y-110231536D01*
X159092476Y-110239000D01*
X159007815Y-110239000D01*
X158788578Y-110019763D01*
X158788578Y-109178500D01*
X158779534Y-109133028D01*
X159215900Y-109133028D01*
X159215900Y-109515050D01*
X159273050Y-109572200D01*
X159603250Y-109572200D01*
X159603250Y-109007050D01*
X159920750Y-109007050D01*
X159920750Y-109572200D01*
X160250950Y-109572200D01*
X160308100Y-109515050D01*
X160308100Y-109133028D01*
X160273297Y-109049008D01*
X160208991Y-108984702D01*
X160124971Y-108949900D01*
X159977900Y-108949900D01*
X159920750Y-109007050D01*
X159603250Y-109007050D01*
X159546100Y-108949900D01*
X159399029Y-108949900D01*
X159315009Y-108984702D01*
X159250703Y-109049008D01*
X159215900Y-109133028D01*
X158779534Y-109133028D01*
X158770836Y-109089305D01*
X158720311Y-109013689D01*
X158644695Y-108963164D01*
X158555500Y-108945422D01*
X157920500Y-108945422D01*
X157831305Y-108963164D01*
X157755689Y-109013689D01*
X157705164Y-109089305D01*
X157687422Y-109178500D01*
X157687422Y-109310449D01*
X157066484Y-108689511D01*
X157048061Y-108661939D01*
X156938838Y-108588958D01*
X156842522Y-108569800D01*
X156810000Y-108563331D01*
X156777478Y-108569800D01*
X155706774Y-108569800D01*
X155614874Y-108477900D01*
X158199900Y-108477900D01*
X158199900Y-108624971D01*
X158234702Y-108708991D01*
X158299008Y-108773297D01*
X158383028Y-108808100D01*
X158765050Y-108808100D01*
X158822200Y-108750950D01*
X158822200Y-108420750D01*
X159177800Y-108420750D01*
X159177800Y-108750950D01*
X159234950Y-108808100D01*
X159616972Y-108808100D01*
X159700992Y-108773297D01*
X159765298Y-108708991D01*
X159800100Y-108624971D01*
X159800100Y-108477900D01*
X159742950Y-108420750D01*
X159177800Y-108420750D01*
X158822200Y-108420750D01*
X158257050Y-108420750D01*
X158199900Y-108477900D01*
X155614874Y-108477900D01*
X155530200Y-108393227D01*
X155530200Y-108379365D01*
X155540336Y-108364195D01*
X155558078Y-108275000D01*
X155558078Y-107558078D01*
X156275000Y-107558078D01*
X156364195Y-107540336D01*
X156369691Y-107536664D01*
X156543517Y-107710491D01*
X156561939Y-107738061D01*
X156589508Y-107756482D01*
X156589509Y-107756483D01*
X156671162Y-107811042D01*
X156753269Y-107827374D01*
X156754739Y-107830923D01*
X156919077Y-107995261D01*
X157133795Y-108084200D01*
X157366205Y-108084200D01*
X157580923Y-107995261D01*
X157677155Y-107899029D01*
X158199900Y-107899029D01*
X158199900Y-108046100D01*
X158257050Y-108103250D01*
X158822200Y-108103250D01*
X158822200Y-107773050D01*
X159177800Y-107773050D01*
X159177800Y-108103250D01*
X159742950Y-108103250D01*
X159800100Y-108046100D01*
X159800100Y-107899029D01*
X159765298Y-107815009D01*
X159700992Y-107750703D01*
X159616972Y-107715900D01*
X159234950Y-107715900D01*
X159177800Y-107773050D01*
X158822200Y-107773050D01*
X158765050Y-107715900D01*
X158383028Y-107715900D01*
X158299008Y-107750703D01*
X158234702Y-107815009D01*
X158199900Y-107899029D01*
X157677155Y-107899029D01*
X157745261Y-107830923D01*
X157834200Y-107616205D01*
X157834200Y-107383795D01*
X157745261Y-107169077D01*
X157706384Y-107130200D01*
X158210281Y-107130200D01*
X158213164Y-107144695D01*
X158263689Y-107220311D01*
X158339305Y-107270836D01*
X158428500Y-107288578D01*
X159571500Y-107288578D01*
X159660695Y-107270836D01*
X159736311Y-107220311D01*
X159770061Y-107169800D01*
X159807422Y-107169800D01*
X159807422Y-107321500D01*
X159825164Y-107410695D01*
X159875689Y-107486311D01*
X159951305Y-107536836D01*
X160040500Y-107554578D01*
X160675500Y-107554578D01*
X160764695Y-107536836D01*
X160840311Y-107486311D01*
X160890836Y-107410695D01*
X160908578Y-107321500D01*
X160908578Y-106178500D01*
X160890836Y-106089305D01*
X160840311Y-106013689D01*
X160764695Y-105963164D01*
X160675500Y-105945422D01*
X160040500Y-105945422D01*
X159951305Y-105963164D01*
X159875689Y-106013689D01*
X159825164Y-106089305D01*
X159807422Y-106178500D01*
X159807422Y-106306200D01*
X159770061Y-106306200D01*
X159736311Y-106255689D01*
X159660695Y-106205164D01*
X159571500Y-106187422D01*
X158428500Y-106187422D01*
X158339305Y-106205164D01*
X158263689Y-106255689D01*
X158213164Y-106331305D01*
X158195422Y-106420500D01*
X158195422Y-106469800D01*
X158054578Y-106469800D01*
X158054578Y-106144237D01*
X158398595Y-105800221D01*
X158420500Y-105804578D01*
X159055500Y-105804578D01*
X159144695Y-105786836D01*
X159220311Y-105736311D01*
X159270836Y-105660695D01*
X159288578Y-105571500D01*
X159288578Y-104428500D01*
X159270836Y-104339305D01*
X159220311Y-104263689D01*
X159200103Y-104250186D01*
X159249297Y-104200992D01*
X159284100Y-104116972D01*
X159284100Y-103734950D01*
X159226950Y-103677800D01*
X158896750Y-103677800D01*
X158896750Y-103697800D01*
X158579250Y-103697800D01*
X158579250Y-103677800D01*
X158249050Y-103677800D01*
X158191900Y-103734950D01*
X158191900Y-104116972D01*
X158226703Y-104200992D01*
X158275897Y-104250186D01*
X158255689Y-104263689D01*
X158205164Y-104339305D01*
X158187422Y-104428500D01*
X158187422Y-104933762D01*
X157509763Y-105611422D01*
X156678500Y-105611422D01*
X156589305Y-105629164D01*
X156528489Y-105669800D01*
X156508078Y-105669800D01*
X156508078Y-105475000D01*
X156493160Y-105400000D01*
X156508078Y-105325000D01*
X156508078Y-105108367D01*
X156549008Y-105149297D01*
X156633028Y-105184100D01*
X157015050Y-105184100D01*
X157072200Y-105126950D01*
X157072200Y-104796750D01*
X157427800Y-104796750D01*
X157427800Y-105126950D01*
X157484950Y-105184100D01*
X157866972Y-105184100D01*
X157950992Y-105149297D01*
X158015298Y-105084991D01*
X158050100Y-105000971D01*
X158050100Y-104853900D01*
X157992950Y-104796750D01*
X157427800Y-104796750D01*
X157072200Y-104796750D01*
X157052200Y-104796750D01*
X157052200Y-104479250D01*
X157072200Y-104479250D01*
X157072200Y-104149050D01*
X157427800Y-104149050D01*
X157427800Y-104479250D01*
X157992950Y-104479250D01*
X158050100Y-104422100D01*
X158050100Y-104275029D01*
X158015298Y-104191009D01*
X157950992Y-104126703D01*
X157866972Y-104091900D01*
X157484950Y-104091900D01*
X157427800Y-104149050D01*
X157072200Y-104149050D01*
X157015050Y-104091900D01*
X156905073Y-104091900D01*
X157070491Y-103926482D01*
X157098060Y-103908061D01*
X157171042Y-103798838D01*
X157190200Y-103702522D01*
X157190200Y-103702518D01*
X157196668Y-103670001D01*
X157190200Y-103637484D01*
X157190200Y-103312578D01*
X157821500Y-103312578D01*
X157910695Y-103294836D01*
X157986311Y-103244311D01*
X158036836Y-103168695D01*
X158054578Y-103079500D01*
X158054578Y-102444500D01*
X158036836Y-102355305D01*
X157986311Y-102279689D01*
X157919355Y-102234950D01*
X158191900Y-102234950D01*
X158191900Y-102616972D01*
X158226703Y-102700992D01*
X158275711Y-102750000D01*
X158226703Y-102799008D01*
X158191900Y-102883028D01*
X158191900Y-103265050D01*
X158249050Y-103322200D01*
X158579250Y-103322200D01*
X158579250Y-102757050D01*
X158572200Y-102750000D01*
X158579250Y-102742950D01*
X158579250Y-102177800D01*
X158896750Y-102177800D01*
X158896750Y-102742950D01*
X158903800Y-102750000D01*
X158896750Y-102757050D01*
X158896750Y-103322200D01*
X159226950Y-103322200D01*
X159284100Y-103265050D01*
X159284100Y-102883028D01*
X159249297Y-102799008D01*
X159200289Y-102750000D01*
X159249297Y-102700992D01*
X159284100Y-102616972D01*
X159284100Y-102234950D01*
X159226950Y-102177800D01*
X158896750Y-102177800D01*
X158579250Y-102177800D01*
X158249050Y-102177800D01*
X158191900Y-102234950D01*
X157919355Y-102234950D01*
X157910695Y-102229164D01*
X157821500Y-102211422D01*
X157582408Y-102211422D01*
X157586669Y-102190000D01*
X157561042Y-102061162D01*
X157545247Y-102037524D01*
X157488061Y-101951939D01*
X157460486Y-101933514D01*
X157316485Y-101789512D01*
X157315861Y-101788578D01*
X157821500Y-101788578D01*
X157910695Y-101770836D01*
X157986311Y-101720311D01*
X158036836Y-101644695D01*
X158054578Y-101555500D01*
X158054578Y-101383028D01*
X158191900Y-101383028D01*
X158191900Y-101765050D01*
X158249050Y-101822200D01*
X158579250Y-101822200D01*
X158579250Y-101257050D01*
X158896750Y-101257050D01*
X158896750Y-101822200D01*
X159226950Y-101822200D01*
X159284100Y-101765050D01*
X159284100Y-101383028D01*
X159249297Y-101299008D01*
X159184991Y-101234702D01*
X159100971Y-101199900D01*
X158953900Y-101199900D01*
X158896750Y-101257050D01*
X158579250Y-101257050D01*
X158522100Y-101199900D01*
X158375029Y-101199900D01*
X158291009Y-101234702D01*
X158226703Y-101299008D01*
X158191900Y-101383028D01*
X158054578Y-101383028D01*
X158054578Y-100920500D01*
X158036836Y-100831305D01*
X158005091Y-100783795D01*
X159675800Y-100783795D01*
X159675800Y-101016205D01*
X159764739Y-101230923D01*
X159790369Y-101256553D01*
X159779689Y-101263689D01*
X159729164Y-101339305D01*
X159711422Y-101428500D01*
X159711422Y-102571500D01*
X159729164Y-102660695D01*
X159779689Y-102736311D01*
X159800176Y-102750000D01*
X159779689Y-102763689D01*
X159729164Y-102839305D01*
X159711422Y-102928500D01*
X159711422Y-104071500D01*
X159729164Y-104160695D01*
X159779689Y-104236311D01*
X159800176Y-104250000D01*
X159779689Y-104263689D01*
X159729164Y-104339305D01*
X159711422Y-104428500D01*
X159711422Y-105571500D01*
X159729164Y-105660695D01*
X159779689Y-105736311D01*
X159855305Y-105786836D01*
X159944500Y-105804578D01*
X160579500Y-105804578D01*
X160668695Y-105786836D01*
X160744311Y-105736311D01*
X160794836Y-105660695D01*
X160812578Y-105571500D01*
X160812578Y-104428500D01*
X160794836Y-104339305D01*
X160744311Y-104263689D01*
X160723824Y-104250000D01*
X160744311Y-104236311D01*
X160794836Y-104160695D01*
X160812578Y-104071500D01*
X160812578Y-102928500D01*
X160794836Y-102839305D01*
X160744311Y-102763689D01*
X160723824Y-102750000D01*
X160744311Y-102736311D01*
X160794836Y-102660695D01*
X160812578Y-102571500D01*
X160812578Y-101428500D01*
X160794836Y-101339305D01*
X160744311Y-101263689D01*
X160731233Y-101254951D01*
X160755261Y-101230923D01*
X160844200Y-101016205D01*
X160844200Y-100783795D01*
X160755261Y-100569077D01*
X160590923Y-100404739D01*
X160376205Y-100315800D01*
X160143795Y-100315800D01*
X159929077Y-100404739D01*
X159764739Y-100569077D01*
X159675800Y-100783795D01*
X158005091Y-100783795D01*
X157986311Y-100755689D01*
X157910695Y-100705164D01*
X157821500Y-100687422D01*
X157738762Y-100687422D01*
X157745261Y-100680923D01*
X157834200Y-100466205D01*
X157834200Y-100233795D01*
X157745261Y-100019077D01*
X157580923Y-99854739D01*
X157366205Y-99765800D01*
X157133795Y-99765800D01*
X156919077Y-99854739D01*
X156754739Y-100019077D01*
X156665800Y-100233795D01*
X156665800Y-100466205D01*
X156754739Y-100680923D01*
X156761238Y-100687422D01*
X156678500Y-100687422D01*
X156589305Y-100705164D01*
X156513689Y-100755689D01*
X156463164Y-100831305D01*
X156445422Y-100920500D01*
X156445422Y-101538449D01*
X156330200Y-101423227D01*
X156330200Y-100845560D01*
X156330923Y-100845261D01*
X156495261Y-100680923D01*
X156584200Y-100466205D01*
X156584200Y-100233795D01*
X156495261Y-100019077D01*
X156330923Y-99854739D01*
X156116205Y-99765800D01*
X155883795Y-99765800D01*
X155669077Y-99854739D01*
X155578040Y-99945776D01*
X155578040Y-99835293D01*
X155451978Y-99530953D01*
X155219047Y-99298022D01*
X155103112Y-99250000D01*
X155219047Y-99201978D01*
X155451978Y-98969047D01*
X155578040Y-98664707D01*
X155578040Y-98335293D01*
X155451978Y-98030953D01*
X155219047Y-97798022D01*
X154914707Y-97671960D01*
X154585293Y-97671960D01*
X154280953Y-97798022D01*
X154048022Y-98030953D01*
X153921960Y-98335293D01*
X153921960Y-98664707D01*
X153979473Y-98803554D01*
X153601915Y-99181112D01*
X153586836Y-99105305D01*
X153536311Y-99029689D01*
X153460695Y-98979164D01*
X153371500Y-98961422D01*
X152228500Y-98961422D01*
X152139305Y-98979164D01*
X152063689Y-99029689D01*
X152013164Y-99105305D01*
X151995422Y-99194500D01*
X151995422Y-99526812D01*
X151990489Y-99523516D01*
X151270527Y-98803554D01*
X151328040Y-98664707D01*
X151328040Y-98335293D01*
X151273616Y-98203900D01*
X151999900Y-98203900D01*
X151999900Y-98350971D01*
X152034702Y-98434991D01*
X152099008Y-98499297D01*
X152183028Y-98534100D01*
X152565050Y-98534100D01*
X152622200Y-98476950D01*
X152622200Y-98146750D01*
X152977800Y-98146750D01*
X152977800Y-98476950D01*
X153034950Y-98534100D01*
X153416972Y-98534100D01*
X153500992Y-98499297D01*
X153565298Y-98434991D01*
X153600100Y-98350971D01*
X153600100Y-98203900D01*
X153542950Y-98146750D01*
X152977800Y-98146750D01*
X152622200Y-98146750D01*
X152057050Y-98146750D01*
X151999900Y-98203900D01*
X151273616Y-98203900D01*
X151201978Y-98030953D01*
X150969047Y-97798022D01*
X150664707Y-97671960D01*
X150335293Y-97671960D01*
X150030953Y-97798022D01*
X149845716Y-97983259D01*
X149798061Y-97911939D01*
X149770489Y-97893516D01*
X149502002Y-97625029D01*
X151999900Y-97625029D01*
X151999900Y-97772100D01*
X152057050Y-97829250D01*
X152622200Y-97829250D01*
X152622200Y-97499050D01*
X152977800Y-97499050D01*
X152977800Y-97829250D01*
X153542950Y-97829250D01*
X153600100Y-97772100D01*
X153600100Y-97625029D01*
X153565298Y-97541009D01*
X153500992Y-97476703D01*
X153416972Y-97441900D01*
X153034950Y-97441900D01*
X152977800Y-97499050D01*
X152622200Y-97499050D01*
X152565050Y-97441900D01*
X152183028Y-97441900D01*
X152099008Y-97476703D01*
X152034702Y-97541009D01*
X151999900Y-97625029D01*
X149502002Y-97625029D01*
X149283078Y-97406105D01*
X149283078Y-97090000D01*
X149265336Y-97000805D01*
X149214811Y-96925189D01*
X149139195Y-96874664D01*
X149050000Y-96856922D01*
X147450000Y-96856922D01*
X147360805Y-96874664D01*
X147285189Y-96925189D01*
X147234664Y-97000805D01*
X147216922Y-97090000D01*
X147216922Y-97640000D01*
X147234664Y-97729195D01*
X147285189Y-97804811D01*
X147360805Y-97855336D01*
X147450000Y-97873078D01*
X148816105Y-97873078D01*
X149074902Y-98131875D01*
X149050000Y-98126922D01*
X147450000Y-98126922D01*
X147360805Y-98144664D01*
X147285189Y-98195189D01*
X147234664Y-98270805D01*
X147231732Y-98285548D01*
X147080923Y-98134739D01*
X146866205Y-98045800D01*
X146633795Y-98045800D01*
X146419077Y-98134739D01*
X146254739Y-98299077D01*
X146165800Y-98513795D01*
X146165800Y-98746205D01*
X146254739Y-98960923D01*
X146419077Y-99125261D01*
X146633795Y-99214200D01*
X146866205Y-99214200D01*
X147080923Y-99125261D01*
X147230072Y-98976112D01*
X147234664Y-98999195D01*
X147285189Y-99074811D01*
X147360805Y-99125336D01*
X147450000Y-99143078D01*
X149050000Y-99143078D01*
X149139195Y-99125336D01*
X149214811Y-99074811D01*
X149229801Y-99052377D01*
X149229800Y-99487622D01*
X149214811Y-99465189D01*
X149139195Y-99414664D01*
X149050000Y-99396922D01*
X147450000Y-99396922D01*
X147360805Y-99414664D01*
X147285189Y-99465189D01*
X147234664Y-99540805D01*
X147216922Y-99630000D01*
X147216922Y-99946104D01*
X146409509Y-100753518D01*
X146381940Y-100771939D01*
X146363519Y-100799508D01*
X146363517Y-100799510D01*
X146308958Y-100881163D01*
X146283331Y-101010000D01*
X146289801Y-101042527D01*
X146289800Y-103087478D01*
X146283331Y-103120000D01*
X146308958Y-103248837D01*
X146362413Y-103328837D01*
X146381939Y-103358060D01*
X146409509Y-103376482D01*
X147902827Y-104869800D01*
X147526773Y-104869800D01*
X145330200Y-102673227D01*
X145330200Y-99442522D01*
X145336669Y-99410000D01*
X145311042Y-99281162D01*
X145256483Y-99199510D01*
X145256482Y-99199509D01*
X145238060Y-99171939D01*
X145210491Y-99153518D01*
X143211484Y-97154511D01*
X143193061Y-97126939D01*
X143083838Y-97053958D01*
X142987522Y-97034800D01*
X142955000Y-97028331D01*
X142922478Y-97034800D01*
X142772098Y-97034800D01*
X142765336Y-97000805D01*
X142714811Y-96925189D01*
X142639195Y-96874664D01*
X142550000Y-96856922D01*
X140950000Y-96856922D01*
X140860805Y-96874664D01*
X140785189Y-96925189D01*
X140734664Y-97000805D01*
X140716922Y-97090000D01*
X140716922Y-97640000D01*
X140734664Y-97729195D01*
X140785189Y-97804811D01*
X140860805Y-97855336D01*
X140950000Y-97873078D01*
X142550000Y-97873078D01*
X142639195Y-97855336D01*
X142714811Y-97804811D01*
X142765336Y-97729195D01*
X142772098Y-97695200D01*
X142818227Y-97695200D01*
X144669800Y-99546773D01*
X144669801Y-102343617D01*
X144580923Y-102254739D01*
X144580200Y-102254440D01*
X144580200Y-99952516D01*
X144586668Y-99919999D01*
X144580200Y-99887482D01*
X144580200Y-99887478D01*
X144561042Y-99791162D01*
X144488061Y-99681939D01*
X144460489Y-99663516D01*
X143221483Y-98424510D01*
X143203061Y-98396939D01*
X143093838Y-98323958D01*
X142997522Y-98304800D01*
X142965000Y-98298331D01*
X142932478Y-98304800D01*
X142772098Y-98304800D01*
X142765336Y-98270805D01*
X142714811Y-98195189D01*
X142639195Y-98144664D01*
X142550000Y-98126922D01*
X140950000Y-98126922D01*
X140860805Y-98144664D01*
X140785189Y-98195189D01*
X140734664Y-98270805D01*
X140716922Y-98360000D01*
X140716922Y-98910000D01*
X140734664Y-98999195D01*
X140785189Y-99074811D01*
X140860805Y-99125336D01*
X140950000Y-99143078D01*
X142550000Y-99143078D01*
X142639195Y-99125336D01*
X142714811Y-99074811D01*
X142765336Y-98999195D01*
X142772098Y-98965200D01*
X142828227Y-98965200D01*
X143919801Y-100056774D01*
X143919800Y-102254439D01*
X143919077Y-102254739D01*
X143754739Y-102419077D01*
X143747929Y-102435518D01*
X143745261Y-102429077D01*
X143580923Y-102264739D01*
X143366205Y-102175800D01*
X143133795Y-102175800D01*
X142919077Y-102264739D01*
X142754739Y-102429077D01*
X142665800Y-102643795D01*
X142665800Y-102876205D01*
X142754739Y-103090923D01*
X142919077Y-103255261D01*
X142919800Y-103255561D01*
X142919800Y-103297477D01*
X142913331Y-103330000D01*
X142938958Y-103458837D01*
X142986642Y-103530200D01*
X143011939Y-103568060D01*
X143039509Y-103586482D01*
X145263516Y-105810489D01*
X145281939Y-105838061D01*
X145337222Y-105875000D01*
X145391162Y-105911042D01*
X145520000Y-105936669D01*
X145552522Y-105930200D01*
X148349030Y-105930200D01*
X148169077Y-106004739D01*
X148004739Y-106169077D01*
X147915800Y-106383795D01*
X147915800Y-106616205D01*
X148004739Y-106830923D01*
X148169077Y-106995261D01*
X148337442Y-107065000D01*
X148169077Y-107134739D01*
X148004739Y-107299077D01*
X147915800Y-107513795D01*
X147915800Y-107746205D01*
X148004739Y-107960923D01*
X148169077Y-108125261D01*
X148383795Y-108214200D01*
X148616205Y-108214200D01*
X148665800Y-108193657D01*
X148665800Y-108386343D01*
X148616205Y-108365800D01*
X148383795Y-108365800D01*
X148169077Y-108454739D01*
X148004739Y-108619077D01*
X148004440Y-108619800D01*
X144486773Y-108619800D01*
X138440200Y-102573227D01*
X138440200Y-100752521D01*
X138446669Y-100719999D01*
X138421042Y-100591162D01*
X138366483Y-100509509D01*
X138366482Y-100509508D01*
X138348061Y-100481939D01*
X138320491Y-100463518D01*
X137441473Y-99584500D01*
X138945422Y-99584500D01*
X138945422Y-100219500D01*
X138963164Y-100308695D01*
X139013689Y-100384311D01*
X139089305Y-100434836D01*
X139178500Y-100452578D01*
X139318200Y-100452578D01*
X139318200Y-100627478D01*
X139309742Y-100670000D01*
X139318200Y-100712522D01*
X139318200Y-100712525D01*
X139343254Y-100838479D01*
X139438690Y-100981310D01*
X139474742Y-101005399D01*
X139904602Y-101435260D01*
X139928690Y-101471310D01*
X139964740Y-101495398D01*
X139964741Y-101495399D01*
X140071520Y-101566746D01*
X140240000Y-101600259D01*
X140282526Y-101591800D01*
X141355616Y-101591800D01*
X141419077Y-101655261D01*
X141633795Y-101744200D01*
X141866205Y-101744200D01*
X142080923Y-101655261D01*
X142245261Y-101490923D01*
X142334200Y-101276205D01*
X142334200Y-101043795D01*
X142245261Y-100829077D01*
X142080923Y-100664739D01*
X141866205Y-100575800D01*
X141633795Y-100575800D01*
X141419077Y-100664739D01*
X141355616Y-100728200D01*
X140418858Y-100728200D01*
X140181800Y-100491143D01*
X140181800Y-100452578D01*
X140321500Y-100452578D01*
X140410695Y-100434836D01*
X140486311Y-100384311D01*
X140518057Y-100336800D01*
X140779836Y-100336800D01*
X140785189Y-100344811D01*
X140860805Y-100395336D01*
X140950000Y-100413078D01*
X142550000Y-100413078D01*
X142639195Y-100395336D01*
X142714811Y-100344811D01*
X142765336Y-100269195D01*
X142783078Y-100180000D01*
X142783078Y-99630000D01*
X142765336Y-99540805D01*
X142714811Y-99465189D01*
X142639195Y-99414664D01*
X142550000Y-99396922D01*
X140950000Y-99396922D01*
X140860805Y-99414664D01*
X140785189Y-99465189D01*
X140779836Y-99473200D01*
X140522066Y-99473200D01*
X140486311Y-99419689D01*
X140410695Y-99369164D01*
X140321500Y-99351422D01*
X139178500Y-99351422D01*
X139089305Y-99369164D01*
X139013689Y-99419689D01*
X138963164Y-99495305D01*
X138945422Y-99584500D01*
X137441473Y-99584500D01*
X137273078Y-99416105D01*
X137273078Y-98593900D01*
X138949900Y-98593900D01*
X138949900Y-98740971D01*
X138984702Y-98824991D01*
X139049008Y-98889297D01*
X139133028Y-98924100D01*
X139515050Y-98924100D01*
X139572200Y-98866950D01*
X139572200Y-98536750D01*
X139927800Y-98536750D01*
X139927800Y-98866950D01*
X139984950Y-98924100D01*
X140366972Y-98924100D01*
X140450992Y-98889297D01*
X140515298Y-98824991D01*
X140550100Y-98740971D01*
X140550100Y-98593900D01*
X140492950Y-98536750D01*
X139927800Y-98536750D01*
X139572200Y-98536750D01*
X139007050Y-98536750D01*
X138949900Y-98593900D01*
X137273078Y-98593900D01*
X137273078Y-98015029D01*
X138949900Y-98015029D01*
X138949900Y-98162100D01*
X139007050Y-98219250D01*
X139572200Y-98219250D01*
X139572200Y-97889050D01*
X139927800Y-97889050D01*
X139927800Y-98219250D01*
X140492950Y-98219250D01*
X140550100Y-98162100D01*
X140550100Y-98015029D01*
X140515298Y-97931009D01*
X140450992Y-97866703D01*
X140366972Y-97831900D01*
X139984950Y-97831900D01*
X139927800Y-97889050D01*
X139572200Y-97889050D01*
X139515050Y-97831900D01*
X139133028Y-97831900D01*
X139049008Y-97866703D01*
X138984702Y-97931009D01*
X138949900Y-98015029D01*
X137273078Y-98015029D01*
X137273078Y-97700000D01*
X137255336Y-97610805D01*
X137204811Y-97535189D01*
X137129195Y-97484664D01*
X137060501Y-97471000D01*
X137442185Y-97471000D01*
X137604058Y-97632874D01*
X137625314Y-97664686D01*
X137709479Y-97720923D01*
X137751341Y-97748894D01*
X137899999Y-97778464D01*
X137937523Y-97771000D01*
X138194816Y-97771000D01*
X138309077Y-97885261D01*
X138523795Y-97974200D01*
X138756205Y-97974200D01*
X138970923Y-97885261D01*
X139135261Y-97720923D01*
X139224200Y-97506205D01*
X139224200Y-97273795D01*
X139135261Y-97059077D01*
X138970923Y-96894739D01*
X138756205Y-96805800D01*
X138523795Y-96805800D01*
X138309077Y-96894739D01*
X138194816Y-97009000D01*
X138057816Y-97009000D01*
X137895944Y-96847128D01*
X137874686Y-96815314D01*
X137748659Y-96731106D01*
X137637524Y-96709000D01*
X137600000Y-96701536D01*
X137562476Y-96709000D01*
X132617522Y-96709000D01*
X132579999Y-96701536D01*
X132542476Y-96709000D01*
X132431341Y-96731106D01*
X132305314Y-96815314D01*
X132284056Y-96847129D01*
X131507127Y-97624058D01*
X131475315Y-97645314D01*
X131454059Y-97677126D01*
X131391106Y-97771342D01*
X131361536Y-97920000D01*
X131369001Y-97957529D01*
X131369000Y-99402476D01*
X131361536Y-99440000D01*
X131381813Y-99541939D01*
X131391106Y-99588658D01*
X131475314Y-99714686D01*
X131507129Y-99735944D01*
X132440123Y-100668939D01*
X132321400Y-100955562D01*
X132321400Y-101424438D01*
X132500831Y-101857623D01*
X132832377Y-102189169D01*
X133265562Y-102368600D01*
X133734438Y-102368600D01*
X134167623Y-102189169D01*
X134499169Y-101857623D01*
X134678600Y-101424438D01*
X134678600Y-100955562D01*
X134499169Y-100522377D01*
X134167623Y-100190831D01*
X133734438Y-100011400D01*
X133265562Y-100011400D01*
X132978939Y-100130123D01*
X132131000Y-99282185D01*
X132131000Y-98415562D01*
X132321400Y-98415562D01*
X132321400Y-98884438D01*
X132500831Y-99317623D01*
X132832377Y-99649169D01*
X133265562Y-99828600D01*
X133734438Y-99828600D01*
X134167623Y-99649169D01*
X134499169Y-99317623D01*
X134678600Y-98884438D01*
X134678600Y-98415562D01*
X134499169Y-97982377D01*
X134167623Y-97650831D01*
X133734438Y-97471400D01*
X133265562Y-97471400D01*
X132832377Y-97650831D01*
X132500831Y-97982377D01*
X132321400Y-98415562D01*
X132131000Y-98415562D01*
X132131000Y-98077815D01*
X132737815Y-97471000D01*
X135019499Y-97471000D01*
X134950805Y-97484664D01*
X134875189Y-97535189D01*
X134824664Y-97610805D01*
X134806922Y-97700000D01*
X134806922Y-99600000D01*
X134824664Y-99689195D01*
X134875189Y-99764811D01*
X134950805Y-99815336D01*
X135040000Y-99833078D01*
X136756105Y-99833078D01*
X137779801Y-100856775D01*
X137779800Y-102474406D01*
X137779082Y-102473331D01*
X137738061Y-102411939D01*
X137710489Y-102393516D01*
X137078835Y-101761862D01*
X137218600Y-101424438D01*
X137218600Y-100955562D01*
X137039169Y-100522377D01*
X136707623Y-100190831D01*
X136274438Y-100011400D01*
X135805562Y-100011400D01*
X135372377Y-100190831D01*
X135040831Y-100522377D01*
X134861400Y-100955562D01*
X134861400Y-101424438D01*
X135040831Y-101857623D01*
X135372377Y-102189169D01*
X135805562Y-102368600D01*
X136274438Y-102368600D01*
X136611862Y-102228835D01*
X137169800Y-102786773D01*
X137169800Y-102937478D01*
X137163331Y-102970000D01*
X137188958Y-103098837D01*
X137220919Y-103146669D01*
X137261939Y-103208060D01*
X137289509Y-103226482D01*
X137470352Y-103407325D01*
X137432522Y-103399800D01*
X137400000Y-103393331D01*
X137367478Y-103399800D01*
X137178934Y-103399800D01*
X137039169Y-103062377D01*
X136707623Y-102730831D01*
X136274438Y-102551400D01*
X135805562Y-102551400D01*
X135372377Y-102730831D01*
X135040831Y-103062377D01*
X134861400Y-103495562D01*
X134861400Y-103964438D01*
X135040831Y-104397623D01*
X135372377Y-104729169D01*
X135805562Y-104908600D01*
X136274438Y-104908600D01*
X136707623Y-104729169D01*
X137039169Y-104397623D01*
X137178934Y-104060200D01*
X137263227Y-104060200D01*
X139152835Y-105949808D01*
X139102522Y-105939800D01*
X139070000Y-105933331D01*
X139037478Y-105939800D01*
X137178934Y-105939800D01*
X137039169Y-105602377D01*
X136707623Y-105270831D01*
X136274438Y-105091400D01*
X135805562Y-105091400D01*
X135372377Y-105270831D01*
X135040831Y-105602377D01*
X134861400Y-106035562D01*
X134861400Y-106504438D01*
X135040831Y-106937623D01*
X135372377Y-107269169D01*
X135805562Y-107448600D01*
X136274438Y-107448600D01*
X136707623Y-107269169D01*
X137039169Y-106937623D01*
X137178934Y-106600200D01*
X138933227Y-106600200D01*
X143403518Y-111070492D01*
X143421939Y-111098061D01*
X143531162Y-111171042D01*
X143627478Y-111190200D01*
X143627482Y-111190200D01*
X143659999Y-111196668D01*
X143692516Y-111190200D01*
X147723227Y-111190200D01*
X147916099Y-111383072D01*
X147915800Y-111383795D01*
X147915800Y-111616205D01*
X148004739Y-111830923D01*
X148169077Y-111995261D01*
X148383795Y-112084200D01*
X148616205Y-112084200D01*
X148830923Y-111995261D01*
X148995261Y-111830923D01*
X149084200Y-111616205D01*
X149084200Y-111383795D01*
X149009686Y-111203900D01*
X149699900Y-111203900D01*
X149699900Y-111350971D01*
X149734702Y-111434991D01*
X149799008Y-111499297D01*
X149883028Y-111534100D01*
X150265050Y-111534100D01*
X150322200Y-111476950D01*
X150322200Y-111146750D01*
X149757050Y-111146750D01*
X149699900Y-111203900D01*
X149009686Y-111203900D01*
X148995261Y-111169077D01*
X148830923Y-111004739D01*
X148616205Y-110915800D01*
X148383795Y-110915800D01*
X148383072Y-110916099D01*
X148242751Y-110775778D01*
X148383795Y-110834200D01*
X148616205Y-110834200D01*
X148830923Y-110745261D01*
X148995261Y-110580923D01*
X148995560Y-110580200D01*
X149718469Y-110580200D01*
X149699900Y-110625029D01*
X149699900Y-110772100D01*
X149757050Y-110829250D01*
X150322200Y-110829250D01*
X150322200Y-110790200D01*
X150677800Y-110790200D01*
X150677800Y-110829250D01*
X150697800Y-110829250D01*
X150697800Y-111146750D01*
X150677800Y-111146750D01*
X150677800Y-111476950D01*
X150734950Y-111534100D01*
X151116972Y-111534100D01*
X151200992Y-111499297D01*
X151265298Y-111434991D01*
X151276534Y-111407866D01*
X151306203Y-111479492D01*
X151370509Y-111543798D01*
X151454529Y-111578600D01*
X152015050Y-111578600D01*
X152072200Y-111521450D01*
X152072200Y-110927800D01*
X152052200Y-110927800D01*
X152052200Y-110572200D01*
X152072200Y-110572200D01*
X152072200Y-109978550D01*
X152015050Y-109921400D01*
X151835573Y-109921400D01*
X152315800Y-109441173D01*
X152315800Y-109486205D01*
X152404739Y-109700923D01*
X152569077Y-109865261D01*
X152704609Y-109921400D01*
X152484950Y-109921400D01*
X152427800Y-109978550D01*
X152427800Y-110572200D01*
X152447800Y-110572200D01*
X152447800Y-110927800D01*
X152427800Y-110927800D01*
X152427800Y-111521450D01*
X152484950Y-111578600D01*
X153045471Y-111578600D01*
X153129491Y-111543798D01*
X153169801Y-111503488D01*
X153169801Y-111513225D01*
X152766104Y-111916922D01*
X151500000Y-111916922D01*
X151410805Y-111934664D01*
X151335189Y-111985189D01*
X151284664Y-112060805D01*
X151280806Y-112080200D01*
X151270061Y-112080200D01*
X151236311Y-112029689D01*
X151160695Y-111979164D01*
X151071500Y-111961422D01*
X149928500Y-111961422D01*
X149839305Y-111979164D01*
X149763689Y-112029689D01*
X149713164Y-112105305D01*
X149695422Y-112194500D01*
X149695422Y-112829500D01*
X149713164Y-112918695D01*
X149763689Y-112994311D01*
X149839305Y-113044836D01*
X149928500Y-113062578D01*
X151071500Y-113062578D01*
X151160695Y-113044836D01*
X151236311Y-112994311D01*
X151266922Y-112948498D01*
X151266922Y-113350000D01*
X151284664Y-113439195D01*
X151314559Y-113483936D01*
X141276269Y-113483936D01*
X141245261Y-113409077D01*
X141080923Y-113244739D01*
X140866205Y-113155800D01*
X140633795Y-113155800D01*
X140419077Y-113244739D01*
X140345616Y-113318200D01*
X140144384Y-113318200D01*
X140080923Y-113254739D01*
X139866205Y-113165800D01*
X139633795Y-113165800D01*
X139419077Y-113254739D01*
X139355616Y-113318200D01*
X139312578Y-113318200D01*
X139312578Y-113178500D01*
X139294836Y-113089305D01*
X139244311Y-113013689D01*
X139168695Y-112963164D01*
X139079500Y-112945422D01*
X138444500Y-112945422D01*
X138355305Y-112963164D01*
X138279689Y-113013689D01*
X138229164Y-113089305D01*
X138211422Y-113178500D01*
X138211422Y-114321500D01*
X138229164Y-114410695D01*
X138279689Y-114486311D01*
X138355305Y-114536836D01*
X138444500Y-114554578D01*
X139079500Y-114554578D01*
X139168695Y-114536836D01*
X139244311Y-114486311D01*
X139294836Y-114410695D01*
X139312578Y-114321500D01*
X139312578Y-114181800D01*
X139355616Y-114181800D01*
X139419077Y-114245261D01*
X139633795Y-114334200D01*
X139866205Y-114334200D01*
X140080923Y-114245261D01*
X140144384Y-114181800D01*
X140365616Y-114181800D01*
X140419077Y-114235261D01*
X140633795Y-114324200D01*
X140866205Y-114324200D01*
X141021400Y-114259916D01*
X141021400Y-114856400D01*
X129753600Y-114856400D01*
X129753600Y-114034950D01*
X133374400Y-114034950D01*
X133374400Y-114543972D01*
X133409203Y-114627992D01*
X133473509Y-114692298D01*
X133557529Y-114727100D01*
X133812550Y-114727100D01*
X133869700Y-114669950D01*
X133869700Y-113977800D01*
X134225300Y-113977800D01*
X134225300Y-114669950D01*
X134282450Y-114727100D01*
X134537471Y-114727100D01*
X134621491Y-114692298D01*
X134685797Y-114627992D01*
X134720600Y-114543972D01*
X134720600Y-114034950D01*
X134663450Y-113977800D01*
X134225300Y-113977800D01*
X133869700Y-113977800D01*
X133431550Y-113977800D01*
X133374400Y-114034950D01*
X129753600Y-114034950D01*
X129753600Y-113056028D01*
X133374400Y-113056028D01*
X133374400Y-113565050D01*
X133431550Y-113622200D01*
X133869700Y-113622200D01*
X133869700Y-112930050D01*
X134225300Y-112930050D01*
X134225300Y-113622200D01*
X134663450Y-113622200D01*
X134720600Y-113565050D01*
X134720600Y-113056028D01*
X134685797Y-112972008D01*
X134621491Y-112907702D01*
X134537471Y-112872900D01*
X134282450Y-112872900D01*
X134225300Y-112930050D01*
X133869700Y-112930050D01*
X133812550Y-112872900D01*
X133557529Y-112872900D01*
X133473509Y-112907702D01*
X133409203Y-112972008D01*
X133374400Y-113056028D01*
X129753600Y-113056028D01*
X129753600Y-111115562D01*
X132321400Y-111115562D01*
X132321400Y-111584438D01*
X132500831Y-112017623D01*
X132832377Y-112349169D01*
X133265562Y-112528600D01*
X133734438Y-112528600D01*
X134167623Y-112349169D01*
X134499169Y-112017623D01*
X134596850Y-111781800D01*
X134943150Y-111781800D01*
X135040831Y-112017623D01*
X135372377Y-112349169D01*
X135608200Y-112446850D01*
X135608201Y-112868422D01*
X135508000Y-112868422D01*
X135418805Y-112886164D01*
X135343189Y-112936689D01*
X135292664Y-113012305D01*
X135274922Y-113101500D01*
X135274922Y-114498500D01*
X135292664Y-114587695D01*
X135343189Y-114663311D01*
X135418805Y-114713836D01*
X135508000Y-114731578D01*
X136397000Y-114731578D01*
X136486195Y-114713836D01*
X136561811Y-114663311D01*
X136612336Y-114587695D01*
X136630078Y-114498500D01*
X136630078Y-114181800D01*
X136687422Y-114181800D01*
X136687422Y-114321500D01*
X136705164Y-114410695D01*
X136755689Y-114486311D01*
X136831305Y-114536836D01*
X136920500Y-114554578D01*
X137555500Y-114554578D01*
X137644695Y-114536836D01*
X137720311Y-114486311D01*
X137770836Y-114410695D01*
X137788578Y-114321500D01*
X137788578Y-113178500D01*
X137770836Y-113089305D01*
X137720311Y-113013689D01*
X137644695Y-112963164D01*
X137555500Y-112945422D01*
X136920500Y-112945422D01*
X136831305Y-112963164D01*
X136755689Y-113013689D01*
X136705164Y-113089305D01*
X136687422Y-113178500D01*
X136687422Y-113318200D01*
X136630078Y-113318200D01*
X136630078Y-113101500D01*
X136612336Y-113012305D01*
X136561811Y-112936689D01*
X136486195Y-112886164D01*
X136471800Y-112883301D01*
X136471800Y-112446850D01*
X136707623Y-112349169D01*
X137039169Y-112017623D01*
X137218600Y-111584438D01*
X137218600Y-111115562D01*
X137039169Y-110682377D01*
X136707623Y-110350831D01*
X136274438Y-110171400D01*
X135805562Y-110171400D01*
X135372377Y-110350831D01*
X135040831Y-110682377D01*
X134943150Y-110918200D01*
X134596850Y-110918200D01*
X134499169Y-110682377D01*
X134167623Y-110350831D01*
X133734438Y-110171400D01*
X133265562Y-110171400D01*
X132832377Y-110350831D01*
X132500831Y-110682377D01*
X132321400Y-111115562D01*
X129753600Y-111115562D01*
X129753600Y-109735210D01*
X132826237Y-109735210D01*
X132945282Y-109875996D01*
X133395446Y-110007133D01*
X133861527Y-109956019D01*
X134054718Y-109875996D01*
X134173763Y-109735210D01*
X135366237Y-109735210D01*
X135485282Y-109875996D01*
X135935446Y-110007133D01*
X136401527Y-109956019D01*
X136594718Y-109875996D01*
X136713763Y-109735210D01*
X136040000Y-109061447D01*
X135366237Y-109735210D01*
X134173763Y-109735210D01*
X133500000Y-109061447D01*
X132826237Y-109735210D01*
X129753600Y-109735210D01*
X129753600Y-108705446D01*
X132302867Y-108705446D01*
X132353981Y-109171527D01*
X132434004Y-109364718D01*
X132574790Y-109483763D01*
X133248553Y-108810000D01*
X133751447Y-108810000D01*
X134425210Y-109483763D01*
X134565996Y-109364718D01*
X134697133Y-108914554D01*
X134674201Y-108705446D01*
X134842867Y-108705446D01*
X134893981Y-109171527D01*
X134974004Y-109364718D01*
X135114790Y-109483763D01*
X135788553Y-108810000D01*
X136291447Y-108810000D01*
X136965210Y-109483763D01*
X137105996Y-109364718D01*
X137237133Y-108914554D01*
X137186019Y-108448473D01*
X137105996Y-108255282D01*
X136965210Y-108136237D01*
X136291447Y-108810000D01*
X135788553Y-108810000D01*
X135114790Y-108136237D01*
X134974004Y-108255282D01*
X134842867Y-108705446D01*
X134674201Y-108705446D01*
X134646019Y-108448473D01*
X134565996Y-108255282D01*
X134425210Y-108136237D01*
X133751447Y-108810000D01*
X133248553Y-108810000D01*
X132574790Y-108136237D01*
X132434004Y-108255282D01*
X132302867Y-108705446D01*
X129753600Y-108705446D01*
X129753600Y-107884790D01*
X132826237Y-107884790D01*
X133500000Y-108558553D01*
X134173763Y-107884790D01*
X135366237Y-107884790D01*
X136040000Y-108558553D01*
X136713763Y-107884790D01*
X136594718Y-107744004D01*
X136144554Y-107612867D01*
X135678473Y-107663981D01*
X135485282Y-107744004D01*
X135366237Y-107884790D01*
X134173763Y-107884790D01*
X134054718Y-107744004D01*
X133604554Y-107612867D01*
X133138473Y-107663981D01*
X132945282Y-107744004D01*
X132826237Y-107884790D01*
X129753600Y-107884790D01*
X129753600Y-106035562D01*
X132321400Y-106035562D01*
X132321400Y-106504438D01*
X132500831Y-106937623D01*
X132832377Y-107269169D01*
X133265562Y-107448600D01*
X133734438Y-107448600D01*
X134167623Y-107269169D01*
X134499169Y-106937623D01*
X134678600Y-106504438D01*
X134678600Y-106035562D01*
X134499169Y-105602377D01*
X134167623Y-105270831D01*
X133734438Y-105091400D01*
X133265562Y-105091400D01*
X132832377Y-105270831D01*
X132500831Y-105602377D01*
X132321400Y-106035562D01*
X129753600Y-106035562D01*
X129753600Y-103495562D01*
X132321400Y-103495562D01*
X132321400Y-103964438D01*
X132500831Y-104397623D01*
X132832377Y-104729169D01*
X133265562Y-104908600D01*
X133734438Y-104908600D01*
X134167623Y-104729169D01*
X134499169Y-104397623D01*
X134678600Y-103964438D01*
X134678600Y-103495562D01*
X134499169Y-103062377D01*
X134167623Y-102730831D01*
X133734438Y-102551400D01*
X133265562Y-102551400D01*
X132832377Y-102730831D01*
X132500831Y-103062377D01*
X132321400Y-103495562D01*
X129753600Y-103495562D01*
X129753600Y-96609536D01*
X140274734Y-96609536D01*
X140274734Y-95820000D01*
X140716922Y-95820000D01*
X140716922Y-96370000D01*
X140734664Y-96459195D01*
X140785189Y-96534811D01*
X140860805Y-96585336D01*
X140950000Y-96603078D01*
X142550000Y-96603078D01*
X142639195Y-96585336D01*
X142714811Y-96534811D01*
X142765336Y-96459195D01*
X142768268Y-96444452D01*
X142919077Y-96595261D01*
X143133795Y-96684200D01*
X143366205Y-96684200D01*
X143580923Y-96595261D01*
X143745261Y-96430923D01*
X143803778Y-96289650D01*
X147221400Y-96289650D01*
X147221400Y-96415471D01*
X147256202Y-96499491D01*
X147320508Y-96563797D01*
X147404528Y-96598600D01*
X148015050Y-96598600D01*
X148072200Y-96541450D01*
X148072200Y-96232500D01*
X148427800Y-96232500D01*
X148427800Y-96541450D01*
X148484950Y-96598600D01*
X149095472Y-96598600D01*
X149179492Y-96563797D01*
X149243798Y-96499491D01*
X149278600Y-96415471D01*
X149278600Y-96289650D01*
X149221450Y-96232500D01*
X148427800Y-96232500D01*
X148072200Y-96232500D01*
X147278550Y-96232500D01*
X147221400Y-96289650D01*
X143803778Y-96289650D01*
X143834200Y-96216205D01*
X143834200Y-95983795D01*
X143747520Y-95774529D01*
X147221400Y-95774529D01*
X147221400Y-95900350D01*
X147278550Y-95957500D01*
X148072200Y-95957500D01*
X148072200Y-95648550D01*
X148427800Y-95648550D01*
X148427800Y-95957500D01*
X149221450Y-95957500D01*
X149278600Y-95900350D01*
X149278600Y-95774529D01*
X149243798Y-95690509D01*
X149179492Y-95626203D01*
X149095472Y-95591400D01*
X148484950Y-95591400D01*
X148427800Y-95648550D01*
X148072200Y-95648550D01*
X148015050Y-95591400D01*
X147404528Y-95591400D01*
X147320508Y-95626203D01*
X147256202Y-95690509D01*
X147221400Y-95774529D01*
X143747520Y-95774529D01*
X143745261Y-95769077D01*
X143580923Y-95604739D01*
X143366205Y-95515800D01*
X143133795Y-95515800D01*
X142919077Y-95604739D01*
X142769928Y-95753888D01*
X142765336Y-95730805D01*
X142714811Y-95655189D01*
X142639195Y-95604664D01*
X142550000Y-95586922D01*
X140950000Y-95586922D01*
X140860805Y-95604664D01*
X140785189Y-95655189D01*
X140734664Y-95730805D01*
X140716922Y-95820000D01*
X140274734Y-95820000D01*
X140274734Y-95143600D01*
X162423800Y-95143600D01*
X162423800Y-106134370D01*
G36*
X155075000Y-102708078D02*
X155291922Y-102708078D01*
X155291922Y-102925000D01*
X155306840Y-103000000D01*
X155291922Y-103075000D01*
X155291922Y-103325000D01*
X155306840Y-103400000D01*
X155291922Y-103475000D01*
X155291922Y-103725000D01*
X155306840Y-103800000D01*
X155291922Y-103875000D01*
X155291922Y-104125000D01*
X155306840Y-104200000D01*
X155291922Y-104275000D01*
X155291922Y-104525000D01*
X155306840Y-104600000D01*
X155291922Y-104675000D01*
X155291922Y-104925000D01*
X155306840Y-105000000D01*
X155291922Y-105075000D01*
X155291922Y-105325000D01*
X155306840Y-105400000D01*
X155291922Y-105475000D01*
X155291922Y-105725000D01*
X155306840Y-105800000D01*
X155291922Y-105875000D01*
X155291922Y-106125000D01*
X155306840Y-106200000D01*
X155291922Y-106275000D01*
X155291922Y-106525000D01*
X155306840Y-106600000D01*
X155291922Y-106675000D01*
X155291922Y-106925000D01*
X155306840Y-107000000D01*
X155291922Y-107075000D01*
X155291922Y-107291922D01*
X155075000Y-107291922D01*
X155000000Y-107306840D01*
X154925000Y-107291922D01*
X154675000Y-107291922D01*
X154600000Y-107306840D01*
X154525000Y-107291922D01*
X154275000Y-107291922D01*
X154200000Y-107306840D01*
X154125000Y-107291922D01*
X153875000Y-107291922D01*
X153800000Y-107306840D01*
X153725000Y-107291922D01*
X153475000Y-107291922D01*
X153400000Y-107306840D01*
X153325000Y-107291922D01*
X153075000Y-107291922D01*
X153000000Y-107306840D01*
X152925000Y-107291922D01*
X152675000Y-107291922D01*
X152600000Y-107306840D01*
X152525000Y-107291922D01*
X152275000Y-107291922D01*
X152200000Y-107306840D01*
X152125000Y-107291922D01*
X151875000Y-107291922D01*
X151800000Y-107306840D01*
X151725000Y-107291922D01*
X151475000Y-107291922D01*
X151400000Y-107306840D01*
X151325000Y-107291922D01*
X151075000Y-107291922D01*
X151000000Y-107306840D01*
X150925000Y-107291922D01*
X150708078Y-107291922D01*
X150708078Y-107075000D01*
X150693160Y-107000000D01*
X150708078Y-106925000D01*
X150708078Y-106675000D01*
X150693160Y-106600000D01*
X150708078Y-106525000D01*
X150708078Y-106275000D01*
X150693160Y-106200000D01*
X150708078Y-106125000D01*
X150708078Y-105984950D01*
X151271400Y-105984950D01*
X151271400Y-106545472D01*
X151306203Y-106629492D01*
X151370509Y-106693798D01*
X151454529Y-106728600D01*
X152015050Y-106728600D01*
X152072200Y-106671450D01*
X152072200Y-105927800D01*
X152427800Y-105927800D01*
X152427800Y-106671450D01*
X152484950Y-106728600D01*
X153515050Y-106728600D01*
X153572200Y-106671450D01*
X153572200Y-105927800D01*
X153927800Y-105927800D01*
X153927800Y-106671450D01*
X153984950Y-106728600D01*
X154545471Y-106728600D01*
X154629491Y-106693798D01*
X154693797Y-106629492D01*
X154728600Y-106545472D01*
X154728600Y-105984950D01*
X154671450Y-105927800D01*
X153927800Y-105927800D01*
X153572200Y-105927800D01*
X152427800Y-105927800D01*
X152072200Y-105927800D01*
X151328550Y-105927800D01*
X151271400Y-105984950D01*
X150708078Y-105984950D01*
X150708078Y-105875000D01*
X150693160Y-105800000D01*
X150708078Y-105725000D01*
X150708078Y-105475000D01*
X150693160Y-105400000D01*
X150708078Y-105325000D01*
X150708078Y-105075000D01*
X150693160Y-105000000D01*
X150708078Y-104925000D01*
X150708078Y-104675000D01*
X150693160Y-104600000D01*
X150708078Y-104525000D01*
X150708078Y-104484950D01*
X151271400Y-104484950D01*
X151271400Y-105515050D01*
X151328550Y-105572200D01*
X152072200Y-105572200D01*
X152072200Y-104427800D01*
X152427800Y-104427800D01*
X152427800Y-105572200D01*
X153572200Y-105572200D01*
X153572200Y-104427800D01*
X153927800Y-104427800D01*
X153927800Y-105572200D01*
X154671450Y-105572200D01*
X154728600Y-105515050D01*
X154728600Y-104484950D01*
X154671450Y-104427800D01*
X153927800Y-104427800D01*
X153572200Y-104427800D01*
X152427800Y-104427800D01*
X152072200Y-104427800D01*
X151328550Y-104427800D01*
X151271400Y-104484950D01*
X150708078Y-104484950D01*
X150708078Y-104275000D01*
X150693160Y-104200000D01*
X150708078Y-104125000D01*
X150708078Y-103875000D01*
X150693160Y-103800000D01*
X150708078Y-103725000D01*
X150708078Y-103475000D01*
X150704006Y-103454528D01*
X151271400Y-103454528D01*
X151271400Y-104015050D01*
X151328550Y-104072200D01*
X152072200Y-104072200D01*
X152072200Y-103328550D01*
X152427800Y-103328550D01*
X152427800Y-104072200D01*
X153572200Y-104072200D01*
X153572200Y-103328550D01*
X153927800Y-103328550D01*
X153927800Y-104072200D01*
X154671450Y-104072200D01*
X154728600Y-104015050D01*
X154728600Y-103454528D01*
X154693797Y-103370508D01*
X154629491Y-103306202D01*
X154545471Y-103271400D01*
X153984950Y-103271400D01*
X153927800Y-103328550D01*
X153572200Y-103328550D01*
X153515050Y-103271400D01*
X152484950Y-103271400D01*
X152427800Y-103328550D01*
X152072200Y-103328550D01*
X152015050Y-103271400D01*
X151454529Y-103271400D01*
X151370509Y-103306202D01*
X151306203Y-103370508D01*
X151271400Y-103454528D01*
X150704006Y-103454528D01*
X150693160Y-103400000D01*
X150708078Y-103325000D01*
X150708078Y-103075000D01*
X150693160Y-103000000D01*
X150708078Y-102925000D01*
X150708078Y-102708078D01*
X150925000Y-102708078D01*
X151000000Y-102693160D01*
X151075000Y-102708078D01*
X151325000Y-102708078D01*
X151400000Y-102693160D01*
X151475000Y-102708078D01*
X151725000Y-102708078D01*
X151800000Y-102693160D01*
X151875000Y-102708078D01*
X152125000Y-102708078D01*
X152200000Y-102693160D01*
X152275000Y-102708078D01*
X152525000Y-102708078D01*
X152600000Y-102693160D01*
X152675000Y-102708078D01*
X152925000Y-102708078D01*
X153000000Y-102693160D01*
X153075000Y-102708078D01*
X153325000Y-102708078D01*
X153400000Y-102693160D01*
X153475000Y-102708078D01*
X153725000Y-102708078D01*
X153800000Y-102693160D01*
X153875000Y-102708078D01*
X154125000Y-102708078D01*
X154200000Y-102693160D01*
X154275000Y-102708078D01*
X154525000Y-102708078D01*
X154600000Y-102693160D01*
X154675000Y-102708078D01*
X154925000Y-102708078D01*
X155000000Y-102693160D01*
X155075000Y-102708078D01*
X155075000Y-102708078D01*
G37*
X155075000Y-102708078D02*
X155291922Y-102708078D01*
X155291922Y-102925000D01*
X155306840Y-103000000D01*
X155291922Y-103075000D01*
X155291922Y-103325000D01*
X155306840Y-103400000D01*
X155291922Y-103475000D01*
X155291922Y-103725000D01*
X155306840Y-103800000D01*
X155291922Y-103875000D01*
X155291922Y-104125000D01*
X155306840Y-104200000D01*
X155291922Y-104275000D01*
X155291922Y-104525000D01*
X155306840Y-104600000D01*
X155291922Y-104675000D01*
X155291922Y-104925000D01*
X155306840Y-105000000D01*
X155291922Y-105075000D01*
X155291922Y-105325000D01*
X155306840Y-105400000D01*
X155291922Y-105475000D01*
X155291922Y-105725000D01*
X155306840Y-105800000D01*
X155291922Y-105875000D01*
X155291922Y-106125000D01*
X155306840Y-106200000D01*
X155291922Y-106275000D01*
X155291922Y-106525000D01*
X155306840Y-106600000D01*
X155291922Y-106675000D01*
X155291922Y-106925000D01*
X155306840Y-107000000D01*
X155291922Y-107075000D01*
X155291922Y-107291922D01*
X155075000Y-107291922D01*
X155000000Y-107306840D01*
X154925000Y-107291922D01*
X154675000Y-107291922D01*
X154600000Y-107306840D01*
X154525000Y-107291922D01*
X154275000Y-107291922D01*
X154200000Y-107306840D01*
X154125000Y-107291922D01*
X153875000Y-107291922D01*
X153800000Y-107306840D01*
X153725000Y-107291922D01*
X153475000Y-107291922D01*
X153400000Y-107306840D01*
X153325000Y-107291922D01*
X153075000Y-107291922D01*
X153000000Y-107306840D01*
X152925000Y-107291922D01*
X152675000Y-107291922D01*
X152600000Y-107306840D01*
X152525000Y-107291922D01*
X152275000Y-107291922D01*
X152200000Y-107306840D01*
X152125000Y-107291922D01*
X151875000Y-107291922D01*
X151800000Y-107306840D01*
X151725000Y-107291922D01*
X151475000Y-107291922D01*
X151400000Y-107306840D01*
X151325000Y-107291922D01*
X151075000Y-107291922D01*
X151000000Y-107306840D01*
X150925000Y-107291922D01*
X150708078Y-107291922D01*
X150708078Y-107075000D01*
X150693160Y-107000000D01*
X150708078Y-106925000D01*
X150708078Y-106675000D01*
X150693160Y-106600000D01*
X150708078Y-106525000D01*
X150708078Y-106275000D01*
X150693160Y-106200000D01*
X150708078Y-106125000D01*
X150708078Y-105984950D01*
X151271400Y-105984950D01*
X151271400Y-106545472D01*
X151306203Y-106629492D01*
X151370509Y-106693798D01*
X151454529Y-106728600D01*
X152015050Y-106728600D01*
X152072200Y-106671450D01*
X152072200Y-105927800D01*
X152427800Y-105927800D01*
X152427800Y-106671450D01*
X152484950Y-106728600D01*
X153515050Y-106728600D01*
X153572200Y-106671450D01*
X153572200Y-105927800D01*
X153927800Y-105927800D01*
X153927800Y-106671450D01*
X153984950Y-106728600D01*
X154545471Y-106728600D01*
X154629491Y-106693798D01*
X154693797Y-106629492D01*
X154728600Y-106545472D01*
X154728600Y-105984950D01*
X154671450Y-105927800D01*
X153927800Y-105927800D01*
X153572200Y-105927800D01*
X152427800Y-105927800D01*
X152072200Y-105927800D01*
X151328550Y-105927800D01*
X151271400Y-105984950D01*
X150708078Y-105984950D01*
X150708078Y-105875000D01*
X150693160Y-105800000D01*
X150708078Y-105725000D01*
X150708078Y-105475000D01*
X150693160Y-105400000D01*
X150708078Y-105325000D01*
X150708078Y-105075000D01*
X150693160Y-105000000D01*
X150708078Y-104925000D01*
X150708078Y-104675000D01*
X150693160Y-104600000D01*
X150708078Y-104525000D01*
X150708078Y-104484950D01*
X151271400Y-104484950D01*
X151271400Y-105515050D01*
X151328550Y-105572200D01*
X152072200Y-105572200D01*
X152072200Y-104427800D01*
X152427800Y-104427800D01*
X152427800Y-105572200D01*
X153572200Y-105572200D01*
X153572200Y-104427800D01*
X153927800Y-104427800D01*
X153927800Y-105572200D01*
X154671450Y-105572200D01*
X154728600Y-105515050D01*
X154728600Y-104484950D01*
X154671450Y-104427800D01*
X153927800Y-104427800D01*
X153572200Y-104427800D01*
X152427800Y-104427800D01*
X152072200Y-104427800D01*
X151328550Y-104427800D01*
X151271400Y-104484950D01*
X150708078Y-104484950D01*
X150708078Y-104275000D01*
X150693160Y-104200000D01*
X150708078Y-104125000D01*
X150708078Y-103875000D01*
X150693160Y-103800000D01*
X150708078Y-103725000D01*
X150708078Y-103475000D01*
X150704006Y-103454528D01*
X151271400Y-103454528D01*
X151271400Y-104015050D01*
X151328550Y-104072200D01*
X152072200Y-104072200D01*
X152072200Y-103328550D01*
X152427800Y-103328550D01*
X152427800Y-104072200D01*
X153572200Y-104072200D01*
X153572200Y-103328550D01*
X153927800Y-103328550D01*
X153927800Y-104072200D01*
X154671450Y-104072200D01*
X154728600Y-104015050D01*
X154728600Y-103454528D01*
X154693797Y-103370508D01*
X154629491Y-103306202D01*
X154545471Y-103271400D01*
X153984950Y-103271400D01*
X153927800Y-103328550D01*
X153572200Y-103328550D01*
X153515050Y-103271400D01*
X152484950Y-103271400D01*
X152427800Y-103328550D01*
X152072200Y-103328550D01*
X152015050Y-103271400D01*
X151454529Y-103271400D01*
X151370509Y-103306202D01*
X151306203Y-103370508D01*
X151271400Y-103454528D01*
X150704006Y-103454528D01*
X150693160Y-103400000D01*
X150708078Y-103325000D01*
X150708078Y-103075000D01*
X150693160Y-103000000D01*
X150708078Y-102925000D01*
X150708078Y-102708078D01*
X150925000Y-102708078D01*
X151000000Y-102693160D01*
X151075000Y-102708078D01*
X151325000Y-102708078D01*
X151400000Y-102693160D01*
X151475000Y-102708078D01*
X151725000Y-102708078D01*
X151800000Y-102693160D01*
X151875000Y-102708078D01*
X152125000Y-102708078D01*
X152200000Y-102693160D01*
X152275000Y-102708078D01*
X152525000Y-102708078D01*
X152600000Y-102693160D01*
X152675000Y-102708078D01*
X152925000Y-102708078D01*
X153000000Y-102693160D01*
X153075000Y-102708078D01*
X153325000Y-102708078D01*
X153400000Y-102693160D01*
X153475000Y-102708078D01*
X153725000Y-102708078D01*
X153800000Y-102693160D01*
X153875000Y-102708078D01*
X154125000Y-102708078D01*
X154200000Y-102693160D01*
X154275000Y-102708078D01*
X154525000Y-102708078D01*
X154600000Y-102693160D01*
X154675000Y-102708078D01*
X154925000Y-102708078D01*
X155000000Y-102693160D01*
X155075000Y-102708078D01*
G04 #@! TD*
M02*
