G04 #@! TF.GenerationSoftware,KiCad,Pcbnew,5.0.2*
G04 #@! TF.CreationDate,2020-07-22T00:18:21+02:00*
G04 #@! TF.ProjectId,pmod-wifi-esp32,706d6f64-2d77-4696-9669-2d6573703332,1*
G04 #@! TF.SameCoordinates,Original*
G04 #@! TF.FileFunction,Legend,Top*
G04 #@! TF.FilePolarity,Positive*
%FSLAX46Y46*%
G04 Gerber Fmt 4.6, Leading zero omitted, Abs format (unit mm)*
G04 Created by KiCad (PCBNEW 5.0.2) date mer. 22 juil. 2020 00:18:21 CEST*
%MOMM*%
%LPD*%
G01*
G04 APERTURE LIST*
%ADD10C,0.101600*%
%ADD11C,0.150000*%
%ADD12C,0.127000*%
%ADD13C,0.100000*%
%ADD14C,0.027940*%
G04 APERTURE END LIST*
D10*
G04 #@! TO.C,U1*
X155750000Y-108000000D02*
X155550000Y-108000000D01*
X156000000Y-107550000D02*
X156000000Y-107750000D01*
X156000000Y-102000000D02*
X155550000Y-102000000D01*
X156000000Y-102450000D02*
X156000000Y-102000000D01*
X150000000Y-102000000D02*
X150000000Y-102450000D01*
X150450000Y-102000000D02*
X150000000Y-102000000D01*
X150000000Y-108000000D02*
X150450000Y-108000000D01*
X150000000Y-107550000D02*
X150000000Y-108000000D01*
X156250000Y-108000000D02*
G75*
G03X156250000Y-108000000I-250000J0D01*
G01*
D11*
G04 #@! TO.C,P1*
X132000000Y-112620000D02*
X132000000Y-97380000D01*
X132000000Y-97380000D02*
X129460000Y-97380000D01*
X129460000Y-97380000D02*
X129460000Y-112620000D01*
X132000000Y-112620000D02*
X129460000Y-112620000D01*
D12*
G04 #@! TO.C,C4*
X159635000Y-106357000D02*
X159635000Y-108643000D01*
X159635000Y-108643000D02*
X158365000Y-108643000D01*
X158365000Y-108643000D02*
X158365000Y-106357000D01*
X158365000Y-106357000D02*
X159635000Y-106357000D01*
G04 #@! TO.C,C5*
X163885000Y-106357000D02*
X163885000Y-108643000D01*
X163885000Y-108643000D02*
X162615000Y-108643000D01*
X162615000Y-108643000D02*
X162615000Y-106357000D01*
X162615000Y-106357000D02*
X163885000Y-106357000D01*
G04 #@! TO.C,L1*
X159977000Y-107385000D02*
X159977000Y-106115000D01*
X162263000Y-107385000D02*
X159977000Y-107385000D01*
X162263000Y-106115000D02*
X162263000Y-107385000D01*
X159977000Y-106115000D02*
X162263000Y-106115000D01*
G04 #@! TO.C,C8*
X157885000Y-106543000D02*
X156615000Y-106543000D01*
X157885000Y-104257000D02*
X157885000Y-106543000D01*
X156615000Y-104257000D02*
X157885000Y-104257000D01*
X156615000Y-106543000D02*
X156615000Y-104257000D01*
G04 #@! TO.C,C9*
X160643000Y-102635000D02*
X158357000Y-102635000D01*
X158357000Y-102635000D02*
X158357000Y-101365000D01*
X158357000Y-101365000D02*
X160643000Y-101365000D01*
X160643000Y-101365000D02*
X160643000Y-102635000D01*
G04 #@! TO.C,C10*
X160643000Y-102865000D02*
X160643000Y-104135000D01*
X158357000Y-102865000D02*
X160643000Y-102865000D01*
X158357000Y-104135000D02*
X158357000Y-102865000D01*
X160643000Y-104135000D02*
X158357000Y-104135000D01*
G04 #@! TO.C,L2*
X160643000Y-105635000D02*
X158357000Y-105635000D01*
X158357000Y-105635000D02*
X158357000Y-104365000D01*
X158357000Y-104365000D02*
X160643000Y-104365000D01*
X160643000Y-104365000D02*
X160643000Y-105635000D01*
G04 #@! TO.C,C2*
X157857000Y-110385000D02*
X157857000Y-109115000D01*
X160143000Y-110385000D02*
X157857000Y-110385000D01*
X160143000Y-109115000D02*
X160143000Y-110385000D01*
X157857000Y-109115000D02*
X160143000Y-109115000D01*
G04 #@! TO.C,C3*
X157857000Y-110865000D02*
X160143000Y-110865000D01*
X160143000Y-110865000D02*
X160143000Y-112135000D01*
X160143000Y-112135000D02*
X157857000Y-112135000D01*
X157857000Y-112135000D02*
X157857000Y-110865000D01*
G04 #@! TO.C,R2*
X156615000Y-103143000D02*
X156615000Y-100857000D01*
X156615000Y-100857000D02*
X157885000Y-100857000D01*
X157885000Y-100857000D02*
X157885000Y-103143000D01*
X157885000Y-103143000D02*
X156615000Y-103143000D01*
G04 #@! TO.C,R1*
X157857000Y-112365000D02*
X160143000Y-112365000D01*
X160143000Y-112365000D02*
X160143000Y-113635000D01*
X160143000Y-113635000D02*
X157857000Y-113635000D01*
X157857000Y-113635000D02*
X157857000Y-112365000D01*
G04 #@! TO.C,C6*
X157135000Y-110607000D02*
X157135000Y-112893000D01*
X157135000Y-112893000D02*
X155865000Y-112893000D01*
X155865000Y-112893000D02*
X155865000Y-110607000D01*
X155865000Y-110607000D02*
X157135000Y-110607000D01*
G04 #@! TO.C,C7*
X151135000Y-112893000D02*
X149865000Y-112893000D01*
X151135000Y-110607000D02*
X151135000Y-112893000D01*
X149865000Y-110607000D02*
X151135000Y-110607000D01*
X149865000Y-112893000D02*
X149865000Y-110607000D01*
D13*
G04 #@! TO.C,X1*
X153100000Y-113000000D02*
X153900000Y-113000000D01*
X153100000Y-110500000D02*
X153900000Y-110500000D01*
X155100000Y-111450000D02*
X155100000Y-112050000D01*
X151900000Y-112050000D02*
X151900000Y-111450000D01*
D12*
G04 #@! TO.C,U2*
X146778000Y-100667000D02*
X146905000Y-100667000D01*
X146905000Y-100667000D02*
X146905000Y-95333000D01*
X143095000Y-95333000D02*
X143095000Y-100667000D01*
X143095000Y-100667000D02*
X146778000Y-100667000D01*
X144492000Y-100667000D02*
X144492000Y-100159000D01*
X144492000Y-100159000D02*
X145508000Y-100159000D01*
X145508000Y-100159000D02*
X145508000Y-100667000D01*
X143095000Y-95333000D02*
X146905000Y-95333000D01*
G04 #@! TO.C,C1*
X135508000Y-113038000D02*
X136524000Y-113038000D01*
X136524000Y-113038000D02*
X136524000Y-114562000D01*
X136524000Y-114562000D02*
X135508000Y-114562000D01*
X134492000Y-114562000D02*
X133476000Y-114562000D01*
X133476000Y-114562000D02*
X133476000Y-113038000D01*
X133476000Y-113038000D02*
X134492000Y-113038000D01*
G04 #@! TO.C,C11*
X140385000Y-100283000D02*
X139115000Y-100283000D01*
X140385000Y-97997000D02*
X140385000Y-100283000D01*
X139115000Y-97997000D02*
X140385000Y-97997000D01*
X139115000Y-100283000D02*
X139115000Y-97997000D01*
G04 #@! TO.C,FB1*
X136857000Y-113115000D02*
X139143000Y-113115000D01*
X139143000Y-113115000D02*
X139143000Y-114385000D01*
X139143000Y-114385000D02*
X136857000Y-114385000D01*
X136857000Y-114385000D02*
X136857000Y-113115000D01*
G04 #@! TO.C,C12*
X152165000Y-99893000D02*
X152165000Y-97607000D01*
X152165000Y-97607000D02*
X153435000Y-97607000D01*
X153435000Y-97607000D02*
X153435000Y-99893000D01*
X153435000Y-99893000D02*
X152165000Y-99893000D01*
D14*
G04 #@! TO.C,ohw_logo*
X142064900Y-109386600D02*
X142141100Y-109386600D01*
X145036700Y-109361200D02*
X145087500Y-109361200D01*
X142039500Y-109361200D02*
X142141100Y-109361200D01*
X145011300Y-109335800D02*
X145112900Y-109335800D01*
X142014100Y-109335800D02*
X142166500Y-109335800D01*
X144985900Y-109310400D02*
X145138300Y-109310400D01*
X141988700Y-109310400D02*
X142166500Y-109310400D01*
X144960500Y-109285000D02*
X145163700Y-109285000D01*
X141963300Y-109285000D02*
X142191900Y-109285000D01*
X144935100Y-109259600D02*
X145163700Y-109259600D01*
X141937900Y-109259600D02*
X142191900Y-109259600D01*
X144909700Y-109234200D02*
X145189100Y-109234200D01*
X141937900Y-109234200D02*
X142217300Y-109234200D01*
X144858900Y-109208800D02*
X145189100Y-109208800D01*
X141912500Y-109208800D02*
X142242700Y-109208800D01*
X144808100Y-109183400D02*
X145214500Y-109183400D01*
X141912500Y-109183400D02*
X142268100Y-109183400D01*
X144757300Y-109158000D02*
X145214500Y-109158000D01*
X141912500Y-109158000D02*
X142293500Y-109158000D01*
X144731900Y-109132600D02*
X145214500Y-109132600D01*
X141912500Y-109132600D02*
X142344300Y-109132600D01*
X144706500Y-109107200D02*
X145214500Y-109107200D01*
X141887100Y-109107200D02*
X142369700Y-109107200D01*
X144655700Y-109081800D02*
X145214500Y-109081800D01*
X144147700Y-109081800D02*
X144173100Y-109081800D01*
X142852300Y-109081800D02*
X142903100Y-109081800D01*
X141861700Y-109081800D02*
X142420500Y-109081800D01*
X144655700Y-109056400D02*
X145214500Y-109056400D01*
X144147700Y-109056400D02*
X144223900Y-109056400D01*
X142801500Y-109056400D02*
X142903100Y-109056400D01*
X141836300Y-109056400D02*
X142445900Y-109056400D01*
X144630300Y-109031000D02*
X145189100Y-109031000D01*
X144122300Y-109031000D02*
X144274700Y-109031000D01*
X142750700Y-109031000D02*
X142928500Y-109031000D01*
X141810900Y-109031000D02*
X142496700Y-109031000D01*
X144604900Y-109005600D02*
X145214500Y-109005600D01*
X144122300Y-109005600D02*
X144325500Y-109005600D01*
X142674500Y-109005600D02*
X142928500Y-109005600D01*
X141785500Y-109005600D02*
X142547500Y-109005600D01*
X144579500Y-108980200D02*
X145239900Y-108980200D01*
X144122300Y-108980200D02*
X144376300Y-108980200D01*
X141760100Y-108980200D02*
X142953900Y-108980200D01*
X144503300Y-108954800D02*
X145265300Y-108954800D01*
X144096900Y-108954800D02*
X144452500Y-108954800D01*
X141734700Y-108954800D02*
X142953900Y-108954800D01*
X144096900Y-108929400D02*
X145290700Y-108929400D01*
X141709300Y-108929400D02*
X142953900Y-108929400D01*
X144071500Y-108904000D02*
X145290700Y-108904000D01*
X141683900Y-108904000D02*
X142979300Y-108904000D01*
X144071500Y-108878600D02*
X145316100Y-108878600D01*
X141658500Y-108878600D02*
X142979300Y-108878600D01*
X144071500Y-108853200D02*
X145341500Y-108853200D01*
X141658500Y-108853200D02*
X142979300Y-108853200D01*
X144046100Y-108827800D02*
X145366900Y-108827800D01*
X141658500Y-108827800D02*
X143004700Y-108827800D01*
X144046100Y-108802400D02*
X145392300Y-108802400D01*
X141658500Y-108802400D02*
X143004700Y-108802400D01*
X144046100Y-108777000D02*
X145392300Y-108777000D01*
X141683900Y-108777000D02*
X143004700Y-108777000D01*
X144020700Y-108751600D02*
X145392300Y-108751600D01*
X141709300Y-108751600D02*
X143030100Y-108751600D01*
X144020700Y-108726200D02*
X145366900Y-108726200D01*
X141709300Y-108726200D02*
X143030100Y-108726200D01*
X143995300Y-108700800D02*
X145366900Y-108700800D01*
X141734700Y-108700800D02*
X143030100Y-108700800D01*
X143995300Y-108675400D02*
X145341500Y-108675400D01*
X141760100Y-108675400D02*
X143055500Y-108675400D01*
X143995300Y-108650000D02*
X145316100Y-108650000D01*
X141785500Y-108650000D02*
X143055500Y-108650000D01*
X143969900Y-108624600D02*
X145290700Y-108624600D01*
X141785500Y-108624600D02*
X143055500Y-108624600D01*
X143969900Y-108599200D02*
X145290700Y-108599200D01*
X141810900Y-108599200D02*
X143080900Y-108599200D01*
X143944500Y-108573800D02*
X145265300Y-108573800D01*
X141836300Y-108573800D02*
X143080900Y-108573800D01*
X143944500Y-108548400D02*
X145239900Y-108548400D01*
X141836300Y-108548400D02*
X143106300Y-108548400D01*
X143944500Y-108523000D02*
X145239900Y-108523000D01*
X141861700Y-108523000D02*
X143106300Y-108523000D01*
X143919100Y-108497600D02*
X145214500Y-108497600D01*
X141887100Y-108497600D02*
X143106300Y-108497600D01*
X143919100Y-108472200D02*
X145189100Y-108472200D01*
X141912500Y-108472200D02*
X143131700Y-108472200D01*
X143893700Y-108446800D02*
X145189100Y-108446800D01*
X141912500Y-108446800D02*
X143131700Y-108446800D01*
X143893700Y-108421400D02*
X145163700Y-108421400D01*
X141937900Y-108421400D02*
X143131700Y-108421400D01*
X143893700Y-108396000D02*
X145138300Y-108396000D01*
X141963300Y-108396000D02*
X143157100Y-108396000D01*
X143868300Y-108370600D02*
X145138300Y-108370600D01*
X141988700Y-108370600D02*
X143157100Y-108370600D01*
X143868300Y-108345200D02*
X145112900Y-108345200D01*
X141988700Y-108345200D02*
X143157100Y-108345200D01*
X143868300Y-108319800D02*
X145087500Y-108319800D01*
X141988700Y-108319800D02*
X143182500Y-108319800D01*
X143842900Y-108294400D02*
X145062100Y-108294400D01*
X141988700Y-108294400D02*
X143182500Y-108294400D01*
X143842900Y-108269000D02*
X145062100Y-108269000D01*
X141963300Y-108269000D02*
X143182500Y-108269000D01*
X143817500Y-108243600D02*
X145036700Y-108243600D01*
X141963300Y-108243600D02*
X143207900Y-108243600D01*
X143817500Y-108218200D02*
X145062100Y-108218200D01*
X141937900Y-108218200D02*
X143207900Y-108218200D01*
X143817500Y-108192800D02*
X145062100Y-108192800D01*
X141937900Y-108192800D02*
X143207900Y-108192800D01*
X143792100Y-108167400D02*
X145087500Y-108167400D01*
X141912500Y-108167400D02*
X143233300Y-108167400D01*
X143792100Y-108142000D02*
X145087500Y-108142000D01*
X141912500Y-108142000D02*
X143233300Y-108142000D01*
X143766700Y-108116600D02*
X145112900Y-108116600D01*
X141887100Y-108116600D02*
X143258700Y-108116600D01*
X143766700Y-108091200D02*
X145112900Y-108091200D01*
X141887100Y-108091200D02*
X143258700Y-108091200D01*
X143766700Y-108065800D02*
X145112900Y-108065800D01*
X141861700Y-108065800D02*
X143258700Y-108065800D01*
X143741300Y-108040400D02*
X145138300Y-108040400D01*
X141861700Y-108040400D02*
X143284100Y-108040400D01*
X143741300Y-108015000D02*
X145138300Y-108015000D01*
X141861700Y-108015000D02*
X143284100Y-108015000D01*
X143741300Y-107989600D02*
X145163700Y-107989600D01*
X141836300Y-107989600D02*
X143284100Y-107989600D01*
X143741300Y-107964200D02*
X145163700Y-107964200D01*
X141836300Y-107964200D02*
X143258700Y-107964200D01*
X143792100Y-107938800D02*
X145163700Y-107938800D01*
X141836300Y-107938800D02*
X143207900Y-107938800D01*
X143842900Y-107913400D02*
X145189100Y-107913400D01*
X141810900Y-107913400D02*
X143157100Y-107913400D01*
X143868300Y-107888000D02*
X145189100Y-107888000D01*
X141810900Y-107888000D02*
X143131700Y-107888000D01*
X143893700Y-107862600D02*
X145189100Y-107862600D01*
X141810900Y-107862600D02*
X143106300Y-107862600D01*
X143944500Y-107837200D02*
X145189100Y-107837200D01*
X141810900Y-107837200D02*
X143055500Y-107837200D01*
X143969900Y-107811800D02*
X145214500Y-107811800D01*
X141785500Y-107811800D02*
X143055500Y-107811800D01*
X143969900Y-107786400D02*
X145214500Y-107786400D01*
X141683900Y-107786400D02*
X143030100Y-107786400D01*
X143995300Y-107761000D02*
X145214500Y-107761000D01*
X141556900Y-107761000D02*
X143004700Y-107761000D01*
X144020700Y-107735600D02*
X145316100Y-107735600D01*
X141404500Y-107735600D02*
X142979300Y-107735600D01*
X144046100Y-107710200D02*
X145493900Y-107710200D01*
X141277500Y-107710200D02*
X142979300Y-107710200D01*
X144046100Y-107684800D02*
X145646300Y-107684800D01*
X141175900Y-107684800D02*
X142953900Y-107684800D01*
X144071500Y-107659400D02*
X145798700Y-107659400D01*
X141175900Y-107659400D02*
X142928500Y-107659400D01*
X144071500Y-107634000D02*
X145824100Y-107634000D01*
X141175900Y-107634000D02*
X142928500Y-107634000D01*
X144096900Y-107608600D02*
X145824100Y-107608600D01*
X141175900Y-107608600D02*
X142928500Y-107608600D01*
X144096900Y-107583200D02*
X145824100Y-107583200D01*
X141175900Y-107583200D02*
X142903100Y-107583200D01*
X144096900Y-107557800D02*
X145849500Y-107557800D01*
X141175900Y-107557800D02*
X142903100Y-107557800D01*
X144122300Y-107532400D02*
X145849500Y-107532400D01*
X141150500Y-107532400D02*
X142903100Y-107532400D01*
X144122300Y-107507000D02*
X145849500Y-107507000D01*
X141150500Y-107507000D02*
X142877700Y-107507000D01*
X144122300Y-107481600D02*
X145849500Y-107481600D01*
X141150500Y-107481600D02*
X142877700Y-107481600D01*
X144122300Y-107456200D02*
X145849500Y-107456200D01*
X141150500Y-107456200D02*
X142877700Y-107456200D01*
X144122300Y-107430800D02*
X145849500Y-107430800D01*
X141150500Y-107430800D02*
X142877700Y-107430800D01*
X144122300Y-107405400D02*
X145849500Y-107405400D01*
X141150500Y-107405400D02*
X142877700Y-107405400D01*
X144122300Y-107380000D02*
X145849500Y-107380000D01*
X141150500Y-107380000D02*
X142877700Y-107380000D01*
X144122300Y-107354600D02*
X145849500Y-107354600D01*
X141150500Y-107354600D02*
X142877700Y-107354600D01*
X144122300Y-107329200D02*
X145849500Y-107329200D01*
X141150500Y-107329200D02*
X142877700Y-107329200D01*
X144122300Y-107303800D02*
X145849500Y-107303800D01*
X141175900Y-107303800D02*
X142877700Y-107303800D01*
X144122300Y-107278400D02*
X145824100Y-107278400D01*
X141175900Y-107278400D02*
X142877700Y-107278400D01*
X144122300Y-107253000D02*
X145824100Y-107253000D01*
X141175900Y-107253000D02*
X142903100Y-107253000D01*
X144096900Y-107227600D02*
X145824100Y-107227600D01*
X141175900Y-107227600D02*
X142903100Y-107227600D01*
X144096900Y-107202200D02*
X145824100Y-107202200D01*
X141175900Y-107202200D02*
X142903100Y-107202200D01*
X144096900Y-107176800D02*
X145824100Y-107176800D01*
X141175900Y-107176800D02*
X142903100Y-107176800D01*
X144071500Y-107151400D02*
X145824100Y-107151400D01*
X141175900Y-107151400D02*
X142928500Y-107151400D01*
X144071500Y-107126000D02*
X145824100Y-107126000D01*
X141175900Y-107126000D02*
X142928500Y-107126000D01*
X144046100Y-107100600D02*
X145824100Y-107100600D01*
X141175900Y-107100600D02*
X142953900Y-107100600D01*
X144046100Y-107075200D02*
X145824100Y-107075200D01*
X141201300Y-107075200D02*
X142953900Y-107075200D01*
X144020700Y-107049800D02*
X145798700Y-107049800D01*
X141328300Y-107049800D02*
X142979300Y-107049800D01*
X143995300Y-107024400D02*
X145798700Y-107024400D01*
X141480700Y-107024400D02*
X143004700Y-107024400D01*
X143995300Y-106999000D02*
X145697100Y-106999000D01*
X141633100Y-106999000D02*
X143004700Y-106999000D01*
X143969900Y-106973600D02*
X145544700Y-106973600D01*
X141785500Y-106973600D02*
X143030100Y-106973600D01*
X143944500Y-106948200D02*
X145417700Y-106948200D01*
X141810900Y-106948200D02*
X143055500Y-106948200D01*
X143919100Y-106922800D02*
X145265300Y-106922800D01*
X141810900Y-106922800D02*
X143080900Y-106922800D01*
X143893700Y-106897400D02*
X145189100Y-106897400D01*
X141810900Y-106897400D02*
X143106300Y-106897400D01*
X143842900Y-106872000D02*
X145163700Y-106872000D01*
X141836300Y-106872000D02*
X143157100Y-106872000D01*
X143817500Y-106846600D02*
X145163700Y-106846600D01*
X141836300Y-106846600D02*
X143182500Y-106846600D01*
X143766700Y-106821200D02*
X145163700Y-106821200D01*
X141836300Y-106821200D02*
X143233300Y-106821200D01*
X143690500Y-106795800D02*
X145138300Y-106795800D01*
X141861700Y-106795800D02*
X143309500Y-106795800D01*
X143614300Y-106770400D02*
X145138300Y-106770400D01*
X141861700Y-106770400D02*
X143385700Y-106770400D01*
X141861700Y-106745000D02*
X145112900Y-106745000D01*
X141887100Y-106719600D02*
X145112900Y-106719600D01*
X141887100Y-106694200D02*
X145112900Y-106694200D01*
X141912500Y-106668800D02*
X145087500Y-106668800D01*
X141912500Y-106643400D02*
X145087500Y-106643400D01*
X141937900Y-106618000D02*
X145062100Y-106618000D01*
X141937900Y-106592600D02*
X145062100Y-106592600D01*
X141963300Y-106567200D02*
X145036700Y-106567200D01*
X141963300Y-106541800D02*
X145036700Y-106541800D01*
X141988700Y-106516400D02*
X145011300Y-106516400D01*
X141988700Y-106491000D02*
X144985900Y-106491000D01*
X141988700Y-106465600D02*
X144985900Y-106465600D01*
X141963300Y-106440200D02*
X145011300Y-106440200D01*
X141963300Y-106414800D02*
X145011300Y-106414800D01*
X141937900Y-106389400D02*
X145036700Y-106389400D01*
X141912500Y-106364000D02*
X145062100Y-106364000D01*
X141912500Y-106338600D02*
X145087500Y-106338600D01*
X141887100Y-106313200D02*
X145087500Y-106313200D01*
X141861700Y-106287800D02*
X145112900Y-106287800D01*
X141861700Y-106262400D02*
X145138300Y-106262400D01*
X141836300Y-106237000D02*
X145163700Y-106237000D01*
X141810900Y-106211600D02*
X145163700Y-106211600D01*
X141810900Y-106186200D02*
X145189100Y-106186200D01*
X141785500Y-106160800D02*
X145214500Y-106160800D01*
X141760100Y-106135400D02*
X145214500Y-106135400D01*
X141734700Y-106110000D02*
X145239900Y-106110000D01*
X141734700Y-106084600D02*
X145265300Y-106084600D01*
X141709300Y-106059200D02*
X145290700Y-106059200D01*
X141683900Y-106033800D02*
X145290700Y-106033800D01*
X141683900Y-106008400D02*
X145316100Y-106008400D01*
X141658500Y-105983000D02*
X145316100Y-105983000D01*
X141658500Y-105957600D02*
X145316100Y-105957600D01*
X141683900Y-105932200D02*
X145316100Y-105932200D01*
X141683900Y-105906800D02*
X145290700Y-105906800D01*
X142623700Y-105881400D02*
X145290700Y-105881400D01*
X141709300Y-105881400D02*
X142598300Y-105881400D01*
X144376300Y-105856000D02*
X145265300Y-105856000D01*
X142674500Y-105856000D02*
X144325500Y-105856000D01*
X141734700Y-105856000D02*
X142572900Y-105856000D01*
X144427100Y-105830600D02*
X145239900Y-105830600D01*
X142725300Y-105830600D02*
X144274700Y-105830600D01*
X141760100Y-105830600D02*
X142522100Y-105830600D01*
X144452500Y-105805200D02*
X145214500Y-105805200D01*
X142776100Y-105805200D02*
X144223900Y-105805200D01*
X141785500Y-105805200D02*
X142496700Y-105805200D01*
X144477900Y-105779800D02*
X145189100Y-105779800D01*
X142826900Y-105779800D02*
X144147700Y-105779800D01*
X141810900Y-105779800D02*
X142471300Y-105779800D01*
X144528700Y-105754400D02*
X145163700Y-105754400D01*
X142903100Y-105754400D02*
X144096900Y-105754400D01*
X141836300Y-105754400D02*
X142420500Y-105754400D01*
X144554100Y-105729000D02*
X145138300Y-105729000D01*
X142979300Y-105729000D02*
X144020700Y-105729000D01*
X141861700Y-105729000D02*
X142395100Y-105729000D01*
X144604900Y-105703600D02*
X145112900Y-105703600D01*
X143055500Y-105703600D02*
X143919100Y-105703600D01*
X141887100Y-105703600D02*
X142344300Y-105703600D01*
X144630300Y-105678200D02*
X145087500Y-105678200D01*
X143080900Y-105678200D02*
X143919100Y-105678200D01*
X141912500Y-105678200D02*
X142318900Y-105678200D01*
X144681100Y-105652800D02*
X145062100Y-105652800D01*
X143080900Y-105652800D02*
X143919100Y-105652800D01*
X141937900Y-105652800D02*
X142293500Y-105652800D01*
X144706500Y-105627400D02*
X145036700Y-105627400D01*
X143080900Y-105627400D02*
X143919100Y-105627400D01*
X141963300Y-105627400D02*
X142242700Y-105627400D01*
X144757300Y-105602000D02*
X144985900Y-105602000D01*
X143080900Y-105602000D02*
X143893700Y-105602000D01*
X142014100Y-105602000D02*
X142217300Y-105602000D01*
X144782700Y-105576600D02*
X144960500Y-105576600D01*
X143080900Y-105576600D02*
X143893700Y-105576600D01*
X142039500Y-105576600D02*
X142166500Y-105576600D01*
X144833500Y-105551200D02*
X144935100Y-105551200D01*
X143106300Y-105551200D02*
X143893700Y-105551200D01*
X142064900Y-105551200D02*
X142141100Y-105551200D01*
X143106300Y-105525800D02*
X143893700Y-105525800D01*
X143106300Y-105500400D02*
X143893700Y-105500400D01*
X143106300Y-105475000D02*
X143893700Y-105475000D01*
X143106300Y-105449600D02*
X143893700Y-105449600D01*
X143106300Y-105424200D02*
X143868300Y-105424200D01*
X143131700Y-105398800D02*
X143868300Y-105398800D01*
X143131700Y-105373400D02*
X143868300Y-105373400D01*
X143131700Y-105348000D02*
X143868300Y-105348000D01*
X143131700Y-105322600D02*
X143868300Y-105322600D01*
X143131700Y-105297200D02*
X143868300Y-105297200D01*
X143157100Y-105271800D02*
X143842900Y-105271800D01*
X143157100Y-105246400D02*
X143842900Y-105246400D01*
X143157100Y-105221000D02*
X143842900Y-105221000D01*
X143157100Y-105195600D02*
X143842900Y-105195600D01*
X143157100Y-105170200D02*
X143842900Y-105170200D01*
X143157100Y-105144800D02*
X143842900Y-105144800D01*
X143182500Y-105119400D02*
X143817500Y-105119400D01*
X143182500Y-105094000D02*
X143817500Y-105094000D01*
X143334900Y-105068600D02*
X143588900Y-105068600D01*
G04 #@! TO.C,agilack-11.5*
X140108720Y-107727160D02*
X140108720Y-107346160D01*
X140083320Y-107752560D02*
X140083320Y-107371560D01*
X140057920Y-107752560D02*
X140057920Y-107371560D01*
X140032520Y-107777960D02*
X140032520Y-107396960D01*
X140007120Y-107777960D02*
X140007120Y-107396960D01*
X139981720Y-107803360D02*
X139981720Y-107422360D01*
X139956320Y-107803360D02*
X139956320Y-107422360D01*
X139930920Y-107828760D02*
X139930920Y-107447760D01*
X139905520Y-107828760D02*
X139905520Y-107447760D01*
X139905520Y-109682960D02*
X139905520Y-108209760D01*
X139880120Y-107854160D02*
X139880120Y-107473160D01*
X139880120Y-109682960D02*
X139880120Y-108209760D01*
X139880120Y-112197560D02*
X139880120Y-110546560D01*
X139854720Y-107854160D02*
X139854720Y-107473160D01*
X139854720Y-109682960D02*
X139854720Y-108209760D01*
X139854720Y-112197560D02*
X139854720Y-110521160D01*
X139829320Y-107879560D02*
X139829320Y-107498560D01*
X139829320Y-109682960D02*
X139829320Y-108209760D01*
X139829320Y-112197560D02*
X139829320Y-110495760D01*
X139803920Y-107879560D02*
X139803920Y-107498560D01*
X139803920Y-109682960D02*
X139803920Y-108209760D01*
X139803920Y-112146760D02*
X139803920Y-110470360D01*
X139778520Y-107904960D02*
X139778520Y-107523960D01*
X139778520Y-109682960D02*
X139778520Y-108209760D01*
X139778520Y-112121360D02*
X139778520Y-110444960D01*
X139753120Y-107904960D02*
X139753120Y-107549360D01*
X139753120Y-109682960D02*
X139753120Y-108209760D01*
X139753120Y-112095960D02*
X139753120Y-110419560D01*
X139727720Y-107930360D02*
X139727720Y-107549360D01*
X139727720Y-109682960D02*
X139727720Y-108209760D01*
X139727720Y-112070560D02*
X139727720Y-110394160D01*
X139702320Y-107930360D02*
X139702320Y-107574760D01*
X139702320Y-109682960D02*
X139702320Y-108209760D01*
X139702320Y-112045160D02*
X139702320Y-110368760D01*
X139676920Y-107955760D02*
X139676920Y-107574760D01*
X139676920Y-109682960D02*
X139676920Y-108209760D01*
X139676920Y-112019760D02*
X139676920Y-110343360D01*
X139676920Y-112197560D02*
X139676920Y-112172160D01*
X139651520Y-107955760D02*
X139651520Y-107600160D01*
X139651520Y-111994360D02*
X139651520Y-110317960D01*
X139651520Y-112197560D02*
X139651520Y-112146760D01*
X139626120Y-107244560D02*
X139626120Y-106812760D01*
X139626120Y-107981160D02*
X139626120Y-107600160D01*
X139626120Y-111968960D02*
X139626120Y-110292560D01*
X139626120Y-112197560D02*
X139626120Y-112121360D01*
X139600720Y-103180560D02*
X139600720Y-102748760D01*
X139600720Y-107320760D02*
X139600720Y-106736560D01*
X139600720Y-107981160D02*
X139600720Y-107625560D01*
X139600720Y-111943560D02*
X139600720Y-110267160D01*
X139600720Y-112197560D02*
X139600720Y-112095960D01*
X139575320Y-101351760D02*
X139575320Y-100996160D01*
X139575320Y-102164560D02*
X139575320Y-101910560D01*
X139575320Y-103256760D02*
X139575320Y-102647160D01*
X139575320Y-103967960D02*
X139575320Y-103688560D01*
X139575320Y-105745960D02*
X139575320Y-104704560D01*
X139575320Y-106177760D02*
X139575320Y-105923760D01*
X139575320Y-107396960D02*
X139575320Y-106660360D01*
X139575320Y-108006560D02*
X139575320Y-107625560D01*
X139575320Y-111918160D02*
X139575320Y-110241760D01*
X139575320Y-112197560D02*
X139575320Y-112070560D01*
X139549920Y-101377160D02*
X139549920Y-101021560D01*
X139549920Y-102164560D02*
X139549920Y-101910560D01*
X139549920Y-103332960D02*
X139549920Y-102570960D01*
X139549920Y-103993360D02*
X139549920Y-103713960D01*
X139549920Y-105745960D02*
X139549920Y-104704560D01*
X139549920Y-106177760D02*
X139549920Y-105923760D01*
X139549920Y-107447760D02*
X139549920Y-106609560D01*
X139549920Y-108006560D02*
X139549920Y-107650960D01*
X139549920Y-111892760D02*
X139549920Y-110216360D01*
X139549920Y-112197560D02*
X139549920Y-112045160D01*
X139549920Y-112451560D02*
X139549920Y-112375360D01*
X139524520Y-101402560D02*
X139524520Y-101046960D01*
X139524520Y-102164560D02*
X139524520Y-101910560D01*
X139524520Y-103358360D02*
X139524520Y-102494760D01*
X139524520Y-103993360D02*
X139524520Y-103713960D01*
X139524520Y-105745960D02*
X139524520Y-104679160D01*
X139524520Y-106177760D02*
X139524520Y-105923760D01*
X139524520Y-107473160D02*
X139524520Y-106584160D01*
X139524520Y-108031960D02*
X139524520Y-107650960D01*
X139524520Y-111867360D02*
X139524520Y-110190960D01*
X139524520Y-112197560D02*
X139524520Y-112019760D01*
X139524520Y-112451560D02*
X139524520Y-112349960D01*
X139499120Y-101427960D02*
X139499120Y-101072360D01*
X139499120Y-102164560D02*
X139499120Y-101910560D01*
X139499120Y-103409160D02*
X139499120Y-102494760D01*
X139499120Y-104018760D02*
X139499120Y-103713960D01*
X139499120Y-105745960D02*
X139499120Y-104679160D01*
X139499120Y-106177760D02*
X139499120Y-105923760D01*
X139499120Y-107498560D02*
X139499120Y-106533360D01*
X139499120Y-108031960D02*
X139499120Y-107676360D01*
X139499120Y-109403560D02*
X139499120Y-108209760D01*
X139499120Y-111841960D02*
X139499120Y-110165560D01*
X139499120Y-112197560D02*
X139499120Y-111994360D01*
X139499120Y-112451560D02*
X139499120Y-112324560D01*
X139473720Y-101453360D02*
X139473720Y-101097760D01*
X139473720Y-102164560D02*
X139473720Y-101910560D01*
X139473720Y-103434560D02*
X139473720Y-102520160D01*
X139473720Y-104018760D02*
X139473720Y-103739360D01*
X139473720Y-105745960D02*
X139473720Y-104679160D01*
X139473720Y-106177760D02*
X139473720Y-105923760D01*
X139473720Y-107549360D02*
X139473720Y-106507960D01*
X139473720Y-108057360D02*
X139473720Y-107676360D01*
X139473720Y-109403560D02*
X139473720Y-108209760D01*
X139473720Y-111816560D02*
X139473720Y-110140160D01*
X139473720Y-112146760D02*
X139473720Y-111968960D01*
X139473720Y-112451560D02*
X139473720Y-112299160D01*
X139448320Y-101478760D02*
X139448320Y-101097760D01*
X139448320Y-102164560D02*
X139448320Y-101910560D01*
X139448320Y-103485360D02*
X139448320Y-102520160D01*
X139448320Y-104018760D02*
X139448320Y-103739360D01*
X139448320Y-105745960D02*
X139448320Y-104653760D01*
X139448320Y-106177760D02*
X139448320Y-105923760D01*
X139448320Y-107549360D02*
X139448320Y-106482560D01*
X139448320Y-108057360D02*
X139448320Y-107701760D01*
X139448320Y-109403560D02*
X139448320Y-108209760D01*
X139448320Y-111791160D02*
X139448320Y-110140160D01*
X139448320Y-112121360D02*
X139448320Y-111943560D01*
X139448320Y-112451560D02*
X139448320Y-112273760D01*
X139422920Y-101478760D02*
X139422920Y-101123160D01*
X139422920Y-102164560D02*
X139422920Y-101910560D01*
X139422920Y-103510760D02*
X139422920Y-102520160D01*
X139422920Y-104044160D02*
X139422920Y-103739360D01*
X139422920Y-105745960D02*
X139422920Y-104653760D01*
X139422920Y-106177760D02*
X139422920Y-105923760D01*
X139422920Y-107574760D02*
X139422920Y-106482560D01*
X139422920Y-108082760D02*
X139422920Y-107701760D01*
X139422920Y-109378160D02*
X139422920Y-108235160D01*
X139422920Y-111765760D02*
X139422920Y-110140160D01*
X139422920Y-112095960D02*
X139422920Y-111918160D01*
X139422920Y-112451560D02*
X139422920Y-112273760D01*
X139397520Y-101504160D02*
X139397520Y-101148560D01*
X139397520Y-102164560D02*
X139397520Y-101910560D01*
X139397520Y-103536160D02*
X139397520Y-102545560D01*
X139397520Y-104044160D02*
X139397520Y-103764760D01*
X139397520Y-105745960D02*
X139397520Y-104653760D01*
X139397520Y-106177760D02*
X139397520Y-105923760D01*
X139397520Y-107600160D02*
X139397520Y-106482560D01*
X139397520Y-108082760D02*
X139397520Y-107727160D01*
X139397520Y-109378160D02*
X139397520Y-108235160D01*
X139397520Y-111740360D02*
X139397520Y-110140160D01*
X139397520Y-112070560D02*
X139397520Y-111892760D01*
X139397520Y-112451560D02*
X139397520Y-112273760D01*
X139372120Y-101529560D02*
X139372120Y-101173960D01*
X139372120Y-102164560D02*
X139372120Y-101910560D01*
X139372120Y-103536160D02*
X139372120Y-102545560D01*
X139372120Y-104069560D02*
X139372120Y-103764760D01*
X139372120Y-105745960D02*
X139372120Y-104628360D01*
X139372120Y-106177760D02*
X139372120Y-105923760D01*
X139372120Y-106863560D02*
X139372120Y-106482560D01*
X139372120Y-107625560D02*
X139372120Y-107142960D01*
X139372120Y-108108160D02*
X139372120Y-107727160D01*
X139372120Y-109352760D02*
X139372120Y-108260560D01*
X139372120Y-111714960D02*
X139372120Y-110140160D01*
X139372120Y-112045160D02*
X139372120Y-111867360D01*
X139372120Y-112451560D02*
X139372120Y-112273760D01*
X139346720Y-101554960D02*
X139346720Y-101199360D01*
X139346720Y-102164560D02*
X139346720Y-101910560D01*
X139346720Y-102748760D02*
X139346720Y-102570960D01*
X139346720Y-103561560D02*
X139346720Y-103078960D01*
X139346720Y-104069560D02*
X139346720Y-103764760D01*
X139346720Y-104907760D02*
X139346720Y-104628360D01*
X139346720Y-105745960D02*
X139346720Y-105491960D01*
X139346720Y-106177760D02*
X139346720Y-105923760D01*
X139346720Y-106787360D02*
X139346720Y-106482560D01*
X139346720Y-107650960D02*
X139346720Y-107219160D01*
X139346720Y-108108160D02*
X139346720Y-107752560D01*
X139346720Y-109352760D02*
X139346720Y-108260560D01*
X139346720Y-111689560D02*
X139346720Y-110140160D01*
X139346720Y-112019760D02*
X139346720Y-111841960D01*
X139346720Y-112451560D02*
X139346720Y-112273760D01*
X139321320Y-101580360D02*
X139321320Y-101224760D01*
X139321320Y-102164560D02*
X139321320Y-101910560D01*
X139321320Y-102672560D02*
X139321320Y-102570960D01*
X139321320Y-103586960D02*
X139321320Y-103155160D01*
X139321320Y-104069560D02*
X139321320Y-103790160D01*
X139321320Y-104882360D02*
X139321320Y-104602960D01*
X139321320Y-105745960D02*
X139321320Y-105491960D01*
X139321320Y-106177760D02*
X139321320Y-105923760D01*
X139321320Y-106761960D02*
X139321320Y-106482560D01*
X139321320Y-107650960D02*
X139321320Y-107269960D01*
X139321320Y-108133560D02*
X139321320Y-107752560D01*
X139321320Y-109327360D02*
X139321320Y-108285960D01*
X139321320Y-111664160D02*
X139321320Y-110140160D01*
X139321320Y-111994360D02*
X139321320Y-111816560D01*
X139321320Y-112197560D02*
X139321320Y-112146760D01*
X139321320Y-112451560D02*
X139321320Y-112273760D01*
X139295920Y-101605760D02*
X139295920Y-101250160D01*
X139295920Y-102164560D02*
X139295920Y-101910560D01*
X139295920Y-103586960D02*
X139295920Y-103205960D01*
X139295920Y-104094960D02*
X139295920Y-103790160D01*
X139295920Y-104882360D02*
X139295920Y-104602960D01*
X139295920Y-105745960D02*
X139295920Y-105491960D01*
X139295920Y-106177760D02*
X139295920Y-105923760D01*
X139295920Y-106736560D02*
X139295920Y-106482560D01*
X139295920Y-107676360D02*
X139295920Y-107295360D01*
X139295920Y-108133560D02*
X139295920Y-107777960D01*
X139295920Y-109327360D02*
X139295920Y-108285960D01*
X139295920Y-111638760D02*
X139295920Y-110140160D01*
X139295920Y-111968960D02*
X139295920Y-111791160D01*
X139295920Y-112197560D02*
X139295920Y-112121360D01*
X139295920Y-112451560D02*
X139295920Y-112273760D01*
X139270520Y-101631160D02*
X139270520Y-101275560D01*
X139270520Y-102164560D02*
X139270520Y-101910560D01*
X139270520Y-103612360D02*
X139270520Y-103231360D01*
X139270520Y-104094960D02*
X139270520Y-103815560D01*
X139270520Y-104882360D02*
X139270520Y-104602960D01*
X139270520Y-105745960D02*
X139270520Y-105491960D01*
X139270520Y-106177760D02*
X139270520Y-105923760D01*
X139270520Y-106736560D02*
X139270520Y-106482560D01*
X139270520Y-107676360D02*
X139270520Y-107320760D01*
X139270520Y-108158960D02*
X139270520Y-107777960D01*
X139270520Y-109301960D02*
X139270520Y-108311360D01*
X139270520Y-111130760D02*
X139270520Y-110140160D01*
X139270520Y-111613360D02*
X139270520Y-111232360D01*
X139270520Y-111943560D02*
X139270520Y-111765760D01*
X139270520Y-112197560D02*
X139270520Y-112095960D01*
X139270520Y-112451560D02*
X139270520Y-112273760D01*
X139245120Y-101656560D02*
X139245120Y-101300960D01*
X139245120Y-102164560D02*
X139245120Y-101910560D01*
X139245120Y-103637760D02*
X139245120Y-103256760D01*
X139245120Y-104094960D02*
X139245120Y-103815560D01*
X139245120Y-104856960D02*
X139245120Y-104577560D01*
X139245120Y-105745960D02*
X139245120Y-105491960D01*
X139245120Y-106177760D02*
X139245120Y-105923760D01*
X139245120Y-106736560D02*
X139245120Y-106482560D01*
X139245120Y-107701760D02*
X139245120Y-107346160D01*
X139245120Y-108158960D02*
X139245120Y-107803360D01*
X139245120Y-109301960D02*
X139245120Y-108311360D01*
X139245120Y-111029160D02*
X139245120Y-110140160D01*
X139245120Y-111587960D02*
X139245120Y-111308560D01*
X139245120Y-111918160D02*
X139245120Y-111740360D01*
X139245120Y-112197560D02*
X139245120Y-112070560D01*
X139245120Y-112451560D02*
X139245120Y-112273760D01*
X139219720Y-101656560D02*
X139219720Y-101326360D01*
X139219720Y-102164560D02*
X139219720Y-101910560D01*
X139219720Y-103637760D02*
X139219720Y-103282160D01*
X139219720Y-104856960D02*
X139219720Y-103815560D01*
X139219720Y-105745960D02*
X139219720Y-105491960D01*
X139219720Y-106177760D02*
X139219720Y-105923760D01*
X139219720Y-106736560D02*
X139219720Y-106482560D01*
X139219720Y-107701760D02*
X139219720Y-107371560D01*
X139219720Y-108184360D02*
X139219720Y-107803360D01*
X139219720Y-109276560D02*
X139219720Y-108336760D01*
X139219720Y-110978360D02*
X139219720Y-110140160D01*
X139219720Y-111562560D02*
X139219720Y-111384760D01*
X139219720Y-111892760D02*
X139219720Y-111714960D01*
X139219720Y-112197560D02*
X139219720Y-112045160D01*
X139219720Y-112451560D02*
X139219720Y-112273760D01*
X139194320Y-101681960D02*
X139194320Y-101326360D01*
X139194320Y-102164560D02*
X139194320Y-101910560D01*
X139194320Y-103637760D02*
X139194320Y-103307560D01*
X139194320Y-104831560D02*
X139194320Y-103840960D01*
X139194320Y-105745960D02*
X139194320Y-105491960D01*
X139194320Y-106177760D02*
X139194320Y-105923760D01*
X139194320Y-106736560D02*
X139194320Y-106482560D01*
X139194320Y-107727160D02*
X139194320Y-107396960D01*
X139194320Y-108184360D02*
X139194320Y-107828760D01*
X139194320Y-109276560D02*
X139194320Y-108336760D01*
X139194320Y-110952960D02*
X139194320Y-110140160D01*
X139194320Y-111537160D02*
X139194320Y-111410160D01*
X139194320Y-111867360D02*
X139194320Y-111689560D01*
X139194320Y-112197560D02*
X139194320Y-112019760D01*
X139194320Y-112451560D02*
X139194320Y-112273760D01*
X139168920Y-101707360D02*
X139168920Y-101351760D01*
X139168920Y-102164560D02*
X139168920Y-101910560D01*
X139168920Y-103663160D02*
X139168920Y-103332960D01*
X139168920Y-104831560D02*
X139168920Y-103840960D01*
X139168920Y-105745960D02*
X139168920Y-105491960D01*
X139168920Y-106177760D02*
X139168920Y-105923760D01*
X139168920Y-106736560D02*
X139168920Y-106482560D01*
X139168920Y-107727160D02*
X139168920Y-107396960D01*
X139168920Y-108209760D02*
X139168920Y-107828760D01*
X139168920Y-109251160D02*
X139168920Y-108870160D01*
X139168920Y-110902160D02*
X139168920Y-110140160D01*
X139168920Y-111511760D02*
X139168920Y-111435560D01*
X139168920Y-111841960D02*
X139168920Y-111664160D01*
X139168920Y-112197560D02*
X139168920Y-111994360D01*
X139168920Y-112451560D02*
X139168920Y-112273760D01*
X139143520Y-101732760D02*
X139143520Y-101377160D01*
X139143520Y-102164560D02*
X139143520Y-101910560D01*
X139143520Y-103663160D02*
X139143520Y-103358360D01*
X139143520Y-104831560D02*
X139143520Y-103840960D01*
X139143520Y-105745960D02*
X139143520Y-105491960D01*
X139143520Y-106177760D02*
X139143520Y-105923760D01*
X139143520Y-106736560D02*
X139143520Y-106482560D01*
X139143520Y-107727160D02*
X139143520Y-107422360D01*
X139143520Y-108209760D02*
X139143520Y-107854160D01*
X139143520Y-109251160D02*
X139143520Y-108870160D01*
X139143520Y-110876760D02*
X139143520Y-110140160D01*
X139143520Y-111206960D02*
X139143520Y-111156160D01*
X139143520Y-111486360D02*
X139143520Y-111460960D01*
X139143520Y-111816560D02*
X139143520Y-111638760D01*
X139143520Y-112197560D02*
X139143520Y-111968960D01*
X139143520Y-112451560D02*
X139143520Y-112273760D01*
X139118120Y-101758160D02*
X139118120Y-101402560D01*
X139118120Y-102164560D02*
X139118120Y-101910560D01*
X139118120Y-103663160D02*
X139118120Y-103358360D01*
X139118120Y-104806160D02*
X139118120Y-103866360D01*
X139118120Y-105745960D02*
X139118120Y-105491960D01*
X139118120Y-106177760D02*
X139118120Y-105923760D01*
X139118120Y-106736560D02*
X139118120Y-106482560D01*
X139118120Y-107727160D02*
X139118120Y-107447760D01*
X139118120Y-108235160D02*
X139118120Y-107854160D01*
X139118120Y-109225760D02*
X139118120Y-108844760D01*
X139118120Y-110876760D02*
X139118120Y-110140160D01*
X139118120Y-111283160D02*
X139118120Y-111054560D01*
X139118120Y-111791160D02*
X139118120Y-111613360D01*
X139118120Y-112197560D02*
X139118120Y-111968960D01*
X139118120Y-112451560D02*
X139118120Y-112273760D01*
X139092720Y-101783560D02*
X139092720Y-101427960D01*
X139092720Y-102164560D02*
X139092720Y-101910560D01*
X139092720Y-103688560D02*
X139092720Y-103383760D01*
X139092720Y-104806160D02*
X139092720Y-103866360D01*
X139092720Y-105745960D02*
X139092720Y-105491960D01*
X139092720Y-106177760D02*
X139092720Y-105923760D01*
X139092720Y-106736560D02*
X139092720Y-106482560D01*
X139092720Y-107752560D02*
X139092720Y-107447760D01*
X139092720Y-108235160D02*
X139092720Y-107879560D01*
X139092720Y-109225760D02*
X139092720Y-108844760D01*
X139092720Y-110851360D02*
X139092720Y-110140160D01*
X139092720Y-111333960D02*
X139092720Y-111029160D01*
X139092720Y-111765760D02*
X139092720Y-111587960D01*
X139092720Y-112197560D02*
X139092720Y-111943560D01*
X139092720Y-112451560D02*
X139092720Y-112273760D01*
X139067320Y-101808960D02*
X139067320Y-101453360D01*
X139067320Y-102164560D02*
X139067320Y-101910560D01*
X139067320Y-103688560D02*
X139067320Y-103383760D01*
X139067320Y-104806160D02*
X139067320Y-103891760D01*
X139067320Y-105745960D02*
X139067320Y-105491960D01*
X139067320Y-106177760D02*
X139067320Y-105923760D01*
X139067320Y-106736560D02*
X139067320Y-106482560D01*
X139067320Y-107752560D02*
X139067320Y-107447760D01*
X139067320Y-108260560D02*
X139067320Y-107879560D01*
X139067320Y-109200360D02*
X139067320Y-108819360D01*
X139067320Y-110825960D02*
X139067320Y-110140160D01*
X139067320Y-111359360D02*
X139067320Y-110978360D01*
X139067320Y-111740360D02*
X139067320Y-111562560D01*
X139067320Y-112197560D02*
X139067320Y-111918160D01*
X139067320Y-112451560D02*
X139067320Y-112273760D01*
X139041920Y-101808960D02*
X139041920Y-101478760D01*
X139041920Y-102164560D02*
X139041920Y-101910560D01*
X139041920Y-103688560D02*
X139041920Y-103383760D01*
X139041920Y-104780760D02*
X139041920Y-103891760D01*
X139041920Y-105745960D02*
X139041920Y-105491960D01*
X139041920Y-106177760D02*
X139041920Y-105923760D01*
X139041920Y-107117560D02*
X139041920Y-106482560D01*
X139041920Y-107752560D02*
X139041920Y-107473160D01*
X139041920Y-108260560D02*
X139041920Y-107904960D01*
X139041920Y-109200360D02*
X139041920Y-108819360D01*
X139041920Y-110800560D02*
X139041920Y-110140160D01*
X139041920Y-111384760D02*
X139041920Y-110978360D01*
X139041920Y-111714960D02*
X139041920Y-111562560D01*
X139041920Y-112197560D02*
X139041920Y-111892760D01*
X139041920Y-112451560D02*
X139041920Y-112273760D01*
X139016520Y-101834360D02*
X139016520Y-101504160D01*
X139016520Y-102164560D02*
X139016520Y-101910560D01*
X139016520Y-103688560D02*
X139016520Y-103409160D01*
X139016520Y-104780760D02*
X139016520Y-103891760D01*
X139016520Y-105745960D02*
X139016520Y-105491960D01*
X139016520Y-106177760D02*
X139016520Y-105923760D01*
X139016520Y-107117560D02*
X139016520Y-106482560D01*
X139016520Y-107752560D02*
X139016520Y-107473160D01*
X139016520Y-108285960D02*
X139016520Y-107904960D01*
X139016520Y-109174960D02*
X139016520Y-108793960D01*
X139016520Y-110775160D02*
X139016520Y-110140160D01*
X139016520Y-111384760D02*
X139016520Y-110952960D01*
X139016520Y-111689560D02*
X139016520Y-111562560D01*
X139016520Y-112197560D02*
X139016520Y-111867360D01*
X139016520Y-112451560D02*
X139016520Y-112273760D01*
X138991120Y-101859760D02*
X138991120Y-101529560D01*
X138991120Y-102164560D02*
X138991120Y-101910560D01*
X138991120Y-103688560D02*
X138991120Y-103409160D01*
X138991120Y-104196560D02*
X138991120Y-103917160D01*
X138991120Y-104780760D02*
X138991120Y-104501360D01*
X138991120Y-105745960D02*
X138991120Y-105491960D01*
X138991120Y-106177760D02*
X138991120Y-105923760D01*
X138991120Y-107117560D02*
X138991120Y-106482560D01*
X138991120Y-107752560D02*
X138991120Y-107473160D01*
X138991120Y-108285960D02*
X138991120Y-107930360D01*
X138991120Y-109174960D02*
X138991120Y-108793960D01*
X138991120Y-110749760D02*
X138991120Y-110140160D01*
X138991120Y-111410160D02*
X138991120Y-110952960D01*
X138991120Y-111664160D02*
X138991120Y-111562560D01*
X138991120Y-112197560D02*
X138991120Y-111841960D01*
X138991120Y-112451560D02*
X138991120Y-112273760D01*
X138965720Y-101885160D02*
X138965720Y-101554960D01*
X138965720Y-102164560D02*
X138965720Y-101910560D01*
X138965720Y-103688560D02*
X138965720Y-103409160D01*
X138965720Y-104196560D02*
X138965720Y-103917160D01*
X138965720Y-104755360D02*
X138965720Y-104501360D01*
X138965720Y-105745960D02*
X138965720Y-105491960D01*
X138965720Y-106177760D02*
X138965720Y-105923760D01*
X138965720Y-107117560D02*
X138965720Y-106482560D01*
X138965720Y-107752560D02*
X138965720Y-107473160D01*
X138965720Y-108311360D02*
X138965720Y-107930360D01*
X138965720Y-109149560D02*
X138965720Y-108768560D01*
X138965720Y-110724360D02*
X138965720Y-110140160D01*
X138965720Y-111410160D02*
X138965720Y-110927560D01*
X138965720Y-111638760D02*
X138965720Y-111562560D01*
X138965720Y-112197560D02*
X138965720Y-111816560D01*
X138965720Y-112451560D02*
X138965720Y-112273760D01*
X138940320Y-102164560D02*
X138940320Y-101554960D01*
X138940320Y-103688560D02*
X138940320Y-103409160D01*
X138940320Y-104196560D02*
X138940320Y-103917160D01*
X138940320Y-104755360D02*
X138940320Y-104475960D01*
X138940320Y-105745960D02*
X138940320Y-105491960D01*
X138940320Y-106177760D02*
X138940320Y-105923760D01*
X138940320Y-107117560D02*
X138940320Y-106482560D01*
X138940320Y-107752560D02*
X138940320Y-107473160D01*
X138940320Y-108311360D02*
X138940320Y-107955760D01*
X138940320Y-109149560D02*
X138940320Y-108768560D01*
X138940320Y-110698960D02*
X138940320Y-110140160D01*
X138940320Y-111410160D02*
X138940320Y-110927560D01*
X138940320Y-111613360D02*
X138940320Y-111562560D01*
X138940320Y-112197560D02*
X138940320Y-111791160D01*
X138940320Y-112451560D02*
X138940320Y-112273760D01*
X138914920Y-102164560D02*
X138914920Y-101580360D01*
X138914920Y-103688560D02*
X138914920Y-103409160D01*
X138914920Y-104221960D02*
X138914920Y-103942560D01*
X138914920Y-104729960D02*
X138914920Y-104475960D01*
X138914920Y-105745960D02*
X138914920Y-105491960D01*
X138914920Y-106177760D02*
X138914920Y-105923760D01*
X138914920Y-107117560D02*
X138914920Y-106482560D01*
X138914920Y-107752560D02*
X138914920Y-107473160D01*
X138914920Y-108336760D02*
X138914920Y-107955760D01*
X138914920Y-109124160D02*
X138914920Y-108768560D01*
X138914920Y-110673560D02*
X138914920Y-110140160D01*
X138914920Y-111410160D02*
X138914920Y-110927560D01*
X138914920Y-111587960D02*
X138914920Y-111562560D01*
X138914920Y-112197560D02*
X138914920Y-111765760D01*
X138914920Y-112451560D02*
X138914920Y-112273760D01*
X138889520Y-102164560D02*
X138889520Y-101605760D01*
X138889520Y-103688560D02*
X138889520Y-103409160D01*
X138889520Y-104221960D02*
X138889520Y-103942560D01*
X138889520Y-104729960D02*
X138889520Y-104475960D01*
X138889520Y-105745960D02*
X138889520Y-105491960D01*
X138889520Y-106177760D02*
X138889520Y-105923760D01*
X138889520Y-107117560D02*
X138889520Y-106482560D01*
X138889520Y-107752560D02*
X138889520Y-107473160D01*
X138889520Y-108336760D02*
X138889520Y-107981160D01*
X138889520Y-109124160D02*
X138889520Y-108743160D01*
X138889520Y-110648160D02*
X138889520Y-110140160D01*
X138889520Y-111410160D02*
X138889520Y-110927560D01*
X138889520Y-112197560D02*
X138889520Y-111740360D01*
X138889520Y-112451560D02*
X138889520Y-112273760D01*
X138864120Y-102164560D02*
X138864120Y-101631160D01*
X138864120Y-103688560D02*
X138864120Y-103409160D01*
X138864120Y-104221960D02*
X138864120Y-103942560D01*
X138864120Y-104729960D02*
X138864120Y-104450560D01*
X138864120Y-105745960D02*
X138864120Y-105491960D01*
X138864120Y-106177760D02*
X138864120Y-105923760D01*
X138864120Y-107117560D02*
X138864120Y-106482560D01*
X138864120Y-107752560D02*
X138864120Y-107473160D01*
X138864120Y-108362160D02*
X138864120Y-107981160D01*
X138864120Y-109098760D02*
X138864120Y-108743160D01*
X138864120Y-110622760D02*
X138864120Y-110140160D01*
X138864120Y-111410160D02*
X138864120Y-110927560D01*
X138864120Y-112197560D02*
X138864120Y-111714960D01*
X138864120Y-112451560D02*
X138864120Y-112273760D01*
X138838720Y-102164560D02*
X138838720Y-101631160D01*
X138838720Y-103688560D02*
X138838720Y-103409160D01*
X138838720Y-104247360D02*
X138838720Y-103967960D01*
X138838720Y-104704560D02*
X138838720Y-104450560D01*
X138838720Y-105745960D02*
X138838720Y-105491960D01*
X138838720Y-106177760D02*
X138838720Y-105923760D01*
X138838720Y-107117560D02*
X138838720Y-106482560D01*
X138838720Y-107752560D02*
X138838720Y-107473160D01*
X138838720Y-108362160D02*
X138838720Y-108006560D01*
X138838720Y-109098760D02*
X138838720Y-108717760D01*
X138838720Y-110597360D02*
X138838720Y-110140160D01*
X138838720Y-110775160D02*
X138838720Y-110749760D01*
X138838720Y-111410160D02*
X138838720Y-110927560D01*
X138838720Y-112197560D02*
X138838720Y-111689560D01*
X138838720Y-112451560D02*
X138838720Y-112273760D01*
X138813320Y-102164560D02*
X138813320Y-101605760D01*
X138813320Y-103688560D02*
X138813320Y-103409160D01*
X138813320Y-104247360D02*
X138813320Y-103967960D01*
X138813320Y-104704560D02*
X138813320Y-104450560D01*
X138813320Y-105745960D02*
X138813320Y-105491960D01*
X138813320Y-106177760D02*
X138813320Y-105923760D01*
X138813320Y-107752560D02*
X138813320Y-107473160D01*
X138813320Y-108387560D02*
X138813320Y-108006560D01*
X138813320Y-109073360D02*
X138813320Y-108717760D01*
X138813320Y-110571960D02*
X138813320Y-110140160D01*
X138813320Y-110775160D02*
X138813320Y-110724360D01*
X138813320Y-111410160D02*
X138813320Y-110927560D01*
X138813320Y-112197560D02*
X138813320Y-111664160D01*
X138813320Y-112451560D02*
X138813320Y-112273760D01*
X138787920Y-101885160D02*
X138787920Y-101580360D01*
X138787920Y-102164560D02*
X138787920Y-101910560D01*
X138787920Y-103688560D02*
X138787920Y-103409160D01*
X138787920Y-104247360D02*
X138787920Y-103993360D01*
X138787920Y-104704560D02*
X138787920Y-104425160D01*
X138787920Y-105745960D02*
X138787920Y-105491960D01*
X138787920Y-106177760D02*
X138787920Y-105923760D01*
X138787920Y-107752560D02*
X138787920Y-107473160D01*
X138787920Y-108387560D02*
X138787920Y-108031960D01*
X138787920Y-109073360D02*
X138787920Y-108692360D01*
X138787920Y-110546560D02*
X138787920Y-110140160D01*
X138787920Y-110775160D02*
X138787920Y-110698960D01*
X138787920Y-111410160D02*
X138787920Y-110952960D01*
X138787920Y-112197560D02*
X138787920Y-111638760D01*
X138787920Y-112451560D02*
X138787920Y-112273760D01*
X138762520Y-101885160D02*
X138762520Y-101554960D01*
X138762520Y-102164560D02*
X138762520Y-101910560D01*
X138762520Y-103688560D02*
X138762520Y-103409160D01*
X138762520Y-104272760D02*
X138762520Y-103993360D01*
X138762520Y-104679160D02*
X138762520Y-104425160D01*
X138762520Y-105745960D02*
X138762520Y-105491960D01*
X138762520Y-106177760D02*
X138762520Y-105923760D01*
X138762520Y-107752560D02*
X138762520Y-107447760D01*
X138762520Y-108412960D02*
X138762520Y-108031960D01*
X138762520Y-109047960D02*
X138762520Y-108692360D01*
X138762520Y-110521160D02*
X138762520Y-110140160D01*
X138762520Y-110775160D02*
X138762520Y-110673560D01*
X138762520Y-111384760D02*
X138762520Y-110952960D01*
X138762520Y-112197560D02*
X138762520Y-111613360D01*
X138762520Y-112451560D02*
X138762520Y-112273760D01*
X138737120Y-101859760D02*
X138737120Y-101529560D01*
X138737120Y-102164560D02*
X138737120Y-101910560D01*
X138737120Y-103688560D02*
X138737120Y-103383760D01*
X138737120Y-104272760D02*
X138737120Y-103993360D01*
X138737120Y-104679160D02*
X138737120Y-104425160D01*
X138737120Y-105745960D02*
X138737120Y-105491960D01*
X138737120Y-106177760D02*
X138737120Y-105923760D01*
X138737120Y-107752560D02*
X138737120Y-107447760D01*
X138737120Y-108412960D02*
X138737120Y-108057360D01*
X138737120Y-109047960D02*
X138737120Y-108666960D01*
X138737120Y-110495760D02*
X138737120Y-110140160D01*
X138737120Y-110775160D02*
X138737120Y-110622760D01*
X138737120Y-111384760D02*
X138737120Y-110952960D01*
X138737120Y-112197560D02*
X138737120Y-111587960D01*
X138737120Y-112451560D02*
X138737120Y-112273760D01*
X138711720Y-101834360D02*
X138711720Y-101504160D01*
X138711720Y-102164560D02*
X138711720Y-101910560D01*
X138711720Y-103688560D02*
X138711720Y-103383760D01*
X138711720Y-104272760D02*
X138711720Y-104018760D01*
X138711720Y-104679160D02*
X138711720Y-104399760D01*
X138711720Y-105745960D02*
X138711720Y-105491960D01*
X138711720Y-106177760D02*
X138711720Y-105923760D01*
X138711720Y-107727160D02*
X138711720Y-107447760D01*
X138711720Y-108438360D02*
X138711720Y-108057360D01*
X138711720Y-109022560D02*
X138711720Y-108666960D01*
X138711720Y-110470360D02*
X138711720Y-110140160D01*
X138711720Y-110775160D02*
X138711720Y-110597360D01*
X138711720Y-111359360D02*
X138711720Y-110978360D01*
X138711720Y-112197560D02*
X138711720Y-111562560D01*
X138711720Y-112451560D02*
X138711720Y-112273760D01*
X138686320Y-101808960D02*
X138686320Y-101478760D01*
X138686320Y-102164560D02*
X138686320Y-101910560D01*
X138686320Y-103663160D02*
X138686320Y-103358360D01*
X138686320Y-104298160D02*
X138686320Y-104018760D01*
X138686320Y-104653760D02*
X138686320Y-104399760D01*
X138686320Y-105745960D02*
X138686320Y-105491960D01*
X138686320Y-106177760D02*
X138686320Y-105923760D01*
X138686320Y-107727160D02*
X138686320Y-107422360D01*
X138686320Y-108438360D02*
X138686320Y-108082760D01*
X138686320Y-109022560D02*
X138686320Y-108641560D01*
X138686320Y-110444960D02*
X138686320Y-110140160D01*
X138686320Y-110775160D02*
X138686320Y-110571960D01*
X138686320Y-111333960D02*
X138686320Y-111003760D01*
X138686320Y-112197560D02*
X138686320Y-111537160D01*
X138686320Y-112451560D02*
X138686320Y-112273760D01*
X138660920Y-101783560D02*
X138660920Y-101453360D01*
X138660920Y-102164560D02*
X138660920Y-101910560D01*
X138660920Y-103663160D02*
X138660920Y-103358360D01*
X138660920Y-104298160D02*
X138660920Y-104018760D01*
X138660920Y-104653760D02*
X138660920Y-104399760D01*
X138660920Y-105745960D02*
X138660920Y-105491960D01*
X138660920Y-106177760D02*
X138660920Y-105923760D01*
X138660920Y-107727160D02*
X138660920Y-107422360D01*
X138660920Y-108463760D02*
X138660920Y-108108160D01*
X138660920Y-108997160D02*
X138660920Y-108641560D01*
X138660920Y-110419560D02*
X138660920Y-110140160D01*
X138660920Y-110749760D02*
X138660920Y-110546560D01*
X138660920Y-111308560D02*
X138660920Y-111029160D01*
X138660920Y-112197560D02*
X138660920Y-111511760D01*
X138660920Y-112451560D02*
X138660920Y-112273760D01*
X138635520Y-101758160D02*
X138635520Y-101427960D01*
X138635520Y-102164560D02*
X138635520Y-101910560D01*
X138635520Y-103663160D02*
X138635520Y-103332960D01*
X138635520Y-104298160D02*
X138635520Y-104044160D01*
X138635520Y-104628360D02*
X138635520Y-104374360D01*
X138635520Y-105745960D02*
X138635520Y-105491960D01*
X138635520Y-106177760D02*
X138635520Y-105923760D01*
X138635520Y-107727160D02*
X138635520Y-107396960D01*
X138635520Y-108463760D02*
X138635520Y-108108160D01*
X138635520Y-108997160D02*
X138635520Y-108616160D01*
X138635520Y-110394160D02*
X138635520Y-110140160D01*
X138635520Y-110724360D02*
X138635520Y-110521160D01*
X138635520Y-110876760D02*
X138635520Y-110851360D01*
X138635520Y-111257760D02*
X138635520Y-111079960D01*
X138635520Y-112197560D02*
X138635520Y-111486360D01*
X138635520Y-112451560D02*
X138635520Y-112273760D01*
X138610120Y-101732760D02*
X138610120Y-101402560D01*
X138610120Y-102164560D02*
X138610120Y-101910560D01*
X138610120Y-103663160D02*
X138610120Y-103332960D01*
X138610120Y-104323560D02*
X138610120Y-104044160D01*
X138610120Y-104628360D02*
X138610120Y-104374360D01*
X138610120Y-105745960D02*
X138610120Y-105491960D01*
X138610120Y-106177760D02*
X138610120Y-105923760D01*
X138610120Y-107701760D02*
X138610120Y-107371560D01*
X138610120Y-108489160D02*
X138610120Y-108133560D01*
X138610120Y-108971760D02*
X138610120Y-108616160D01*
X138610120Y-110368760D02*
X138610120Y-110140160D01*
X138610120Y-110698960D02*
X138610120Y-110495760D01*
X138610120Y-110902160D02*
X138610120Y-110851360D01*
X138610120Y-112197560D02*
X138610120Y-111460960D01*
X138610120Y-112451560D02*
X138610120Y-112273760D01*
X138584720Y-101707360D02*
X138584720Y-101377160D01*
X138584720Y-102164560D02*
X138584720Y-101910560D01*
X138584720Y-103637760D02*
X138584720Y-103307560D01*
X138584720Y-104323560D02*
X138584720Y-104044160D01*
X138584720Y-104628360D02*
X138584720Y-104374360D01*
X138584720Y-105745960D02*
X138584720Y-105491960D01*
X138584720Y-106177760D02*
X138584720Y-105923760D01*
X138584720Y-107701760D02*
X138584720Y-107346160D01*
X138584720Y-108489160D02*
X138584720Y-108133560D01*
X138584720Y-108971760D02*
X138584720Y-108616160D01*
X138584720Y-110343360D02*
X138584720Y-110140160D01*
X138584720Y-110673560D02*
X138584720Y-110470360D01*
X138584720Y-110927560D02*
X138584720Y-110825960D01*
X138584720Y-112197560D02*
X138584720Y-111435560D01*
X138584720Y-112451560D02*
X138584720Y-112273760D01*
X138559320Y-101707360D02*
X138559320Y-101351760D01*
X138559320Y-102164560D02*
X138559320Y-101910560D01*
X138559320Y-103637760D02*
X138559320Y-103282160D01*
X138559320Y-104323560D02*
X138559320Y-104069560D01*
X138559320Y-104602960D02*
X138559320Y-104348960D01*
X138559320Y-105745960D02*
X138559320Y-105491960D01*
X138559320Y-106177760D02*
X138559320Y-105923760D01*
X138559320Y-106660360D02*
X138559320Y-106634960D01*
X138559320Y-107676360D02*
X138559320Y-107320760D01*
X138559320Y-108514560D02*
X138559320Y-108158960D01*
X138559320Y-108946360D02*
X138559320Y-108590760D01*
X138559320Y-110317960D02*
X138559320Y-110140160D01*
X138559320Y-110648160D02*
X138559320Y-110444960D01*
X138559320Y-110952960D02*
X138559320Y-110800560D01*
X138559320Y-112197560D02*
X138559320Y-111384760D01*
X138559320Y-112451560D02*
X138559320Y-112273760D01*
X138533920Y-101681960D02*
X138533920Y-101326360D01*
X138533920Y-102164560D02*
X138533920Y-101910560D01*
X138533920Y-103612360D02*
X138533920Y-103256760D01*
X138533920Y-104602960D02*
X138533920Y-104069560D01*
X138533920Y-105745960D02*
X138533920Y-105491960D01*
X138533920Y-106177760D02*
X138533920Y-105923760D01*
X138533920Y-106711160D02*
X138533920Y-106609560D01*
X138533920Y-107676360D02*
X138533920Y-107269960D01*
X138533920Y-108514560D02*
X138533920Y-108158960D01*
X138533920Y-108946360D02*
X138533920Y-108590760D01*
X138533920Y-110292560D02*
X138533920Y-110140160D01*
X138533920Y-110622760D02*
X138533920Y-110419560D01*
X138533920Y-111003760D02*
X138533920Y-110775160D01*
X138533920Y-112197560D02*
X138533920Y-111359360D01*
X138533920Y-112451560D02*
X138533920Y-112273760D01*
X138508520Y-101656560D02*
X138508520Y-101300960D01*
X138508520Y-102164560D02*
X138508520Y-101910560D01*
X138508520Y-103612360D02*
X138508520Y-103205960D01*
X138508520Y-104602960D02*
X138508520Y-104094960D01*
X138508520Y-105745960D02*
X138508520Y-105491960D01*
X138508520Y-106177760D02*
X138508520Y-105923760D01*
X138508520Y-106761960D02*
X138508520Y-106609560D01*
X138508520Y-107650960D02*
X138508520Y-107244560D01*
X138508520Y-108539960D02*
X138508520Y-108184360D01*
X138508520Y-108920960D02*
X138508520Y-108565360D01*
X138508520Y-110267160D02*
X138508520Y-110140160D01*
X138508520Y-110597360D02*
X138508520Y-110394160D01*
X138508520Y-111079960D02*
X138508520Y-110749760D01*
X138508520Y-112197560D02*
X138508520Y-111283160D01*
X138508520Y-112451560D02*
X138508520Y-112273760D01*
X138483120Y-101631160D02*
X138483120Y-101300960D01*
X138483120Y-102164560D02*
X138483120Y-101910560D01*
X138483120Y-102672560D02*
X138483120Y-102596360D01*
X138483120Y-103586960D02*
X138483120Y-103155160D01*
X138483120Y-104577560D02*
X138483120Y-104094960D01*
X138483120Y-105745960D02*
X138483120Y-105491960D01*
X138483120Y-106177760D02*
X138483120Y-105923760D01*
X138483120Y-106863560D02*
X138483120Y-106584160D01*
X138483120Y-107625560D02*
X138483120Y-107168360D01*
X138483120Y-108539960D02*
X138483120Y-108184360D01*
X138483120Y-108920960D02*
X138483120Y-108565360D01*
X138483120Y-110241760D02*
X138483120Y-110140160D01*
X138483120Y-110571960D02*
X138483120Y-110368760D01*
X138483120Y-112197560D02*
X138483120Y-110724360D01*
X138483120Y-112451560D02*
X138483120Y-112273760D01*
X138457720Y-101605760D02*
X138457720Y-101275560D01*
X138457720Y-102164560D02*
X138457720Y-101910560D01*
X138457720Y-102748760D02*
X138457720Y-102570960D01*
X138457720Y-103561560D02*
X138457720Y-103104360D01*
X138457720Y-104577560D02*
X138457720Y-104094960D01*
X138457720Y-105745960D02*
X138457720Y-105491960D01*
X138457720Y-106177760D02*
X138457720Y-105923760D01*
X138457720Y-107625560D02*
X138457720Y-106584160D01*
X138457720Y-108895560D02*
X138457720Y-108209760D01*
X138457720Y-110216360D02*
X138457720Y-110140160D01*
X138457720Y-110546560D02*
X138457720Y-110343360D01*
X138457720Y-112197560D02*
X138457720Y-110698960D01*
X138457720Y-112451560D02*
X138457720Y-112273760D01*
X138432320Y-101580360D02*
X138432320Y-101250160D01*
X138432320Y-102164560D02*
X138432320Y-101910560D01*
X138432320Y-103536160D02*
X138432320Y-102570960D01*
X138432320Y-104552160D02*
X138432320Y-104120360D01*
X138432320Y-105745960D02*
X138432320Y-105491960D01*
X138432320Y-106177760D02*
X138432320Y-105923760D01*
X138432320Y-107600160D02*
X138432320Y-106558760D01*
X138432320Y-108895560D02*
X138432320Y-108209760D01*
X138432320Y-110190960D02*
X138432320Y-110140160D01*
X138432320Y-110521160D02*
X138432320Y-110317960D01*
X138432320Y-112197560D02*
X138432320Y-110673560D01*
X138432320Y-112451560D02*
X138432320Y-112273760D01*
X138406920Y-101554960D02*
X138406920Y-101224760D01*
X138406920Y-102164560D02*
X138406920Y-101910560D01*
X138406920Y-103536160D02*
X138406920Y-102570960D01*
X138406920Y-104552160D02*
X138406920Y-104120360D01*
X138406920Y-105745960D02*
X138406920Y-105491960D01*
X138406920Y-106177760D02*
X138406920Y-105923760D01*
X138406920Y-107574760D02*
X138406920Y-106533360D01*
X138406920Y-108870160D02*
X138406920Y-108235160D01*
X138406920Y-110495760D02*
X138406920Y-110292560D01*
X138406920Y-112197560D02*
X138406920Y-110648160D01*
X138406920Y-112451560D02*
X138406920Y-112273760D01*
X138381520Y-101529560D02*
X138381520Y-101199360D01*
X138381520Y-102164560D02*
X138381520Y-101910560D01*
X138381520Y-103510760D02*
X138381520Y-102545560D01*
X138381520Y-104552160D02*
X138381520Y-104120360D01*
X138381520Y-105745960D02*
X138381520Y-105491960D01*
X138381520Y-106177760D02*
X138381520Y-105923760D01*
X138381520Y-107549360D02*
X138381520Y-106533360D01*
X138381520Y-108870160D02*
X138381520Y-108235160D01*
X138381520Y-110470360D02*
X138381520Y-110267160D01*
X138381520Y-112197560D02*
X138381520Y-110622760D01*
X138381520Y-112451560D02*
X138381520Y-112273760D01*
X138356120Y-101529560D02*
X138356120Y-101173960D01*
X138356120Y-102164560D02*
X138356120Y-101910560D01*
X138356120Y-103485360D02*
X138356120Y-102545560D01*
X138356120Y-104526760D02*
X138356120Y-104145760D01*
X138356120Y-105745960D02*
X138356120Y-105491960D01*
X138356120Y-106177760D02*
X138356120Y-105923760D01*
X138356120Y-107523960D02*
X138356120Y-106533360D01*
X138356120Y-108844760D02*
X138356120Y-108260560D01*
X138356120Y-110444960D02*
X138356120Y-110241760D01*
X138356120Y-112197560D02*
X138356120Y-110597360D01*
X138356120Y-112451560D02*
X138356120Y-112273760D01*
X138330720Y-101504160D02*
X138330720Y-101148560D01*
X138330720Y-102164560D02*
X138330720Y-101910560D01*
X138330720Y-103434560D02*
X138330720Y-102520160D01*
X138330720Y-104526760D02*
X138330720Y-104145760D01*
X138330720Y-105745960D02*
X138330720Y-105491960D01*
X138330720Y-106177760D02*
X138330720Y-105923760D01*
X138330720Y-107473160D02*
X138330720Y-106558760D01*
X138330720Y-108844760D02*
X138330720Y-108260560D01*
X138330720Y-110419560D02*
X138330720Y-110216360D01*
X138330720Y-112197560D02*
X138330720Y-110571960D01*
X138330720Y-112451560D02*
X138330720Y-112273760D01*
X138305320Y-101478760D02*
X138305320Y-101123160D01*
X138305320Y-102164560D02*
X138305320Y-101910560D01*
X138305320Y-103409160D02*
X138305320Y-102520160D01*
X138305320Y-104526760D02*
X138305320Y-104171160D01*
X138305320Y-105745960D02*
X138305320Y-105491960D01*
X138305320Y-106177760D02*
X138305320Y-105923760D01*
X138305320Y-107447760D02*
X138305320Y-106609560D01*
X138305320Y-108819360D02*
X138305320Y-108285960D01*
X138305320Y-110394160D02*
X138305320Y-110190960D01*
X138305320Y-112197560D02*
X138305320Y-110546560D01*
X138305320Y-112451560D02*
X138305320Y-112273760D01*
X138279920Y-101453360D02*
X138279920Y-101097760D01*
X138279920Y-102164560D02*
X138279920Y-101910560D01*
X138279920Y-103358360D02*
X138279920Y-102520160D01*
X138279920Y-104501360D02*
X138279920Y-104171160D01*
X138279920Y-105745960D02*
X138279920Y-105491960D01*
X138279920Y-106177760D02*
X138279920Y-105923760D01*
X138279920Y-107396960D02*
X138279920Y-106660360D01*
X138279920Y-108819360D02*
X138279920Y-108285960D01*
X138279920Y-110368760D02*
X138279920Y-110140160D01*
X138279920Y-112197560D02*
X138279920Y-110521160D01*
X138279920Y-112451560D02*
X138279920Y-112260000D01*
X138254520Y-101427960D02*
X138254520Y-101072360D01*
X138254520Y-102164560D02*
X138254520Y-101910560D01*
X138254520Y-103307560D02*
X138254520Y-102570960D01*
X138254520Y-104501360D02*
X138254520Y-104171160D01*
X138254520Y-105745960D02*
X138254520Y-105491960D01*
X138254520Y-106177760D02*
X138254520Y-105923760D01*
X138254520Y-107346160D02*
X138254520Y-106736560D01*
X138254520Y-108793960D02*
X138254520Y-108311360D01*
X138254520Y-110343360D02*
X138254520Y-110140160D01*
X138254520Y-112172160D02*
X138254520Y-110495760D01*
X138254520Y-112451560D02*
X138254520Y-112240000D01*
X138229120Y-101402560D02*
X138229120Y-101046960D01*
X138229120Y-102164560D02*
X138229120Y-101910560D01*
X138229120Y-103256760D02*
X138229120Y-102621760D01*
X138229120Y-104501360D02*
X138229120Y-104196560D01*
X138229120Y-105745960D02*
X138229120Y-105491960D01*
X138229120Y-106177760D02*
X138229120Y-105923760D01*
X138229120Y-107244560D02*
X138229120Y-106812760D01*
X138229120Y-108793960D02*
X138229120Y-108311360D01*
X138229120Y-110317960D02*
X138229120Y-110140160D01*
X138229120Y-112146760D02*
X138229120Y-110470360D01*
X138229120Y-112451560D02*
X138229120Y-112222960D01*
X138203720Y-101377160D02*
X138203720Y-101021560D01*
X138203720Y-102164560D02*
X138203720Y-101910560D01*
X138203720Y-103180560D02*
X138203720Y-102723360D01*
X138203720Y-104475960D02*
X138203720Y-104196560D01*
X138203720Y-105745960D02*
X138203720Y-105491960D01*
X138203720Y-106177760D02*
X138203720Y-105923760D01*
X138203720Y-108768560D02*
X138203720Y-108336760D01*
X138203720Y-110292560D02*
X138203720Y-110140160D01*
X138203720Y-112121360D02*
X138203720Y-110444960D01*
X138203720Y-112451560D02*
X138203720Y-112200000D01*
X138178320Y-108768560D02*
X138178320Y-108336760D01*
X138178320Y-110267160D02*
X138178320Y-110140160D01*
X138178320Y-112095960D02*
X138178320Y-110419560D01*
X138178320Y-112451560D02*
X138178320Y-112170000D01*
X138152920Y-108743160D02*
X138152920Y-108362160D01*
X138152920Y-110216360D02*
X138152920Y-110140160D01*
X138152920Y-112070560D02*
X138152920Y-110394160D01*
X138152920Y-112451560D02*
X138152920Y-112146760D01*
X138127520Y-108743160D02*
X138127520Y-108362160D01*
X138127520Y-110216360D02*
X138127520Y-110140160D01*
X138127520Y-112045160D02*
X138127520Y-110368760D01*
X138127520Y-112426160D02*
X138127520Y-112121360D01*
X138102120Y-108717760D02*
X138102120Y-108387560D01*
X138102120Y-112019760D02*
X138102120Y-110343360D01*
X138102120Y-112400760D02*
X138102120Y-112095960D01*
X138076720Y-108717760D02*
X138076720Y-108387560D01*
X138076720Y-111994360D02*
X138076720Y-110317960D01*
X138076720Y-112375360D02*
X138076720Y-112070560D01*
X138051320Y-108692360D02*
X138051320Y-108412960D01*
X138051320Y-111968960D02*
X138051320Y-110292560D01*
X138051320Y-112349960D02*
X138051320Y-112045160D01*
X138025920Y-108692360D02*
X138025920Y-108412960D01*
X138025920Y-111943560D02*
X138025920Y-110267160D01*
X138025920Y-112324560D02*
X138025920Y-112019760D01*
X138000520Y-108666960D02*
X138000520Y-108438360D01*
X138000520Y-111918160D02*
X138000520Y-110241760D01*
X138000520Y-112299160D02*
X138000520Y-111994360D01*
X137975120Y-108666960D02*
X137975120Y-108438360D01*
X137975120Y-111892760D02*
X137975120Y-110216360D01*
X137975120Y-112273760D02*
X137975120Y-111968960D01*
X137949720Y-108641560D02*
X137949720Y-108463760D01*
X137949720Y-111867360D02*
X137949720Y-110190960D01*
X137949720Y-112248360D02*
X137949720Y-111943560D01*
X137924320Y-108641560D02*
X137924320Y-108463760D01*
X137924320Y-111841960D02*
X137924320Y-110140160D01*
X137924320Y-112222960D02*
X137924320Y-111918160D01*
X137898920Y-108616160D02*
X137898920Y-108489160D01*
X137898920Y-111816560D02*
X137898920Y-110140160D01*
X137898920Y-112197560D02*
X137898920Y-111892760D01*
X137873520Y-108616160D02*
X137873520Y-108489160D01*
X137873520Y-112172160D02*
X137873520Y-111867360D01*
X137848120Y-108590760D02*
X137848120Y-108514560D01*
X137848120Y-112146760D02*
X137848120Y-111841960D01*
X137822720Y-108590760D02*
X137822720Y-108514560D01*
X137822720Y-112121360D02*
X137822720Y-111816560D01*
X137797320Y-108565360D02*
X137797320Y-108539960D01*
X137797320Y-112095960D02*
X137797320Y-110292560D01*
X137771920Y-112070560D02*
X137771920Y-110292560D01*
X137746520Y-112045160D02*
X137746520Y-110292560D01*
X137721120Y-112019760D02*
X137721120Y-110292560D01*
X137695720Y-111994360D02*
X137695720Y-110292560D01*
X137670320Y-111968960D02*
X137670320Y-110292560D01*
X137644920Y-111943560D02*
X137644920Y-110292560D01*
G04 #@! TO.C,P1*
D11*
X130221904Y-114342380D02*
X130221904Y-113342380D01*
X130602857Y-113342380D01*
X130698095Y-113390000D01*
X130745714Y-113437619D01*
X130793333Y-113532857D01*
X130793333Y-113675714D01*
X130745714Y-113770952D01*
X130698095Y-113818571D01*
X130602857Y-113866190D01*
X130221904Y-113866190D01*
X131745714Y-114342380D02*
X131174285Y-114342380D01*
X131460000Y-114342380D02*
X131460000Y-113342380D01*
X131364761Y-113485238D01*
X131269523Y-113580476D01*
X131174285Y-113628095D01*
G04 #@! TD*
M02*
